<!--PureVizConfig>[{"vid":"36","visualtype":"tspan","propertyType":"textcontent","mappingOption":"custom","mappedValue":["EUR"]},{"vid":"37","visualtype":"tspan","propertyType":"textcontent","mappingOption":"custom","mappedValue":["TRX"]},{"vid":"38","visualtype":"tspan","propertyType":"textcontent","mappingOption":"custom","mappedValue":["GRY"]},{"vid":"40","visualtype":"tspan","propertyType":"textcontent","mappingOption":"custom","mappedValue":["All Products"]},{"vid":"39","visualtype":"tspan","propertyType":"textcontent","mappingOption":"custom","mappedValue":["{text|Selected P.|}"]},{"vid":"65","visualtype":"tspan","propertyType":"textcontent","mappingOption":"custom","mappedValue":["{math|53|0;}"]},{"vid":"64","visualtype":"tspan","propertyType":"textcontent","mappingOption":"custom","mappedValue":["{math|35|0;}"]},{"vid":"63","visualtype":"tspan","propertyType":"textcontent","mappingOption":"custom","mappedValue":["{math|61|0;}"]},{"vid":"34","visualtype":"path","propertyType":"shapetransform","mappingOption":"custom","mappedValue":["0","0","0","{math|61|}","100","0","50"]},{"vid":"33","visualtype":"path","propertyType":"shapetransform","mappingOption":"custom","mappedValue":["0","0","0","{math|35|}","100","0","50"]},{"vid":"32","visualtype":"path","propertyType":"shapetransform","mappingOption":"custom","mappedValue":["0","0","0","{math|53|}","100","0","50"]},{"vid":"60","visualtype":"tspan","propertyType":"textcontent","mappingOption":"custom","mappedValue":["30"]},{"vid":"61","visualtype":"tspan","propertyType":"textcontent","mappingOption":"custom","mappedValue":["{text|56|}"]},{"vid":"41","visualtype":"path","propertyType":"shapetransform","mappingOption":"custom","mappedValue":["0","0","0","30","100","100","50"]},{"vid":"60","visualtype":"tspan","propertyType":"textposition","mappingOption":"custom","mappedValue":["-110","70"]},{"vid":"61","visualtype":"tspan","propertyType":"textposition","mappingOption":"custom","mappedValue":["-112","149"]},{"vid":"62","visualtype":"tspan","propertyType":"textcontent","mappingOption":"custom","mappedValue":["72"]},{"vid":"62","visualtype":"tspan","propertyType":"textposition","mappingOption":"custom","mappedValue":["-112","225"]},{"vid":"43","visualtype":"path","propertyType":"shapetransform","mappingOption":"custom","mappedValue":["0","0","0","72","100","100","50"]},{"vid":"42","visualtype":"path","propertyType":"shapetransform","mappingOption":"custom","mappedValue":["0","0","0","56","100","100","50"]},{"vid":"31","visualtype":"path","propertyType":"shapetransformani","mappingOption":"custom","mappedValue":["0","0","0","0","0","0","95","100","1","0","ease-in-out","alternate","50","50","0","80","100","100","100"]},{"vid":"40","visualtype":"tspan","propertyType":"textfill","mappingOption":"custom","mappedValue":["rgba(0, 0, 0, 1)"]},{"vid":"39","visualtype":"tspan","propertyType":"textfill","mappingOption":"gradient","mappedValue":[null,"#1E9600","rgba(41, 78, 179, 1)","rgba(58, 195, 96, 1)","#000001","0","66","100","100","45"]}]</PureVizConfig--><svg viewBox="0 0 742 370" width="742" height="370" xmlns="http://www.w3.org/2000/svg" xmlns:xlink="http://www.w3.org/1999/xlink" overflow="hidden"><defs><clipPath id="clip0"><rect x="269" y="175" width="742" height="370"/></clipPath><linearGradient x1="520" y1="389" x2="566" y2="389" gradientUnits="userSpaceOnUse" spreadMethod="reflect" id="fill1"><stop offset="0" stop-color="#000000" stop-opacity="0"/><stop offset="0.27" stop-color="#000000" stop-opacity="0"/><stop offset="1" stop-color="#000000" stop-opacity="0.45098"/></linearGradient><linearGradient x1="743" y1="389" x2="697" y2="389" gradientUnits="userSpaceOnUse" spreadMethod="reflect" id="fill2"><stop offset="0" stop-color="#000000" stop-opacity="0"/><stop offset="0.27" stop-color="#000000" stop-opacity="0"/><stop offset="1" stop-color="#000000" stop-opacity="0.45098"/></linearGradient><clipPath id="clip3"><rect x="364" y="203" width="47" height="47"/></clipPath><clipPath id="clip4"><rect x="364" y="203" width="47" height="47"/></clipPath><clipPath id="clip5"><rect x="364" y="203" width="47" height="47"/></clipPath><clipPath id="clip6"><rect x="855" y="203" width="48" height="48"/></clipPath><clipPath id="clip7"><rect x="855" y="203" width="48" height="48"/></clipPath><clipPath id="clip8"><rect x="855" y="203" width="48" height="48"/></clipPath></defs><g clip-path="url(#clip0)" transform="translate(-269 -175)"><rect x="270" y="176" width="740" height="368" fill="#FFFFFF"/><path d="M453.5 263.5 453.5 516.937" stroke="#BFBFBF" stroke-width="0.666667" stroke-miterlimit="8" fill="none" fill-rule="evenodd"/><path d="M566.5 263.5 566.5 516.937" stroke="#BFBFBF" stroke-width="0.666667" stroke-miterlimit="8" fill="none" fill-rule="evenodd"/><path d="M359.5 263.5 359.5 516.937" stroke="#BFBFBF" stroke-width="0.666667" stroke-miterlimit="8" fill="none" fill-rule="evenodd"/><path d="M791.5 263.5 791.5 516.937" stroke="#BFBFBF" stroke-width="0.666667" stroke-miterlimit="8" fill="none" fill-rule="evenodd"/><path d="M903.5 263.5 903.5 516.937" stroke="#BFBFBF" stroke-width="0.666667" stroke-miterlimit="8" fill="none" fill-rule="evenodd"/><path d="M697.5 263.5 697.5 516.937" stroke="#BFBFBF" stroke-width="0.666667" stroke-miterlimit="8" fill="none" fill-rule="evenodd"/><path d="M420 246 840 246" stroke="#262626" stroke-width="4" stroke-miterlimit="8" stroke-opacity="0.580392" fill="none" fill-rule="evenodd"/><path d="M697 285 915.451 285 918.653 285 948.725 285C967.102 285 982 296.193 982 310 982 323.807 967.102 335 948.725 335L918.653 335 915.451 335 697 335Z" fill="#0CAAE9" fill-rule="evenodd"/><path d="M697 363 915.451 363 918.653 363 948.725 363C967.102 363 982 374.193 982 388 982 401.807 967.102 413 948.725 413L918.653 413 915.451 413 697 413Z" fill="#E34A57" fill-rule="evenodd"/><path d="M697 443 915.451 443 918.653 443 948.725 443C967.102 443 982 454.193 982 468 982 481.807 967.102 493 948.725 493L918.653 493 915.451 493 697 493Z" fill="#70AD47" fill-rule="evenodd"/><text fill="#404040" font-family="Segoe UI,Segoe UI_MSFontService,sans-serif" font-weight="600" font-size="27" transform="translate(602.506 317)"><tspan x="0" y="0">Cat 1</tspan><tspan font-size="27" x="-2.08331" y="78">Cat 2</tspan><tspan font-size="27" x="-2.08331" y="158">Cat 3</tspan><tspan font-size="27" x="89.6433" y="-84">Segment 2</tspan><tspan font-size="27" x="-157.777" y="-84">Segment 1</tspan></text><path d="M566 335 360.58 335 357.568 335 329.29 335C312.009 335 298 323.807 298 310 298 296.193 312.009 285 329.29 285L357.568 285 360.58 285 566 285Z" fill="#0CAAE9" fill-rule="evenodd"/><path d="M566 413 360.58 413 357.568 413 329.29 413C312.009 413 298 401.807 298 388 298 374.193 312.009 363 329.29 363L357.568 363 360.58 363 566 363Z" fill="#E34A57" fill-rule="evenodd"/><path d="M566 493 360.58 493 357.568 493 329.29 493C312.009 493 298 481.807 298 468 298 454.193 312.009 443 329.29 443L357.568 443 360.58 443 566 443Z" fill="#70AD47" fill-rule="evenodd"/><rect x="520" y="285" width="46" height="208" fill="url(#fill1)"/><rect x="697" y="285" width="46" height="208" fill="url(#fill2)"/><g clip-path="url(#clip3)"><g clip-path="url(#clip4)"><g clip-path="url(#clip5)"><path d="M372.323 208.385 375.26 208.385 375.26 244.615 372.323 244.615Z" fill="#000000" fill-opacity="0.5"/><path d="M400.229 208.385 377.219 208.385 377.219 244.615 400.229 244.615C401.306 244.615 402.188 243.733 402.188 242.656L402.188 210.344C402.188 209.267 401.306 208.385 400.229 208.385ZM385.591 222.143C385.591 220.086 387.255 218.422 389.311 218.422 391.368 218.422 393.032 220.086 393.032 222.143 393.032 224.199 391.368 225.864 389.311 225.864 387.255 225.864 385.591 224.248 385.591 222.143ZM396.802 234.333 381.821 234.333 381.821 230.613C381.821 230.025 382.115 229.486 382.555 229.095 383.681 228.311 384.905 227.675 386.227 227.332 387.255 227.039 388.283 226.892 389.311 226.843 390.34 226.843 391.417 226.99 392.396 227.332 393.718 227.675 394.942 228.262 396.068 229.095 396.508 229.438 396.802 230.025 396.802 230.613L396.802 234.333Z" fill="#000000" fill-opacity="0.5"/></g></g></g><g clip-path="url(#clip6)"><g clip-path="url(#clip7)"><g clip-path="url(#clip8)"><path d="M879 208C881.5 208 883.5 210 883.5 212.5L874.5 212.5C874.5 210 876.5 208 879 208ZM869 222C869 222.55 869.45 223 870 223L877 223 877 222C877 221.45 877.45 221 878 221L880 221C880.55 221 881 221.45 881 222L881 223 888 223C888.55 223 889 222.55 889 222L889 212.5 886.5 212.5C886.5 208.35 883.15 205 879 205 874.85 205 871.5 208.35 871.5 212.5L869 212.5 869 222Z" fill="#000000" fill-opacity="0.5"/><path d="M886.35 237.5 871.65 237.5C871.3 237.5 871 237.8 871 238.15L871 245 887 245 887 238.15C887 237.8 886.7 237.5 886.35 237.5L886.35 237.5Z" fill="#000000" fill-opacity="0.5"/><path d="M894 228.5 893 228.5 893 216.5C893 215.05 892.25 213.75 891 213.05L891 222C891 223.65 889.65 225 888 225L881 225 881 226C881 226.55 880.55 227 880 227L878 227C877.45 227 877 226.55 877 226L877 225 870 225C868.35 225 867 223.65 867 222L867 213.05C865.75 213.75 865 215.1 865 216.5L865 228.5 864 228.5C862.9 228.5 862 229.4 862 230.5L862 238.5C862 239.6 862.9 240.5 864 240.5L865 240.5 865 243C865 244.1 865.9 245 867 245L869 245 869 238.15C869 236.7 870.2 235.5 871.65 235.5L886.4 235.5C887.85 235.5 889.05 236.7 889.05 238.15L889.05 245 891.05 245C892.15 245 893.05 244.1 893.05 243L893.05 240.5 894.05 240.5C895.15 240.5 896.05 239.6 896.05 238.5L896.05 230.5C896 229.4 895.1 228.5 894 228.5Z" fill="#000000" fill-opacity="0.5"/></g></g></g><path d="M612 242.5C612 231.178 621.178 222 632.5 222 643.822 222 653 231.178 653 242.5 653 253.822 643.822 263 632.5 263 621.178 263 612 253.822 612 242.5Z" fill="#404040" fill-rule="evenodd"/><text fill="#FFFFFF" font-family="Segoe UI,Segoe UI_MSFontService,sans-serif" font-weight="600" font-size="21" transform="translate(620.222 250)"><tspan x="0" y="0">vs.</tspan><tspan font-size="24" x="-126.925" y="70">%99</tspan><tspan font-size="24" x="-126.925" y="149">%99</tspan><tspan font-size="24" x="-126.925" y="225">%99</tspan><tspan font-size="24" x="100.768" y="226">%99</tspan><tspan font-size="24" x="100.768" y="149">%99</tspan><tspan font-size="24" x="100.768" y="69">%99</tspan></text></g></svg>