<!--PureVizConfig>[{"vid":"9","visualtype":"path","propertyType":"shapefill","mappingOption":"specialfill","mappedValue":[null,"rgba(32, 45, 125, 1)","#222222",null,"rgba(46, 49, 142, 0.74)","0",null,null,null,null,"{math|39|}","bt"]},{"vid":"8","visualtype":"path","propertyType":"shapefill","mappingOption":"specialfill","mappedValue":[null,"rgba(62, 132, 151, 1)","#222222",null,"rgba(62, 132, 151, 0.54)","0",null,null,null,null,"{math|54|}","bt"]},{"vid":"23","visualtype":"tspan","propertyType":"textcontent","mappingOption":"custom","mappedValue":["%{math|54|0;,}"]},{"vid":"24","visualtype":"tspan","propertyType":"textcontent","mappingOption":"custom","mappedValue":["99%"]},{"vid":"21","visualtype":"tspan","propertyType":"textcontent","mappingOption":"custom","mappedValue":["89%"]},{"vid":"7","visualtype":"path","propertyType":"shapefill","mappingOption":"specialfill","mappedValue":[null,"rgba(169, 94, 208, 1)","#222222",null,"rgba(220, 192, 255, 1)","0",null,null,null,null,"89","bt"]},{"vid":"5","visualtype":"path","propertyType":"shapefill","mappingOption":"specialfill","mappedValue":[null,"rgba(42, 98, 194, 1)","#222222",null,"rgba(227, 227, 227, 1)","0",null,null,null,null,"85","bt"]},{"vid":"6","visualtype":"path","propertyType":"shapefill","mappingOption":"specialfill","mappedValue":[null,"rgba(106, 204, 81, 1)","#222222",null,"rgba(168, 215, 138, 1)","0",null,null,null,null,"{math|46|}","bt"]},{"vid":"19","visualtype":"tspan","propertyType":"textcontent","mappingOption":"custom","mappedValue":["%{math|46|0;,}"]},{"vid":"20","visualtype":"tspan","propertyType":"textcontent","mappingOption":"custom","mappedValue":["85%"]},{"vid":"22","visualtype":"tspan","propertyType":"textcontent","mappingOption":"custom","mappedValue":["%{math|39|0;,}"]},{"vid":"3","visualtype":"g","propertyType":"shapetransformani","mappingOption":"custom","mappedValue":["0","0","0","0","0","0","97","100","1","0","ease-in-out","alternate","50","50","0","97","100","100","100"]}]</PureVizConfig--><svg viewBox="0 0 938 502" width="938" height="502" xmlns="http://www.w3.org/2000/svg" xmlns:xlink="http://www.w3.org/1999/xlink" overflow="hidden"><defs><clipPath id="clip0"><rect x="180" y="131" width="938" height="502"/></clipPath></defs><g clip-path="url(#clip0)" transform="translate(-180 -131)"><rect x="180" y="131" width="937" height="502" fill="#FFFFFF"/><path d="M402 421.352C402.637 418.595 403.062 416.121 403.699 414 404.195 414.495 404.832 414.778 405.753 414.778 411.843 414.778 407.806 419.302 410.214 423.331 412.692 427.431 416.729 430.258 420.057 429.057 423.314 427.855 428.979 430.258 432.236 428.208 435.493 426.229 438.822 422.129 440.45 426.229 442.079 430.258 448.594 428.633 452.63 428.633 456.737 428.633 462.472 427.431 469.412 431.531 476.351 435.56 482.016 441.286 487.327 441.286 492.638 441.286 491.859 446.587 491.859 451.889 491.859 457.191 498.728 457.191 506.092 459.594 513.456 462.068 516.714 461.644 524.078 466.097 531.371 470.621 533 473.025 529.389 478.326 525.706 483.628 517.917 491.757 517.563 499.533 517.138 507.238 512.252 514.59 506.942 515.367 501.631 516.215 496.745 520.315 496.745 523.92 496.745 527.596 491.859 525.97 491.434 532.898 491.009 539.825 484.919 547.601 482.016 546.329 479.184 545.127 468.987 539.401 473.094 545.127 477.13 550.853 477.98 553.68 473.448 555.73 468.987 557.78 463.251 566.333 460.419 563.435 457.586 560.608 457.941 563.859 457.941 566.687 457.941 569.585 457.162 575.24 453.479 575.24 449.797 575.24 456.737 585.419 454.683 586.692 452.63 587.893 446.54 599.274 446.54 599.274 446.54 599.274 446.965 605 442.433 601.324 437.972 597.648 434.715 586.268 433.086 583.016 431.457 579.764 433.511 579.34 435.918 575.24 438.397 571.211 437.972 567.959 435.493 560.608 433.086 553.256 433.865 547.601 437.547 544.703 441.229 541.875 439.176 532.474 439.176 527.243 439.176 521.941 446.965 520.669 444.486 516.215 442.079 511.762 444.911 506.46 442.079 503.986 439.176 501.583 435.493 494.655 431.032 494.655 426.571 494.655 427.35 490.131 427.35 486.456 427.35 482.85 418.357 476.276 415.95 471.399 413.471 466.521 413.117 457.968 417.578 455.918 422.039 453.868 420.057 447.789 424.518 446.587 428.979 445.315 426.146 440.437 424.518 437.186 422.889 433.934 412.692 437.186 410.639 433.934 408.656 430.824 408.231 421.988 402 421.352Z" fill="#A5A5A5" fill-rule="evenodd"/><path d="M330.668 242.361C329.041 243.068 329.324 243.563 330.668 244.199L330.668 242.361ZM330.668 224.473C330.173 224.331 329.607 224.26 329.041 224.26 324.159 224.26 321.258 221.008 315.598 221.432 308.665 221.432 305.764 229.988 309.018 234.018 312.273 238.119 324.159 234.018 324.938 238.119 325.433 240.452 328.758 240.947 330.668 241.23L330.668 224.473ZM330.668 213.867C329.253 215.281 328.829 217.544 329.253 219.523 329.395 220.372 329.961 220.796 330.668 221.008L330.668 213.867ZM330.668 205.594 330.668 209.2C328.97 210.615 326.07 211.887 323.735 211.887 318.57 211.887 319.773 215.564 315.811 215.564 311.848 215.564 309.372 210.685 315.528 210.332 321.612 210.049 321.895 205.807 328.97 205.453 329.678 205.453 330.244 205.524 330.668 205.594ZM330.668 377.265C330.032 376.063 329.466 374.79 329.041 373.376 327.414 368.073 315.952 362.346 312.698 356.69 309.443 350.963 309.443 339.155 311.919 337.953 314.325 336.681 313.547 333.852 311.919 329.398 310.292 324.873 310.646 324.095 315.598 326.499 320.48 328.974 318.004 321.62 311.919 319.217 305.764 316.742 299.255 311.015 300.104 306.985 300.882 302.884 297.203 303.308 293.948 300.48 290.694 297.581 290.269 289.45 285.387 289.874 280.506 290.298 276.827 286.975 273.572 286.198 270.317 285.349 262.605 283.723 258.926 284.571 255.247 285.349 251.144 282.521 249.092 285.773 247.111 289.026 244.635 282.945 241.38 284.996 238.126 286.975 235.649 293.551 231.97 294.753 228.362 295.955 221.004 302.106 218.174 304.51 215.273 306.985 214.848 301.682 220.155 297.581 225.461 293.551 232.819 287.4 224.683 287.4 216.546 287.4 219.801 283.723 213.221 283.369 206.712 282.945 208.339 274.39 212.443 271.915 216.546 269.511 222.631 265.41 216.9 265.41 211.24 265.41 199 260.108 207.136 259.33 215.273 258.481 216.122 258.906 213.646 254.451 211.24 249.926 201.83 247.522 210.391 246.25 218.952 245.048 222.631 237.341 229.989 237.341 237.277 237.341 249.941 240.947 261.757 241.795 273.572 242.573 284.963 251.977 284.963 248.3 284.963 244.623 286.59 242.997 294.797 242.997 302.934 242.997 300.882 237.341 307.037 241.371 313.122 245.472 309.867 243.846 316.801 243.846 323.735 243.846 321.258 248.3 326.565 248.3 328.121 248.3 329.466 248.159 330.668 248.088L330.668 377.265ZM330.668 209.2 330.668 205.594C333.145 206.089 332.508 207.716 330.668 209.2ZM337.814 227.23 337.814 247.381C337.602 247.31 337.39 247.169 337.177 247.098 334.56 245.684 332.083 244.906 330.668 244.199L330.668 242.361C330.81 242.29 330.951 242.219 331.093 242.219 332.791 241.512 332.083 241.371 330.668 241.23L330.668 224.473C333.074 224.897 335.409 226.169 337.814 227.23ZM337.814 213.443 337.814 222.564C336.187 223.271 334.913 223.412 335.055 222.281 335.267 220.725 332.508 221.574 330.668 221.008L330.668 213.867C331.517 213.16 332.649 212.594 334.135 212.524 335.338 212.382 336.611 212.877 337.814 213.443M337.814 200.009 337.814 202.696C337.39 201.706 337.39 200.716 337.814 200.009ZM337.814 387.588 337.602 387.234C335.196 383.628 332.579 380.729 330.668 377.265L330.668 248.088C333.64 247.805 335.479 247.734 336.328 250.35 336.682 251.34 337.177 251.906 337.814 252.259L337.814 387.588ZM337.814 202.696 337.814 200.009C338.38 199.09 339.654 198.595 341.847 198.736 346.375 198.736 349.63 206.514 343.757 206.514 340.998 206.514 338.663 204.605 337.814 202.696ZM358.12 232.816C358.049 232.674 357.978 232.533 357.978 232.391 355.927 226.311 349.842 228.786 344.111 228.786 341.847 228.786 339.795 228.079 337.814 227.23L337.814 247.381C343.05 249.431 351.894 244.623 358.12 244.623L358.12 232.816ZM358.12 217.402C357.978 217.402 357.766 217.402 357.625 217.402 352.46 217.402 352.46 210.685 348.498 210.685 345.102 210.332 345.738 211.604 344.536 214.927 343.616 217.331 340.857 214.927 337.814 213.443L337.814 222.564C339.3 221.927 341.069 220.796 342.342 219.806 345.102 217.685 348.498 219.24 354.865 219.523 356.139 219.594 357.2 219.523 358.12 219.382L358.12 217.402ZM358.12 210.402 358.12 213.513C355.148 212.877 354.016 210.615 358.12 210.402ZM358.12 196.191 358.12 202.696C355.29 199.655 354.016 195.06 357.129 196.191 357.483 196.191 357.766 196.191 358.12 196.191ZM358.12 400.597C357.412 398.476 356.634 396.638 355.502 395.789 352.248 393.315 341.281 383.133 343.687 386.81 346.163 390.487 348.993 394.941 346.163 395.789 343.333 396.567 340.998 392.325 337.814 387.588L337.814 252.259C339.654 253.179 342.555 252.401 346.163 253.603 351.045 255.229 350.196 247.876 356.705 247.876 357.2 247.876 357.695 247.946 358.12 247.946L358.12 400.597ZM358.12 213.513 358.12 210.402C358.332 210.402 358.615 210.332 358.827 210.332 363.143 210.332 364.063 213.725 359.747 213.725 359.181 213.725 358.615 213.655 358.12 213.513ZM358.12 219.382 358.12 217.402C361.799 217.473 361.516 218.958 358.12 219.382ZM365.973 242.078C363.073 241.442 359.959 238.119 358.12 232.816L358.12 244.623C358.332 244.623 358.544 244.623 358.757 244.623 361.657 244.835 364.275 244.341 365.973 243.775L365.973 242.078ZM365.973 230.765 365.973 235.149C363.922 233.169 363.002 230.836 365.266 230.836 365.478 230.836 365.761 230.836 365.973 230.765ZM365.973 197.393 365.973 205.17C364.841 205.241 363.709 205.241 362.436 205.1 360.879 205.029 359.323 203.968 358.12 202.696L358.12 196.191C361.021 196.262 363.568 196.827 365.973 197.393ZM365.973 409.647C365.195 409.435 364.417 409.294 363.639 409.223 360.525 408.94 359.393 404.415 358.12 400.597L358.12 247.946C361.233 248.229 363.214 249.361 365.973 250.28L365.973 409.647ZM365.973 243.775 365.973 242.078C366.256 242.149 366.61 242.219 366.964 242.219 368.733 242.219 368.025 243.068 365.973 243.775ZM371.28 244.058 371.28 247.169C370.006 246.037 369.865 244.765 371.28 244.058ZM371.28 224.19 371.28 238.048C369.369 237.836 367.388 236.563 365.973 235.149L365.973 230.765C369.582 230.695 371.846 229.493 369.865 228.079 368.096 226.806 368.874 225.109 371.28 224.19ZM371.28 211.887 371.28 218.675C370.997 218.675 370.714 218.604 370.431 218.604 365.903 218.321 366.186 211.392 371.28 211.887ZM371.28 198.595 371.28 205.1C369.44 205.029 367.742 205.17 365.973 205.17L365.973 197.393C367.742 197.817 369.511 198.241 371.28 198.595ZM371.28 189.686 371.28 192.161C370.501 191.241 370.36 190.252 371.28 189.686ZM371.28 411.698C369.369 410.92 367.601 410.142 365.973 409.647L365.973 250.28C367.459 250.775 369.086 251.199 371.28 251.411L371.28 411.698ZM371.28 192.161 371.28 189.686C371.704 189.403 372.412 189.262 373.473 189.262 377.93 188.838 380.76 194.565 376.303 194.565 374.251 194.565 372.27 193.433 371.28 192.161ZM371.28 238.048 371.28 224.19C371.775 224.048 372.27 223.907 372.907 223.766 377.506 223.766 375.312 232.321 377.789 232.038 380.265 231.755 376.869 238.119 371.987 238.119 371.775 238.119 371.492 238.119 371.28 238.048ZM380.336 246.037 380.336 248.866C379.841 249.007 379.062 249.078 378.072 249.078 374.888 249.078 372.553 248.229 371.28 247.169L371.28 244.058C371.846 243.775 372.695 243.633 373.827 243.633 376.091 243.633 378.779 244.765 380.336 246.037ZM380.336 216.695C379.841 216.554 379.345 216.483 378.992 216.483 376.232 216.483 375.666 211.887 371.35 211.887L371.28 211.887 371.28 218.675C374.18 218.958 377.223 219.806 380.336 220.301L380.336 216.695ZM380.336 206.655 380.336 212.524C379.841 212.311 379.416 211.958 379.345 211.251 378.992 209.483 379.558 207.857 380.336 206.655ZM380.336 200.928 380.336 205.807C379.699 206.16 378.779 206.302 377.506 205.948 375.171 205.312 373.119 205.1 371.28 205.1L371.28 198.595C372.765 198.878 374.251 199.019 375.879 199.019 377.93 199.019 379.416 199.867 380.336 200.928M380.336 242.644C379.275 241.724 378.921 239.674 380.336 238.189L380.336 242.644ZM380.336 414.668C377.081 414.102 374.039 412.829 371.28 411.698L371.28 251.411C372.199 251.552 373.19 251.552 374.251 251.552 376.586 251.552 378.638 251.552 380.336 251.482L380.336 383.204C377.294 387.8 374.534 396.002 377.506 399.042 378.426 399.89 379.345 400.951 380.336 402.011L380.336 414.668ZM386.067 224.119C380.831 224.402 381.114 227.725 382.388 230.836 383.59 233.876 385.147 233.876 386.067 232.038 386.916 230.2 391.868 229.563 393.071 226.523 394.274 223.483 389.675 224.119 386.067 224.119ZM380.336 205.807 380.336 200.928C381.822 202.625 381.963 204.958 380.336 205.807ZM380.336 212.524C382.883 213.372 388.826 210.049 386.067 210.049 382.671 210.049 386.916 204.534 383.59 204.534 382.529 204.534 381.256 205.382 380.336 206.655L380.336 212.524ZM380.336 220.301C381.892 220.584 383.52 220.725 385.147 220.725 389.604 220.725 383.803 217.544 380.336 216.695L380.336 220.301ZM380.336 248.866C382.246 248.371 381.822 247.169 380.336 246.037L380.336 248.866ZM395.406 214.15 395.406 221.079C393.425 221.715 392.434 222.281 390.595 220.23 387.694 216.907 384.864 211.251 390.17 212.029 392.293 211.039 393.213 212.806 395.406 214.15ZM395.406 204.887 395.406 208.423C395.052 208.564 394.557 208.564 393.991 208.564 389.392 208.211 389.392 204.534 393.637 204.534 394.345 204.534 394.911 204.605 395.406 204.887ZM395.406 189.686C395.264 189.686 395.194 189.686 395.052 189.615 391.373 189.262 392.222 183.11 384.439 183.959 377.93 183.535 386.916 192.09 386.067 196.969 385.359 201.423 389.958 203.827 395.406 201.494L395.406 189.686ZM395.406 179.505 395.406 184.807C390.595 182.686 387.836 179.717 395.406 179.505ZM380.336 251.482C385.642 251.27 387.906 250.562 386.067 248.724 383.661 246.25 383.237 243.421 381.185 242.997 380.902 242.926 380.619 242.785 380.336 242.644L380.336 238.189C380.69 237.836 381.114 237.553 381.609 237.341 384.864 235.715 385.713 232.816 387.694 236.068 389.746 239.321 386.491 243.846 390.949 243.421 395.406 242.997 392.647 250.633 395.406 248.724L395.406 269.158C393.779 270.148 394.557 272.41 391.373 272.764 387.34 273.188 388.118 280.47 386.067 281.743 384.015 282.945 387.34 285.349 387.694 288.672 388.048 291.43 389.887 292.702 395.406 294.753L395.406 378.679C391.373 380.305 386.067 377.477 382.388 380.729 381.751 381.295 381.043 382.143 380.336 383.204L380.336 251.482ZM395.406 420.324C391.585 418.344 388.189 415.233 382.812 414.95 381.963 414.88 381.185 414.809 380.336 414.668L380.336 402.011C383.661 405.335 387.482 408.658 390.595 405.547 391.868 404.274 393.566 402.648 395.406 401.163L395.406 420.324ZM395.406 201.494C395.972 201.282 396.538 200.999 397.104 200.645 402.976 197.11 399.014 190.534 395.406 189.686L395.406 201.494ZM395.406 208.423 395.406 204.887C397.104 205.736 397.528 207.928 395.406 208.423ZM410.264 273.259 410.264 274.036C410.193 273.754 410.193 273.541 410.264 273.259ZM410.264 262.087C409.698 261.875 409.061 261.734 408.495 261.734 404.038 262.582 401.137 264.986 403.613 269.936 405.17 273.047 407.434 271.35 410.264 270.148L410.264 262.087ZM410.264 223.978 410.264 242.149C405.028 241.512 397.882 236.634 397.882 232.816 397.882 228.927 400.5 224.685 410.264 223.978ZM410.264 215.705C406.726 215.352 403.118 215.21 400.783 215.281 398.307 215.493 396.679 214.857 395.406 214.15L395.406 221.079C396.538 220.796 397.953 220.442 399.934 220.584 402.693 220.796 406.514 221.503 410.264 221.786L410.264 215.705ZM410.264 191.312 410.264 213.231C404.604 213.938 398.094 214.998 398.731 211.251 399.509 206.372 402.41 202.696 407.292 201.069 412.032 199.443 401.278 192.443 410.264 191.312ZM410.264 176.04 410.264 186.434C403.542 186.646 402.835 187.353 397.528 185.585 396.75 185.302 396.113 185.09 395.406 184.807L395.406 179.505C395.689 179.434 395.972 179.434 396.255 179.434 400.571 179.434 405.382 177.808 410.264 176.04ZM395.406 294.753C396.396 295.177 397.528 295.531 398.731 295.955 403.047 297.51 407.292 298.642 410.264 299.985L410.264 379.527C405.453 375.497 399.014 377.265 395.477 378.679L395.406 378.679 395.406 294.753ZM395.406 248.724 395.477 248.724C398.307 246.674 401.137 248.3 401.561 251.552 401.986 254.805 404.816 254.027 404.816 250.35 404.816 246.957 406.585 244.977 410.264 244.977L410.264 258.764C406.514 259.401 403.189 260.956 403.189 260.956 403.189 260.956 401.986 268.663 397.528 268.663 396.538 268.663 395.901 268.875 395.406 269.158L395.406 248.724ZM401.915 421.879C401.703 421.879 401.42 421.879 401.137 421.879 399.014 421.879 397.175 421.243 395.406 420.324L395.406 401.163C399.439 397.84 403.825 395.012 403.825 397.628 403.825 401.375 400.783 411.627 403.684 414.597 404.179 415.092 404.816 415.304 405.665 415.304 411.749 415.304 407.717 419.829 410.122 423.859L410.264 424.142 410.264 434.041C408.495 430.505 407.858 422.516 401.915 421.879ZM410.264 274.036 410.264 273.259C410.547 272.764 411.325 272.339 412.881 271.986 418.117 270.784 417.48 274.743 415.004 275.663 413.518 276.228 410.83 275.168 410.264 274.036ZM417.056 395.436 417.056 399.607C413.306 398.476 411.325 394.729 415.853 395.294 416.278 395.294 416.702 395.365 417.056 395.436M417.056 267.249 417.056 269.653C416.773 269.723 416.348 269.653 415.853 269.511 413.801 268.875 411.891 269.441 410.264 270.148L410.264 262.087C412.952 262.865 415.782 265.34 417.056 267.249ZM417.056 224.26 417.056 242.361C414.933 242.219 412.952 242.219 411.396 242.219 411.042 242.219 410.688 242.149 410.264 242.149L410.264 223.978C410.759 223.907 411.254 223.907 411.749 223.836 413.164 223.766 415.075 223.907 417.056 224.26M417.056 216.766 417.056 221.574C415.004 221.927 412.669 221.927 410.264 221.786L410.264 215.705C412.74 215.917 415.146 216.342 417.056 216.766ZM417.056 190.181 417.056 212.524C416.419 212.736 415.782 212.877 415.004 212.877 413.66 212.877 412.032 213.018 410.264 213.231L410.264 191.312C410.476 191.312 410.688 191.312 410.971 191.312 413.448 191.1 415.57 190.676 417.056 190.181ZM417.056 173.636 417.056 186.575C416.207 186.434 415.075 186.363 413.801 186.363 412.457 186.363 411.325 186.434 410.264 186.434L410.264 176.04C412.528 175.192 414.792 174.414 417.056 173.636ZM410.264 424.142C412.032 426.97 414.58 429.162 417.056 429.728L417.056 436.091C414.226 436.091 411.466 435.95 410.547 434.465 410.476 434.323 410.334 434.182 410.264 434.041L410.264 424.142ZM410.264 299.985C412.952 301.116 414.65 302.389 414.65 304.086 414.65 305.924 415.853 309.247 417.056 311.156L417.056 386.739C415.995 386.174 414.367 384.406 412.174 381.507 411.608 380.729 410.971 380.093 410.264 379.527L410.264 299.985ZM410.264 244.977C410.617 244.977 410.971 245.048 411.396 245.048 415.853 245.472 418.259 258.481 413.377 258.481 412.386 258.481 411.325 258.623 410.264 258.764L410.264 244.977ZM417.056 221.574 417.056 216.766C420.735 217.614 422.857 218.816 420.735 220.23 419.744 220.867 418.471 221.291 417.056 221.574ZM417.056 269.653 417.056 267.249C417.976 268.521 418.188 269.582 417.056 269.653ZM417.056 399.607 417.056 395.436C420.735 396.214 422.787 400.315 418.542 399.961 418.046 399.89 417.551 399.749 417.056 399.607ZM426.607 400.385 426.607 403.496C423.777 402.577 422.433 400.385 425.758 400.385 426.041 400.315 426.324 400.315 426.607 400.385ZM426.607 388.86 426.607 394.022C425.121 394.446 423.848 395.153 422.574 394.446 420.24 393.173 420.876 389.143 424.697 388.578 425.334 388.578 425.97 388.648 426.607 388.86M426.607 261.734 426.607 268.027C421.301 266.754 420.523 262.087 426.041 261.734 426.254 261.734 426.395 261.734 426.607 261.734ZM426.607 249.148 426.607 254.451C423.211 255.37 421.372 251.835 425.121 249.431 425.617 249.219 426.112 249.148 426.607 249.148ZM426.607 226.877 426.607 229.634C424.909 230.129 425.192 230.836 426.607 231.614L426.607 244.058C423.494 243.068 420.098 242.644 417.056 242.361L417.056 224.26C420.523 224.826 424.343 225.816 426.607 226.877M426.607 171.727 426.607 204.463C423.919 205.312 421.23 210.968 417.056 212.524L417.056 190.181C420.947 188.979 421.442 187.141 417.056 186.575L417.056 173.636C420.24 172.646 423.423 171.868 426.607 171.727ZM417.056 429.728C418.046 429.94 419.037 429.94 419.957 429.586 421.655 428.95 424.131 429.303 426.607 429.515L426.607 434.889 424.555 438 424.414 437.717C423.565 436.02 420.24 436.091 417.056 436.091L417.056 429.728ZM417.056 311.156C418.4 313.207 419.744 313.702 419.957 309.813 420.31 302.106 420.31 297.227 423.565 297.227 426.82 297.227 423.989 293.127 422.787 287.4 421.655 282.238 420.523 274.956 426.607 273.117L426.607 365.387C424.131 367.225 420.735 368.922 419.532 370.901 417.48 374.154 419.108 377.477 419.108 383.133 419.108 386.315 418.471 387.446 417.056 386.739L417.056 311.156ZM426.607 229.634 426.607 226.877C428.801 227.866 429.508 228.927 426.82 229.563 426.749 229.563 426.678 229.634 426.607 229.634ZM426.607 254.451C427.103 254.31 427.598 254.027 428.164 253.674 431.843 251.34 429.65 248.936 426.607 249.148L426.607 254.451ZM426.607 394.022 426.607 388.86C430.782 390.416 433.753 396.284 430.569 394.446 429.013 393.527 427.739 393.668 426.607 394.022ZM426.607 403.496 426.607 400.385C430.357 400.597 433.046 403.92 429.154 403.92 428.235 403.92 427.315 403.779 426.607 403.496ZM441.324 405.476 441.324 411.062C437.927 410.496 434.885 405.971 441.324 405.476ZM441.324 236.422 441.324 271.279C436.795 269.794 431.914 268.451 428.518 268.239 427.81 268.239 427.173 268.168 426.607 268.027L426.607 261.734C432.055 261.027 430.64 256.36 434.178 253.603 437.857 250.775 437.857 250.775 432.126 246.674 430.569 245.542 428.659 244.694 426.607 244.058L426.607 231.614C429.225 233.169 436.017 235.078 441.324 236.422M441.324 200.292C440.616 201.069 440.121 202.271 439.484 203.898 438.776 205.736 439.626 206.514 441.324 206.726L441.324 200.292ZM441.324 173.495 441.324 191.666C437.998 193.08 434.461 193.928 432.126 193.716 427.669 193.292 430.499 204.322 427.244 204.322 427.032 204.322 426.82 204.393 426.607 204.463L426.607 171.727C427.456 171.656 428.376 171.656 429.296 171.727 435.239 171.727 435.451 173.777 441.324 173.495M426.607 429.515C427.81 429.657 429.013 429.657 430.074 429.515L426.607 434.889 426.607 429.515ZM426.607 273.117C427.173 272.976 427.81 272.834 428.518 272.764 432.267 272.269 437.574 274.531 441.324 277.218L441.324 343.892C440.121 345.943 438.918 347.71 436.229 347.71 431.772 347.71 429.296 357.892 429.296 361.568 429.296 362.983 428.093 364.255 426.607 365.387L426.607 273.117ZM441.324 411.062C441.536 411.062 441.748 411.132 442.031 411.132 445.781 411.132 446.205 405.193 442.668 405.405 442.173 405.405 441.748 405.405 441.324 405.476L441.324 411.062ZM455.686 410.425 455.686 411.486C455.332 411.698 454.696 411.769 453.634 411.769 448.752 411.557 445.569 408.587 451.724 409.011 453.351 409.011 455.049 409.718 455.686 410.425ZM455.686 334.984C455.545 334.984 455.332 335.054 455.12 335.125 452.644 335.549 453.564 338.448 455.686 338.872L455.686 334.984ZM455.686 251.34 455.686 259.966C452.007 259.896 450.38 261.946 454.554 265.835 454.979 266.259 455.403 266.612 455.686 267.037L455.686 274.602C454.766 275.45 453.493 275.733 452.149 275.168 450.097 274.39 445.852 272.764 441.324 271.279L441.324 236.422C443.305 236.987 445.144 237.411 446.418 237.694 452.715 239.321 450.663 248.936 455.686 251.34M455.686 197.605 455.686 215.14C454.059 214.927 452.573 214.503 451.299 213.655 445.993 210.402 459.082 206.372 453.776 205.948 450.309 205.665 444.437 207.15 441.324 206.726L441.324 200.292C442.809 198.595 445.003 198.595 450.875 198.595 453.139 198.595 454.696 198.171 455.686 197.605ZM455.686 184.666C449.46 185.868 451.441 190.252 454.554 191.312 454.979 191.383 455.332 191.595 455.686 191.878L455.686 184.666ZM455.686 173.777 455.686 180.282C452.715 181.979 450.663 183.888 448.894 186.363 447.479 188.413 444.507 190.252 441.324 191.666L441.324 173.495C441.89 173.495 442.456 173.424 443.163 173.353 446.347 173 451.441 173.212 455.686 173.777ZM441.324 277.218C444.083 279.198 445.993 281.39 445.993 282.945 445.993 286.622 448.045 288.672 452.149 287.4 455.474 286.41 453.634 283.511 455.686 282.733L455.686 315.964C451.583 316.459 445.71 319.57 448.894 319.57 450.875 319.57 453.847 321.126 455.686 323.317L455.686 332.014C451.37 337.105 446.701 337.246 443.941 339.933 442.809 341.064 442.102 342.549 441.324 343.892L441.324 277.218ZM455.686 274.602 455.686 267.037C458.021 270.006 457.384 273.117 455.686 274.602ZM455.686 338.872C455.898 338.943 456.04 338.943 456.252 338.943 458.587 338.943 458.162 334.842 455.686 334.984L455.686 338.872ZM455.686 411.486 455.686 410.425C456.111 410.849 456.181 411.203 455.686 411.486ZM458.728 332.509 458.728 335.337C458.092 334.418 458.021 333.216 458.728 332.509ZM458.728 252.966 458.728 260.461C457.667 260.178 456.606 260.037 455.686 259.966L455.686 251.34C455.898 251.411 456.04 251.482 456.181 251.552 457.101 251.906 457.95 252.401 458.728 252.966ZM458.728 184.383 458.728 215.352C457.667 215.352 456.677 215.281 455.686 215.14L455.686 197.605C458.233 196.049 457.596 193.221 455.686 191.878L455.686 184.666C456.535 184.525 457.526 184.383 458.728 184.383ZM458.728 174.272 458.728 178.798C457.596 179.292 456.606 179.787 455.686 180.282L455.686 173.777C456.747 173.919 457.809 174.06 458.728 174.272ZM455.686 323.317C457.596 325.58 458.445 328.549 456.181 331.378 456.04 331.59 455.898 331.802 455.686 332.014L455.686 323.317ZM455.686 282.733C456.181 282.521 456.818 282.45 457.809 282.521 458.162 282.521 458.445 282.592 458.728 282.733L458.728 316.388 458.658 316.318C458.021 315.893 456.96 315.823 455.686 315.964L455.686 282.733ZM458.728 178.798C459.79 178.373 460.992 177.878 462.337 177.454 465.662 176.252 463.115 175.05 458.728 174.272L458.728 178.798ZM458.728 260.461 458.728 252.966C462.62 256.077 463.823 261.875 459.082 260.532 458.941 260.532 458.799 260.461 458.728 260.461ZM458.728 335.337 458.728 332.509C459.082 332.155 459.507 331.943 460.214 331.802 464.176 330.6 465.096 336.963 461.771 336.963 460.426 336.963 459.294 336.256 458.728 335.337ZM474.93 314.974C472.313 314.691 474.647 314.904 472.454 320.206 470.685 324.307 471.888 325.509 474.93 326.853L474.93 314.974ZM474.93 178.232 474.93 216.624C474.223 216.271 473.445 215.917 472.525 215.705 467.997 214.715 463.115 215.422 458.728 215.352L458.728 184.383C458.941 184.383 459.224 184.383 459.436 184.383 468.987 184.383 468.28 178.727 474.93 178.232ZM458.728 282.733C463.044 284.076 462.478 292.914 465.591 295.955 468.846 299.207 474.93 300.48 473.728 303.308 473.374 304.156 474.011 305.358 474.93 306.631L474.93 313.065C468.563 313.277 465.521 315.257 463.964 317.944 462.337 320.772 461.488 318.439 458.728 316.388L458.728 282.733ZM474.93 326.853 474.93 314.974C475.143 314.974 475.426 314.974 475.779 315.045 482.218 314.691 483.138 319.57 484.977 323.529 486.817 327.56 485.543 331.519 479.459 328.762 477.69 327.984 476.133 327.418 474.93 326.853M569.313 258.976C567.756 258.835 566.2 258.552 563.653 257.421 559.266 255.441 554.88 263.714 561.672 269.016 564.219 271.067 566.907 271.703 569.313 271.491L569.313 258.976ZM569.313 183.535 569.313 189.474C568.252 189.969 567.969 190.676 569.101 191.666 569.171 191.736 569.242 191.807 569.313 191.878L569.313 194.847C567.898 196.827 564.785 198.736 568.322 200.645 568.676 200.857 569.03 201.069 569.313 201.352L569.313 209.342C568.605 209.766 567.686 210.049 566.695 210.049 561.389 210.049 567.049 213.655 563.016 217.756 558.912 221.857 560.115 224.685 554.455 224.685 548.724 224.685 561.389 233.664 554.88 233.664 548.3 233.664 546.319 241.795 552.828 240.947 559.337 240.169 558.912 242.997 551.979 246.25 545.045 249.502 534.079 249.502 530.824 254.805 527.57 260.108 515.33 259.683 515.33 264.633 515.33 269.511 513.278 287.4 503.868 284.147 494.529 280.895 492.477 271.562 488.798 265.835 485.119 260.108 490.85 254.027 487.17 251.977 483.491 249.926 495.307 240.593 491.274 243.421 487.17 246.25 480.661 242.219 486.392 240.947 492.052 239.745 490.071 234.018 485.968 235.29 481.864 236.492 477.407 234.442 482.713 230.412 488.019 226.311 485.543 227.513 481.864 226.311 478.68 225.25 479.529 219.24 474.93 216.624L474.93 178.232C475.638 178.161 476.487 178.161 477.407 178.232 486.746 179.08 487.17 185.161 492.052 183.959 496.934 182.757 486.392 172.151 498.561 179.434 510.801 186.787 501.887 178.656 507.122 178.656 512.429 178.656 503.514 170.879 512.853 171.303 522.263 171.727 522.263 166 534.079 166 548.3 166 573.982 177.808 560.964 176.181 547.946 174.555 530.4 174.202 538.536 179.08 546.672 183.959 548.3 174.555 551.201 179.08 554.031 183.535 558.912 179.08 562.167 181.908 564.219 183.676 566.766 184.03 569.313 183.535ZM474.93 306.631C477.053 309.671 480.661 313.065 475.779 313.065 475.496 313.065 475.213 313.065 474.93 313.065L474.93 306.631ZM596.198 234.583C599.594 234.583 602 240.381 597.613 240.381 593.298 240.381 590.326 234.088 596.198 234.583ZM569.313 189.474 569.313 183.535C570.869 183.252 572.497 182.686 573.982 181.908 578.086 179.858 590.326 186.787 583.392 187.636 578.581 188.201 571.789 188.343 569.313 189.474ZM569.313 194.847 569.313 191.878C570.303 192.938 570.02 193.928 569.313 194.847ZM569.313 209.342 569.313 201.352C572.497 203.756 572.072 207.786 569.313 209.342ZM569.313 271.491 569.313 258.976C570.445 259.118 571.506 259.118 572.85 259.33 579.147 257.421 582.543 262.229 579.147 266.117 577.025 268.592 573.416 271.138 569.313 271.491Z" fill="#ED7D31" fill-rule="evenodd"/><path d="M573.675 413.82 573.675 421.042C571.915 418.422 571.211 416.085 572.971 414.528 573.253 414.245 573.464 414.032 573.675 413.82ZM573.675 397.747 573.675 408.226C573.323 407.801 572.901 407.306 572.549 406.739 571 404.615 572.127 400.863 573.675 397.747ZM573.675 378.347C573.323 378.985 572.971 379.622 572.549 380.33 572.971 380.613 573.323 380.542 573.675 380.259L573.675 378.347ZM721.528 502.323C720.332 505.509 719.909 509.758 721.528 511.599L721.528 502.323ZM721.528 484.269C721.388 484.339 721.176 484.41 721.036 484.481 719.487 484.977 719.416 485.897 720.613 487.313 720.895 487.738 721.247 487.88 721.528 487.88L721.528 484.269ZM721.528 424.228 721.528 454.602C721.176 454.885 720.824 455.098 720.543 455.381 715.403 459.204 714.136 468.267 711.108 469.542 708.151 470.816 711.953 473.011 713.713 476.409 715.403 479.879 715.826 491.066 713.713 495.385 711.531 499.704 707.729 504.801 704.279 505.297 700.829 505.722 700.407 511.74 703.012 513.439 705.546 515.139 702.167 519.033 697.027 519.458 691.887 519.882 697.45 535.388 692.732 535.813 688.015 536.238 682.453 542.256 675.624 543.106 668.794 543.955 660.627 547 657.67 541.407 654.643 535.813 659.782 532.344 654.643 526.326 649.503 520.307 652.53 515.139 648.658 509.545 644.856 503.952 640.984 494.11 644.856 488.942 648.658 483.773 650.348 479.879 646.968 478.604 643.518 477.33 648.658 471.312 643.941 468.267 639.294 465.293 636.267 457.08 637.956 453.186 639.716 449.363 640.139 442.92 634.577 442.92 629.015 442.92 620.003 438.601 614.441 440.3 608.879 441.999 604.584 443.345 600.782 444.619 596.909 445.893 590.08 438.176 584.518 432.582 581.209 429.255 576.28 424.865 573.675 421.042L573.675 413.82C576.28 411.129 575.224 409.996 573.675 408.226L573.675 397.747C574.309 396.615 574.943 395.553 575.506 394.703 577.689 391.729 578.956 381.392 583.251 380.967 587.475 380.542 590.503 375.799 590.503 371.904 590.503 368.01 593.46 364.612 597.754 363.762 602.049 362.912 602.894 359.868 610.568 359.868 618.313 359.868 620.425 355.974 628.592 355.974 636.689 355.974 642.674 353 641.829 359.443 640.984 365.886 649.08 367.161 653.375 369.78 657.67 372.329 663.655 375.799 665.344 371.904 667.034 368.01 672.596 369.355 677.313 370.205 681.96 371.055 689.986 372.754 694.281 372.329L697.59 378.843C695.267 380.118 701.815 394.845 704.701 400.296 707.729 405.89 711.108 414.953 716.248 420.121 718.008 421.82 719.768 423.237 721.528 424.228ZM574.38 377.002C574.168 377.427 573.957 377.852 573.675 378.347L573.675 380.259C574.239 379.905 574.591 379.126 574.732 378.347 574.872 377.781 574.732 377.285 574.38 377.002ZM721.528 487.88 721.528 484.269C722.655 483.915 723.429 484.552 723.218 485.755 723.007 486.747 722.303 487.95 721.528 487.88ZM729.836 491.066 729.836 521.653C728.851 522.785 727.724 523.635 726.527 523.918 722.092 524.697 724.063 514.431 721.528 511.669L721.528 511.599 721.528 502.323C722.092 500.624 722.937 499.279 723.781 498.642 725.119 497.58 727.443 494.11 729.836 491.066ZM729.836 426.139 729.836 445.327C726.95 449.08 723.922 452.478 721.528 454.602L721.528 424.228C724.345 425.856 727.161 426.564 729.836 426.139ZM750.536 465.364C751.944 464.585 753 465.223 752.718 466.639 752.507 467.984 751.31 469.612 750.113 468.196 748.916 466.709 749.057 465.789 750.536 465.364ZM747.79 437.043C749.198 436.335 750.254 436.972 749.973 438.318 749.691 439.663 748.564 441.291 747.367 439.875 746.171 438.388 746.241 437.468 747.79 437.043ZM742.862 424.015C741.313 424.44 741.242 425.361 742.369 426.847 743.566 428.263 744.762 426.635 745.044 425.29 745.326 423.874 744.199 423.237 742.862 424.015ZM729.836 445.327 729.836 426.139C730.47 426.069 731.033 425.927 731.667 425.715 736.384 423.945 741.524 423.52 738.074 431.733 736.314 435.839 733.216 440.866 729.836 445.327ZM729.836 521.653 729.836 491.066C731.878 488.517 733.99 486.251 735.61 486.109 740.609 485.826 740.609 491.986 737.299 494.747 733.99 497.509 740.609 511.386 737.018 512.802 734.413 513.793 732.441 518.679 729.836 521.653Z" fill="#4472C4" fill-rule="evenodd"/><path d="M795.583 445.307 795.583 446.156C795.442 445.802 795.442 445.519 795.583 445.307ZM795.583 435.692 795.583 439.298C795.229 439.298 794.946 439.156 794.592 438.732 793.458 437.318 793.529 436.399 795.087 435.904 795.229 435.834 795.371 435.763 795.583 435.692ZM795.583 423.815 795.583 426.714C795.017 427.421 794.238 427.774 793.529 426.855 792.325 425.371 792.396 424.451 793.954 424.027 794.592 423.674 795.158 423.603 795.583 423.815ZM795.583 256.475C795.017 256.899 794.379 257.253 793.6 257.606 787.58 260.151 785.385 257.182 788.43 253.294 791.405 249.476 793.175 246.86 791.83 240.002 790.555 233.145 791.83 226.711 787.58 227.56 783.26 228.408 780.215 239.154 780.215 242.972 780.215 246.86 783.26 248.133 778.09 248.133 772.92 248.133 771.22 242.972 767.325 242.972 763.43 242.972 766.475 247.284 762.58 247.284 759.393 247.284 754.435 248.486 749.69 250.112 749.973 250.183 750.256 250.254 750.54 250.324 763.642 253.223 738.217 272.806 740.341 283.693 742.537 294.581 740.341 303.276 747.636 303.276 754.931 303.276 751.248 315.578 743.245 314.164 735.738 312.75 732.692 319.82 737.296 330.353 739.279 330.707 742.112 329.293 744.237 331.626 745.724 333.252 743.032 336.363 744.661 338.625 746.644 341.382 753.231 343.15 755.072 343.927 766.546 349.018 750.044 357.572 741.12 355.451 730.638 353.047 719.873 349.371 709.533 344.069 706.063 343.362 702.593 341.806 699.76 341.806 695.935 341.806 692.465 342.655 688.57 344.352 684.745 346.119 682.55 349.937 681.275 354.249 680 358.562 682.975 359.834 690.34 359.834 697.635 359.834 703.655 360.683 703.23 364.571 702.805 368.389 698.485 372.277 694.165 372.701L694.023 372.701 697.352 379.205C697.493 379.205 697.564 379.205 697.635 379.135 700.609 378.71 703.655 383.871 706.629 392.072 709.675 400.202 718.244 410.1 722.14 419.078 726.035 428.128 730.78 421.27 734.605 418.654 738.5 416.109 750.115 413.918 751.39 410.524 752.735 407.06 761.305 396.738 758.755 393.769 756.135 390.729 750.965 389.456 746.644 391.153 742.395 392.921 738.5 385.144 735.95 380.902 733.33 376.589 738.925 375.317 741.97 382.175 744.945 389.032 749.69 385.144 754.435 388.608 759.18 392.072 757.834 388.608 765.625 388.608 773.345 388.608 772.92 387.76 778.94 392.921 784.96 398.081 788.43 399.778 792.255 399.778 796.15 399.778 790.555 412.645 794.45 417.382 794.804 417.806 795.158 418.301 795.583 418.866L795.583 256.475ZM795.583 232.933 795.583 237.175C795.158 235.69 795.017 234.205 795.583 232.933ZM795.583 426.714 795.583 423.815C796.008 424.027 796.291 424.522 796.15 425.3 796.079 425.795 795.866 426.29 795.583 426.714ZM797.07 444.388 797.07 447.923C796.787 447.852 796.575 447.64 796.291 447.357 795.937 446.862 795.654 446.509 795.583 446.156L795.583 445.307C795.725 444.954 796.079 444.671 796.716 444.529 796.858 444.459 797 444.388 797.07 444.388ZM797.07 439.793 797.07 441.207C796.787 440.641 796.787 440.146 797.07 439.793ZM797.07 436.046 797.07 437.813C796.787 438.591 796.221 439.369 795.583 439.298L795.583 435.692C796.221 435.48 796.787 435.622 797.07 436.046ZM797.07 254.778 797.07 421.199C796.575 420.422 796.079 419.573 795.583 418.866L795.583 256.475C796.291 255.909 796.716 255.344 797.07 254.778M797.07 231.236 797.07 245.588C796.008 245.234 795.512 244.668 796.15 243.467 797 241.77 796.079 239.437 795.583 237.175L795.583 232.933C795.866 232.296 796.291 231.731 797.07 231.236ZM797.07 437.813 797.07 436.046C797.283 436.329 797.354 436.682 797.283 437.177 797.212 437.389 797.141 437.601 797.07 437.813ZM798.629 449.832 798.629 452.942C798.487 452.872 798.345 452.801 798.204 452.589 797.07 451.175 797.141 450.256 798.629 449.832ZM798.629 444.459 798.629 446.721C798.274 447.428 797.708 447.994 797.07 447.923L797.07 444.388C797.708 444.105 798.274 444.176 798.629 444.459ZM798.629 439.015 798.629 442.621C798.274 442.621 797.991 442.479 797.637 442.055 797.425 441.772 797.212 441.49 797.07 441.207L797.07 439.793C797.283 439.581 797.637 439.369 798.133 439.227 798.274 439.156 798.487 439.086 798.629 439.015ZM798.629 251.031 798.629 423.745C798.133 422.896 797.566 422.048 797.07 421.199L797.07 254.778C797.991 253.152 797.779 251.597 798.629 251.031ZM798.629 230.529 798.629 245.87C797.991 245.8 797.495 245.729 797.07 245.588L797.07 231.236C797.212 231.165 797.354 231.024 797.425 230.953 797.92 230.67 798.345 230.529 798.629 230.529ZM798.629 442.621 798.629 439.015C799.762 438.662 800.541 439.298 800.328 440.5 800.116 441.56 799.408 442.691 798.629 442.621ZM798.629 446.721 798.629 444.459C798.912 444.742 799.054 445.236 798.912 445.802 798.841 446.085 798.77 446.438 798.629 446.721ZM798.629 452.942 798.629 449.832 798.699 449.761C800.045 449.054 801.178 449.69 800.895 451.034 800.612 452.306 799.691 453.72 798.629 452.942ZM813.431 431.238C813.218 431.168 813.006 431.168 812.793 431.238 809.04 430.673 810.314 438.167 813.431 438.52L813.431 431.238ZM813.431 233.64 813.431 414.554C812.439 416.392 813.147 421.906 812.085 425.512 810.81 429.824 808.615 433.289 805.64 432.864 803.657 432.582 801.178 428.128 798.629 423.745L798.629 251.031C798.841 250.819 799.124 250.748 799.62 250.748 802.595 250.748 805.64 255.909 809.96 255.909 814.21 255.909 810.385 249.476 805.64 247.284 803.303 246.224 800.612 246.153 798.629 245.87L798.629 230.529C801.178 230.246 795.3 240.073 803.02 236.538 811.66 232.721 804.79 233.145 809.04 232.296 811.093 231.872 812.51 232.509 813.431 233.64ZM813.431 438.52 813.431 431.238C816.193 431.592 818.105 437.106 814.493 438.379 814.139 438.52 813.785 438.52 813.431 438.52M845.797 434.349 845.797 437.955C845.513 437.955 845.159 437.743 844.876 437.389 843.672 435.904 843.743 434.985 845.301 434.561 845.513 434.42 845.655 434.349 845.797 434.349ZM845.797 212.855 845.797 407.272C845.443 406.706 845.018 406.212 844.38 405.787 840.06 403.242 835.315 400.202 829.295 403.667 823.275 407.06 816.405 413.493 814.21 413.918 813.926 413.988 813.643 414.2 813.431 414.554L813.431 233.64C814.564 234.842 815.13 236.538 815.626 237.811 816.547 240.356 822 245.234 824.125 248.557 826.179 251.88 827.737 252.869 827.737 249.829 827.737 246.789 825.046 242.83 823.204 241.558 821.434 240.285 823.771 233.145 819.663 231.448 815.626 229.751 812.935 224.661 818.034 224.025 823.204 223.389 824.266 222.894 826.745 220.419 829.224 217.945 837.227 214.905 844.026 213.208 844.664 213.067 845.301 212.925 845.797 212.855ZM845.797 187.05 845.797 193.766C843.176 192.211 843.105 187.262 845.797 187.05ZM845.797 193.766 845.797 187.05C845.938 187.05 846.151 187.05 846.292 187.05 849.267 185 860.67 185.424 856.633 186.202 852.667 187.05 852.029 194.261 847.567 194.261 846.859 194.261 846.292 194.049 845.797 193.766M845.797 437.955C846.647 437.955 847.284 436.823 847.496 435.834 847.78 434.632 846.93 433.996 845.797 434.349L845.797 437.955ZM864.636 452.165 864.636 467.506C863.502 466.587 862.369 465.597 861.59 464.607 857.341 459.659 849.904 449.478 856.349 448.983 858.899 448.701 861.874 450.044 864.636 452.165ZM864.636 211.299 864.636 426.855C861.661 424.169 858.545 422.472 858.545 425.088 858.545 428.552 858.545 434.985 861.59 436.258 862.44 436.682 863.502 437.46 864.636 438.591L864.636 448.347C864.211 447.994 863.715 447.64 863.29 447.428 859.82 445.731 861.165 438.45 857.695 436.258 854.225 434.137 852.525 432.016 855.57 426.007 858.545 419.998 855.075 416.109 849.975 416.109 845.584 416.109 847.709 410.524 845.797 407.272L845.797 212.855C851.108 212.077 852.1 214.764 854.72 213.42 857.553 211.865 862.936 215.471 864.423 211.865 864.494 211.724 864.565 211.511 864.636 211.299ZM864.636 448.347C867.681 450.822 870.585 455.7 870.585 450.468 870.585 446.156 867.469 441.419 864.636 438.591L864.636 448.347ZM864.636 467.506 864.636 452.165C870.231 456.407 875.259 463.83 875.472 468.284 875.684 473.657 869.31 471.253 864.636 467.506ZM885.812 471.607 885.812 475C879.792 474.788 877.667 471.253 884.395 471.536 884.891 471.536 885.316 471.536 885.812 471.607ZM885.812 451.882 885.812 459.022C884.679 456.972 883.191 454.498 885.812 451.882ZM885.812 402.818C885.741 402.818 885.67 402.818 885.599 402.818 883.12 403.172 883.616 406.565 885.812 407.555L885.812 402.818ZM885.812 210.31 885.812 218.157C880.288 219.5 874.834 222.894 872.285 227.136 869.735 231.377 874.905 232.721 878.375 229.256 880.712 226.923 882.2 224.59 885.812 223.883L885.812 399.495C880.217 400.273 874.055 403.596 877.03 408.827 880.5 414.837 883.05 419.078 883.475 421.694 883.97 424.239 879.225 426.431 876.605 431.097 874.055 435.834 870.585 433.289 867.185 429.4 866.406 428.552 865.485 427.633 864.636 426.855L864.636 211.299C865.84 207.694 864.919 202.745 870.16 202.179 877.88 202.179 869.735 209.532 874.905 209.037 878.517 208.754 882.058 209.744 885.812 210.31ZM885.812 218.157 885.812 210.31C887.441 210.592 889.14 210.804 890.84 210.804 896.435 210.804 891.69 216.814 886.095 218.086L885.812 218.157ZM885.812 407.555 885.812 402.818C887.866 403.172 888.503 408.403 886.166 407.696 886.024 407.626 885.883 407.555 885.812 407.555ZM885.812 459.022 885.812 451.882C886.449 451.246 887.37 450.609 888.574 449.973 895.302 446.438 897.568 439.51 901.818 439.51 904.438 439.369 904.651 443.257 903.872 447.923 903.163 452.589 896.01 464.678 893.602 464.537 891.194 464.325 887.441 462.274 886.166 459.659 886.024 459.447 885.883 459.234 885.812 459.022M885.812 475 885.812 471.607C890.274 472.101 892.257 475 886.378 475 886.166 475 885.953 475 885.812 475ZM914.495 459.871 914.495 463.83C911.308 462.911 908.617 457.962 911.379 457.821 912.087 457.821 913.362 458.74 914.495 459.871ZM914.495 417.665 914.495 422.189C912.37 421.977 910.316 417.523 913.008 417.382 913.504 417.382 913.999 417.452 914.495 417.665ZM914.495 406.353 914.495 411.938C914.212 412.009 913.787 412.009 913.433 411.938 908.758 411.372 907.979 406 912.866 405.787 913.433 405.787 913.999 406 914.495 406.353M914.495 392.214C914.424 392.214 914.424 392.214 914.353 392.214 911.025 391.648 911.875 397.728 914.495 398.152L914.495 392.214ZM914.495 227.348 914.495 346.472C913.574 346.19 912.441 346.119 911.025 346.119 904.155 346.119 902.88 352.977 907.2 352.977 911.45 352.977 905.43 362.379 908.9 366.268 912.37 370.156 916.195 377.862 912.795 381.326 909.325 384.72 908.475 389.881 905.005 391.648 901.605 393.345 894.24 399.354 888.22 399.354 887.441 399.354 886.662 399.425 885.812 399.495L885.812 223.883C887.511 223.53 889.636 223.53 892.54 224.096 901.393 225.792 906.988 224.59 914.495 227.348M914.495 398.152 914.495 392.214C918.036 392.355 917.115 398.506 914.495 398.152ZM914.495 411.938 914.495 406.353C916.407 407.838 917.115 411.514 914.495 411.938ZM914.495 422.189 914.495 417.665C916.266 418.442 917.54 420.351 915.628 421.836 915.274 422.118 914.92 422.189 914.495 422.189ZM914.495 463.83 914.495 459.871C916.266 461.638 917.611 463.971 915.487 463.971 915.132 463.971 914.849 463.901 914.495 463.83ZM921.507 432.794 921.507 440.146C920.869 440.146 920.232 439.793 919.594 439.015 917.115 435.975 917.328 434.137 920.515 433.218 920.869 433.006 921.152 432.864 921.507 432.794ZM921.507 229.115 921.507 355.522C920.373 354.603 919.382 353.754 919.24 352.552 918.886 350.149 918.249 347.462 914.495 346.472L914.495 227.348C914.637 227.418 914.778 227.489 914.92 227.56 917.045 228.408 919.311 228.832 921.507 229.115M921.507 221.763 921.507 227.348C921.294 227.206 921.011 227.065 920.798 226.923 917.186 224.308 915.841 221.55 918.107 221.55 919.099 221.056 920.232 221.268 921.507 221.763ZM921.507 440.146 921.507 432.794C923.773 432.087 925.473 433.359 924.977 435.834 924.552 437.884 923.135 440.217 921.507 440.146ZM926.181 229.822C924.694 229.61 923.135 229.398 921.507 229.115L921.507 355.522C923.065 356.724 924.977 357.996 925.26 360.258 925.402 361.46 925.685 362.591 926.181 363.652L926.181 229.822ZM926.181 224.308 926.181 229.327C924.552 228.903 922.994 228.337 921.507 227.348L921.507 221.763C922.994 222.328 924.623 223.389 926.181 224.308ZM929.651 386.134 929.651 389.739C929.368 389.668 929.014 389.527 928.73 389.174 927.526 387.689 927.597 386.77 929.155 386.346 929.368 386.204 929.51 386.134 929.651 386.134ZM929.651 230.67C928.589 230.317 927.385 230.034 926.181 229.822L926.181 363.652C926.889 365.137 928.022 366.338 929.651 366.692L929.651 353.825C927.456 350.573 924.481 349.442 928.66 348.664 929.014 348.593 929.368 348.523 929.651 348.452L929.651 230.67ZM929.651 225.863 929.651 229.893C928.447 229.751 927.243 229.61 926.181 229.327L926.181 224.308C927.385 225.015 928.589 225.58 929.651 225.863M929.651 229.893C930.643 230.034 931.705 230.176 932.838 230.317 937.583 230.882 934.75 225.651 930.997 226.004 930.572 226.004 930.147 226.004 929.651 225.863L929.651 229.893ZM929.651 366.692 929.651 353.825C929.934 354.249 930.147 354.673 930.43 355.098 932.555 359.41 936.45 365.844 932.13 366.692 931.209 366.904 930.359 366.904 929.651 366.692ZM929.651 389.739 929.651 386.134C930.784 385.78 931.634 386.416 931.351 387.618 931.138 388.608 930.501 389.739 929.651 389.739ZM937.867 367.894 937.867 371.782C934.609 369.944 936.167 367.116 937.867 367.894ZM937.867 237.457 937.867 339.827C936.592 339.898 935.529 340.322 934.68 341.806 932.697 345.341 933.334 347.462 929.651 348.452L929.651 230.67C931.776 231.448 933.405 232.65 934.255 234.842 935.317 237.457 936.45 237.882 937.867 237.457ZM937.867 371.782 937.867 367.894C937.938 367.894 938.008 367.964 938.079 367.964 939.283 368.389 941.337 373.762 937.938 371.853L937.867 371.782ZM949.269 360.188 949.269 365.631C946.861 366.55 946.365 359.764 948.703 360.258 948.915 360.188 949.057 360.117 949.269 360.188ZM949.269 234.417 949.269 298.398C947.357 299.671 947.569 301.792 949.269 302.569L949.269 336.716C948.419 337.565 947.428 338.272 946.295 338.766 942.824 340.392 940.062 339.686 937.867 339.827L937.867 237.457C939.921 236.821 942.541 234.417 946.295 234.417 947.428 234.417 948.419 234.417 949.269 234.417ZM950.686 360.824 950.686 364.43C950.473 364.712 950.261 364.924 949.977 365.137 949.765 365.349 949.482 365.561 949.269 365.631L949.269 360.188C949.765 360.188 950.261 360.47 950.686 360.824ZM950.686 355.663 950.686 357.855C949.694 357.713 949.694 356.653 950.686 355.663ZM950.686 302.782 950.686 335.161C950.261 335.726 949.765 336.221 949.269 336.716L949.269 302.569C949.694 302.711 950.119 302.782 950.686 302.782M950.686 234.417 950.686 297.762C950.119 297.903 949.623 298.116 949.269 298.398L949.269 234.417C949.765 234.417 950.261 234.417 950.686 234.417ZM950.686 364.43 950.686 360.824C951.465 361.672 951.748 363.016 950.686 364.43ZM954.368 359.41 954.368 362.309 954.298 362.379C953.164 363.652 952.74 359.693 954.368 359.41ZM954.368 354.391 954.368 357.501C953.802 357.289 953.094 357.289 952.102 357.643 951.465 357.855 951.04 357.925 950.686 357.855L950.686 355.663C950.969 355.38 951.323 355.168 951.748 354.885 952.669 354.461 953.589 354.391 954.368 354.391ZM954.368 302.499 954.368 328.657C953.377 330.848 952.173 333.181 950.686 335.161L950.686 302.782C950.898 302.782 951.181 302.782 951.465 302.711 952.527 302.499 953.519 302.428 954.368 302.499ZM954.368 234.135 954.368 296.49C953.519 296.984 952.527 297.409 951.465 297.55 951.181 297.621 950.898 297.691 950.686 297.762L950.686 234.417C952.102 234.417 953.306 234.347 954.368 234.135ZM954.368 210.027 954.368 212.996C953.731 211.936 953.519 210.804 954.368 210.027ZM954.368 328.657 954.368 302.499C957.343 302.711 959.538 304.478 960.53 308.72 961.805 314.305 959.255 319.89 956.635 324.203 955.927 325.405 955.147 326.96 954.368 328.657ZM954.368 362.309C955.643 360.965 955.856 360.683 955.006 359.481 954.793 359.41 954.581 359.41 954.368 359.41L954.368 362.309ZM966.621 348.028 966.621 348.805C966.621 349.018 966.479 349.23 966.408 349.371 965.417 350.502 965.134 352.411 964.921 354.249 964.709 356.087 963.505 358.279 962.017 358.632 960.459 358.986 959.114 359.127 958.689 360.258 958.264 361.46 957.13 361.319 956.422 359.905 955.927 358.915 955.431 357.855 954.368 357.501L954.368 354.391C955.856 354.391 957.201 354.603 958.122 352.977 959.538 350.431 961.309 351.563 961.946 349.3 962.584 347.038 962.513 343.998 964.354 344.493 965.275 344.705 966.408 346.543 966.621 348.028ZM966.621 327.879C965.629 326.96 964.496 326.324 963.717 326.394 961.309 326.607 964.354 330 966.621 331.414L966.621 327.879ZM966.621 315.436 966.621 322.93C964 320.809 964.071 314.659 966.267 315.436 966.408 315.436 966.479 315.436 966.621 315.436ZM966.621 304.195 966.621 306.811C964.496 306.175 962.938 303.489 966.125 304.195 966.267 304.195 966.479 304.195 966.621 304.195ZM966.621 229.115 966.621 283.905C964.496 283.835 962.726 284.33 961.805 286.38 960.105 290.127 957.839 294.439 954.368 296.49L954.368 234.135C955.785 233.852 957.06 233.286 958.83 232.296 960.672 231.165 963.788 229.893 966.621 229.115ZM966.621 222.54 966.621 225.227C966.125 225.58 965.417 225.792 964.354 225.863 959.468 226.075 958.83 222.045 963.292 221.621 964.779 221.48 965.913 221.904 966.621 222.54ZM966.621 208.966 966.621 213.986C964.567 215.117 961.097 215.258 958.83 215.541 957.272 215.683 955.36 214.481 954.368 212.996L954.368 210.027C955.006 209.391 956.21 208.966 958.193 208.966 961.38 208.684 964.709 208.259 966.621 208.966ZM965.134 331.909C965.771 332.121 966.267 332.474 966.621 332.828L966.621 341.453C965.488 340.463 963.434 338.342 964.425 340.534 965.558 343.008 965.346 343.715 964.213 343.574 963.009 343.503 961.663 340.887 961.38 339.12 961.167 337.423 963.717 339.473 964.425 337.777 965.134 336.08 962.938 330.848 965.134 331.909ZM966.621 213.986 966.621 208.966C967.754 209.32 968.391 210.027 968.391 211.37 968.391 212.572 967.683 213.42 966.621 213.986ZM966.621 225.227 966.621 222.54C967.542 223.318 967.612 224.52 966.621 225.227ZM966.621 306.811 966.621 304.195C969.312 304.478 969.808 307.094 967.4 306.953 967.187 306.953 966.904 306.882 966.621 306.811ZM966.621 322.93 966.621 315.436C969.454 315.79 970.304 320.314 968.745 320.032 967.117 319.749 969.383 325.051 966.692 323.001L966.621 322.93ZM966.621 331.414 966.621 327.879C968.108 329.222 969.241 331.06 968.604 331.838 968.321 332.262 967.542 331.98 966.621 331.414ZM966.621 348.805 966.621 348.028C966.692 348.311 966.692 348.593 966.621 348.805ZM976.961 232.933 976.961 285.037C976.536 285.107 976.04 285.107 975.615 285.107 972.641 285.107 969.383 283.976 966.621 283.905L966.621 229.115C970.374 228.055 973.561 227.913 972.57 230.105 970.87 233.993 973.845 237.387 975.615 234.842 976.04 234.205 976.465 233.498 976.961 232.933ZM976.961 213.42 976.961 216.955C973.349 216.39 971.932 213.067 976.819 213.42 976.819 213.42 976.89 213.42 976.961 213.42ZM966.621 332.828C967.754 333.959 967.754 335.444 968.887 335.726 970.374 336.08 973.278 337.211 971.083 338.484 968.887 339.756 967.896 342.584 966.975 341.736 966.833 341.665 966.762 341.594 966.621 341.453L966.621 332.828ZM976.961 216.955 976.961 213.42C979.44 213.632 982.414 217.026 978.023 217.026 977.669 217.026 977.315 216.955 976.961 216.955ZM1013.43 285.249 1013.43 304.761C1013.15 304.69 1012.8 304.62 1012.44 304.337 1008.41 301.792 1009.82 304.973 1007.77 308.225 1005.64 311.407 998.208 311.619 997.854 308.72 997.57 305.822 998.987 302.216 998.066 299.812 997.075 297.409 996.296 296.419 1001.11 292.248 1005.93 288.077 1007.27 283.835 1011.45 284.188 1012.09 284.117 1012.8 284.542 1013.43 285.249M1013.43 245.022C1011.95 245.305 1010.53 245.588 1009.11 245.588 1005.72 245.588 1003.09 236.962 999.27 236.962 995.375 236.962 987.655 237.387 983.335 233.569 980.148 230.67 978.377 231.377 976.961 232.933L976.961 285.037C981.423 284.824 984.61 283.552 988.505 285.531 992.825 287.652 995.375 282.067 998.845 276.906 1002.24 271.745 1006.99 273.089 1008.26 275.634 1009.04 277.118 1011.24 277.048 1013.43 276.27L1013.43 245.022ZM1013.43 237.811 1013.43 240.639C1011.24 240.073 1009.54 237.74 1012.73 237.74 1013.01 237.74 1013.22 237.74 1013.43 237.811ZM1013.43 240.639 1013.43 237.811C1015.98 238.094 1016.91 240.851 1014.5 240.851 1014.14 240.851 1013.79 240.78 1013.43 240.639ZM1013.43 304.761C1016.06 304.902 1014.43 296.277 1016.62 295.924 1018.53 295.712 1016.13 288.077 1013.43 285.249L1013.43 304.761ZM1019.6 286.168 1019.6 289.349C1017.47 288.784 1016.06 286.238 1019.03 286.097 1019.24 286.097 1019.38 286.168 1019.6 286.168ZM1019.6 276.906 1019.6 281.572C1014.71 280.724 1014.85 279.027 1019.45 276.906L1019.6 276.906ZM1019.6 244.244 1019.6 273.159C1018.96 273.23 1018.32 273.442 1017.76 273.937 1016.69 274.856 1015.06 275.705 1013.43 276.27L1013.43 245.022C1015.28 244.598 1017.26 244.174 1019.6 244.244M1019.6 289.349 1019.6 286.168C1021.79 286.592 1022.85 289.49 1020.52 289.49 1020.16 289.49 1019.88 289.49 1019.6 289.349ZM1028.1 301.156 1028.1 303.842C1026.04 302.64 1024.48 300.166 1025.97 300.166 1026.54 300.236 1027.32 300.661 1028.1 301.156ZM1028.1 243.961 1028.1 280.017C1025.33 280.512 1024.48 282.421 1019.88 281.643L1019.6 281.572 1019.6 276.906C1023.14 275.21 1021.65 273.089 1019.6 273.159L1019.6 244.244C1019.95 244.244 1020.38 244.244 1020.73 244.315 1024.91 244.668 1023.14 242.76 1028.1 243.961ZM1028.1 303.842 1028.1 301.156C1030.08 302.499 1031.99 304.62 1030.01 304.478 1029.37 304.478 1028.73 304.195 1028.1 303.842ZM1057.7 246.365C1053.38 243.82 1047.36 243.608 1042.68 241.275 1037.51 238.73 1031.49 236.962 1034.97 241.699 1038.44 246.436 1038.86 247.284 1030.64 244.739 1029.65 244.386 1028.8 244.174 1028.1 243.961L1028.1 280.017C1028.52 279.946 1028.87 279.946 1029.37 279.946 1033.27 279.946 1035.81 285.107 1038.44 281.219 1040.98 277.331 1043.11 273.089 1050.05 273.089 1056.92 273.089 1056.92 270.473 1050.9 267.504 1044.88 264.464 1043.11 260.151 1047 262.343 1050.9 264.464 1056.07 267.504 1054.72 263.615 1053.95 261.212 1055.5 259.798 1057.7 259.586L1057.7 246.365ZM1057.7 234.347 1057.7 238.518C1053.59 238.023 1052.67 234.135 1057.7 234.347ZM1057.7 238.518 1057.7 234.347 1057.77 234.417C1060.18 234.205 1063.44 238.589 1058.62 238.589 1058.27 238.589 1057.98 238.589 1057.7 238.518ZM1057.7 259.586 1057.7 246.365C1058.19 246.648 1058.62 246.931 1059.04 247.284 1063.36 250.748 1068.11 254.142 1074.56 254.142 1081 254.142 1074.56 264.464 1070.23 265.736 1065.91 267.079 1065.91 262.767 1062.09 260.646 1060.6 259.798 1059.04 259.515 1057.7 259.586Z" fill="#5B9BD5" fill-rule="evenodd"/><path d="M567.692 369.072C569.031 368.366 570.088 369.001 569.876 370.344 569.595 371.686 568.396 373.381 567.198 371.898 566 370.414 566.141 369.567 567.692 369.072ZM575.304 367.165C576.713 366.458 577.77 367.094 577.489 368.436 577.207 369.779 576.079 371.474 574.881 369.99 573.682 368.507 573.753 367.589 575.304 367.165ZM572.414 377.691C573.823 376.984 574.881 377.62 574.599 378.962 574.387 380.375 573.189 382 571.991 380.516 570.793 379.104 570.934 378.185 572.414 377.691ZM595.109 298.993 595.109 313.193C592.995 313.828 590.739 312.204 591.373 309.236 592.29 305.068 589.188 298.569 595.109 298.993ZM595.109 337.777C594.968 337.777 594.827 337.777 594.686 337.777 590.387 337.777 592.501 341.662 590.387 345.477 588.272 349.362 591.232 351.058 591.232 355.367 591.232 357.557 592.924 357.769 595.109 357.698L595.109 337.777ZM595.109 313.193C596.096 312.91 597.082 312.133 597.646 310.72 599.62 306.34 599.62 298.569 595.743 299.064 595.532 299.064 595.32 298.993 595.109 298.993L595.109 313.193ZM606.738 288.82 606.738 315.312C602.932 316.937 600.325 319.127 599.62 314.605 598.633 308.318 598.14 308.813 603.99 306.34 609.769 303.938 601.523 288.396 605.893 288.891 606.175 288.82 606.457 288.82 606.738 288.82ZM606.738 338.271C606.034 338.483 605.258 338.624 604.483 338.624 599.972 338.624 598.985 337.847 595.109 337.777L595.109 357.698C597.223 357.628 599.831 357.275 601.523 358.405 603.285 359.535 605.117 359.464 606.738 358.899L606.738 338.271ZM606.738 315.312 606.738 288.82C612.729 288.608 613.082 296.803 612.166 300.053 611.249 303.444 618.016 314.111 611.672 314.111 609.91 314.111 608.219 314.676 606.738 315.312ZM616.465 292.988 616.465 296.591C616.183 296.591 615.901 296.379 615.549 296.026 614.35 294.542 614.491 293.624 616.042 293.2 616.183 293.13 616.324 293.059 616.465 292.988ZM616.465 315.241C612.095 316.16 610.826 314.817 608.782 318.491 606.668 322.306 605.399 327.039 609.205 330.5 612.447 333.326 610.263 337.141 606.738 338.271L606.738 358.899C608.148 358.405 609.487 357.486 610.474 356.639 612.659 354.943 613.928 355.367 613.505 352.4 613.223 350.21 614.703 349.362 616.465 349.08L616.465 315.241ZM616.465 296.591 616.465 292.988C617.593 292.635 618.438 293.271 618.227 294.472 618.016 295.461 617.311 296.591 616.465 296.591ZM619.284 307.329 619.284 310.932C619.002 310.932 618.72 310.791 618.368 310.367 617.17 308.954 617.311 308.035 618.861 307.541 619.002 307.47 619.143 307.4 619.284 307.329ZM619.284 314.393C618.65 314.676 618.016 314.888 617.381 315.029 617.029 315.1 616.747 315.171 616.465 315.241L616.465 349.08C617.17 348.938 617.945 348.938 618.65 348.938 618.861 348.938 619.073 348.868 619.284 348.868L619.284 314.393ZM661.08 192.391C671.229 192.391 668.339 194.793 673.132 198.184 677.995 201.575 671.723 209.84 664.956 204.966 658.19 200.091 662.067 211.747 656.217 207.367 650.437 203.058 649.45 199.667 655.723 199.173 662.067 198.678 649.944 193.804 647.054 197.195 644.164 200.586 637.821 189 646.561 189 655.23 189 653.327 189.424 661.08 192.391ZM619.284 310.932 619.284 307.329C620.412 306.976 621.258 307.612 620.976 308.813 620.835 309.872 620.13 311.003 619.284 310.932ZM749.041 222.485 749.041 240.005C748.689 239.723 748.195 239.369 747.702 238.945 742.416 234.071 742.345 223.969 749.041 222.485ZM709.712 344.347C717.324 348.303 728.108 352.683 735.579 354.025 732.055 351.835 736.213 348.797 731.703 344.841 725.923 339.825 727.403 335.445 733.183 331.136 734.804 330.854 736.213 330.712 737.341 330.642 732.76 320.116 735.791 313.051 743.262 314.464 745.658 314.888 747.631 314.04 749.041 312.769L749.041 303.726C748.618 303.656 748.195 303.585 747.631 303.585 740.372 303.585 742.557 294.896 740.372 284.016 739.315 278.718 744.742 271.442 749.041 265.013L749.041 250.602C748.266 250.884 747.49 251.238 746.645 251.52 741.077 253.639 748.407 247.635 742.416 248.906 736.425 250.249 732.125 253.639 728.672 256.677 725.289 259.644 729.095 248.482 724.443 248.482 719.721 248.482 726.135 258.796 721.412 258.796 716.69 258.796 712.391 259.644 715.421 262.258 718.381 264.801 713.73 264.377 709.007 263.106 704.285 261.834 710.699 266.073 708.585 267.415 706.4 268.687 701.748 266.567 699.14 263.53 696.603 260.492 691.457 258.373 693.995 256.253 696.603 254.063 700.832 257.949 707.739 257.949 714.576 257.949 713.307 250.672 707.739 249.825 702.171 248.906 702.594 246.787 697.448 242.902 692.303 239.087 689.695 239.934 682.859 236.897 676.022 233.93 667.494 241.63 661.432 242.902 655.441 244.244 647.336 255.406 643.882 260.068 640.499 264.801 634.508 268.687 630.209 273.42 625.909 278.153 629.363 286.701 633.169 292.706 637.046 298.71 636.623 291.434 639.653 289.315 642.614 287.125 645.221 291.858 646.49 296.167 647.759 300.406 650.296 293.977 653.327 293.977 656.358 293.977 657.626 290.163 661.009 286.701 664.463 283.239 658.049 279.001 659.741 274.268 661.432 269.534 666.577 267.415 667.917 262.682 669.185 257.949 678.136 259.644 674.753 263.53 671.3 267.415 664.886 273.42 667 278.577 669.185 283.734 673.485 280.696 678.559 279.848 683.704 279.001 684.127 282.392 679.898 284.582 675.599 286.701 670.454 284.582 674.33 288.396 678.136 292.282 673.908 291.858 668.762 291.858 663.617 291.858 669.608 297.015 666.155 299.982 662.771 303.02 659.318 299.134 654.596 299.134 649.873 299.134 648.605 301.324 643.036 301.324 637.469 301.324 639.653 297.439 636.2 297.439 632.746 297.439 633.662 303.867 630.632 306.905 628.024 309.519 623.795 312.769 619.284 314.393L619.284 348.868C621.328 348.161 621.962 344.205 620.764 339.896 619.496 335.234 627.672 336.929 634.508 336.929 641.345 336.929 642.191 341.662 646.913 343.358 651.635 345.053 652.058 349.362 652.058 355.367 652.058 361.372 656.78 353.248 657.626 350.634 658.472 348.091 660.164 342.086 656.78 342.086 653.327 342.086 652.481 340.814 649.45 337.777 646.49 334.81 649.027 333.044 652.058 335.657 655.018 338.201 656.358 339.472 658.472 342.086 660.586 344.629 662.349 347.243 664.463 351.482 666.577 355.791 668.339 360.1 671.723 358.405 675.176 356.639 671.3 350.21 674.753 350.634 678.136 351.058 682.013 348.515 683.704 345.053 685.467 341.662 684.127 340.814 684.127 335.657 684.127 330.5 693.572 327.463 694.841 330.924 696.18 334.315 701.748 328.734 705.554 326.615 709.43 324.496 710.699 326.615 708.585 328.734 706.4 330.924 707.316 334.81 711.968 337.353 716.69 339.896 718.381 344.205 713.73 344.629 712.391 344.771 711.051 344.629 709.712 344.347ZM749.041 240.005 749.041 222.485 749.112 222.415C755.948 221.002 752.988 210.335 762.714 210.335 772.37 210.335 766.591 204.966 777.727 207.862 784 207.367 778.643 215.138 773.357 215.138 768.001 215.138 755.455 225.806 753.975 231.175 752.706 235.978 752.918 242.407 749.041 240.005M749.041 265.013C753.763 258.09 757.287 252.156 750.521 250.672 750.239 250.602 749.957 250.531 749.675 250.46L749.041 250.602 749.041 265.013ZM749.041 312.769C752.072 309.943 752.636 304.786 749.041 303.726L749.041 312.769Z" fill="#70AD47" fill-rule="evenodd"/><path d="M1030.52 435.71C1031.93 435 1032.99 435.639 1032.7 436.989 1032.42 438.41 1031.29 440.043 1030.09 438.552 1028.89 437.131 1028.96 436.208 1030.52 435.71ZM1024.87 494.455C1028.61 494.739 1033.2 501.061 1029.18 501.061 1025.22 501.061 1021.49 494.739 1024.87 494.455ZM1018.31 505.678C1022.05 505.678 1028.05 511.432 1022.9 511.716 1017.75 512 1012.59 505.678 1018.31 505.678ZM974.635 561.51C970.895 562.576 970.684 564.849 973.577 568.4 976.469 571.952 979.292 567.974 979.997 564.636 980.632 561.297 977.951 559.734 974.635 561.51ZM994.25 521.376C995.661 520.666 996.719 521.305 996.437 522.655 996.226 524.076 995.026 525.709 993.827 524.218 992.627 522.726 992.768 521.874 994.25 521.376ZM957.772 499.072C962.358 498.788 962.076 491.542 962.076 487.565 962.076 483.516 968.355 482.379 969.767 489.838 971.248 497.296 983.525 512.852 988.041 516.546 992.627 520.311 991.78 531.534 989.24 538.993 986.63 546.451 979.221 562.007 972.659 558.527 966.098 555.117 962.076 557.674 958.407 552.205 954.667 546.735 953.256 537.856 951.492 540.697 949.799 543.61 953.821 545.315 945.495 540.129 937.24 534.944 932.371 537.856 929.549 538.424 926.656 538.993 919.812 535.867 918.683 540.129 917.554 544.462 913.25 544.746 909.581 544.462 905.841 544.178 902.949 547.659 900.409 545.883 897.868 544.178 902.384 541.337 899.562 534.66 896.669 528.053 896.951 520.879 894.976 517.47 893 513.989 895.54 506.53 902.666 506.246 909.863 505.962 914.097 504.542 914.097 501.913 914.097 499.356 912.686 497.296 919.247 497.296 925.809 497.296 918.965 489.269 925.527 489.269 932.089 489.269 930.113 495.307 932.936 494.171 935.828 493.034 933.5 487.565 937.24 487.565 940.979 487.565 939.85 482.379 943.237 484.084 946.694 485.789 948.67 488.417 949.799 493.034 950.928 497.58 951.21 498.504 957.772 499.072M921.435 475.986C922.846 475.205 923.904 475.844 923.622 477.265 923.41 478.614 922.211 480.248 921.011 478.827 919.812 477.336 919.953 476.412 921.435 475.986ZM1010.41 480.816C1012.45 480.816 1017.53 485.647 1013.79 485.647 1010.05 485.647 1005.96 480.816 1010.41 480.816ZM999.824 473.642C1003.56 473.003 1012.67 477.62 1008.22 478.117 1003.7 478.614 994.25 475.063 999.824 473.642ZM987.759 462.419C989.946 462.419 998.131 468.812 993.897 468.812 989.593 468.812 983.243 461.922 987.759 462.419ZM952.409 459.862C948.105 460.217 955.161 471.653 959.112 475.773 962.146 479.893 965.463 475.347 968.214 474.637 970.966 473.855 972.307 476.341 977.81 477.265 983.243 478.188 974.635 470.161 975.058 466.752 975.411 463.413 969.202 461.708 966.098 462.064 962.922 462.419 955.726 459.435 952.409 459.862ZM1037.29 562.647 1037.29 571.952 1037.15 572.094C1033.76 575.788 1025.51 579.268 1024.31 584.099 1023.18 589 1022.05 579.553 1021.2 576.924 1020.36 574.367 1024.31 571.455 1029.46 570.318 1034.61 569.182 1029.46 563.428 1036.58 562.576 1036.87 562.576 1037.08 562.576 1037.29 562.647ZM1037.29 543.823 1037.29 552.915C1035.6 548.724 1033.34 544.32 1036.3 543.894 1036.66 543.823 1037.01 543.752 1037.29 543.823ZM941.614 460.217C943.66 460.217 948.67 465.047 944.93 465.047 941.191 465.047 937.098 460.217 941.614 460.217ZM1052.53 494.952C1053.87 494.242 1055 494.881 1054.72 496.231 1054.44 497.58 1053.24 499.214 1052.11 497.793 1050.91 496.302 1050.98 495.378 1052.53 494.952ZM1046.82 496.941C1048.16 496.231 1049.28 496.87 1049 498.22 1048.72 499.64 1047.52 501.274 1046.39 499.782 1045.19 498.362 1045.26 497.438 1046.82 496.941ZM1037.29 552.915C1037.85 554.407 1038.42 555.828 1038.63 557.106 1039.48 562.007 1040.32 563.428 1043.78 564.565 1047.17 565.772 1050.06 556.254 1045.19 554.265 1040.61 552.347 1041.59 543.894 1037.29 543.823L1037.29 552.915ZM1037.29 571.952 1037.29 562.647C1040.54 563.215 1040.39 568.471 1037.29 571.952Z" fill="#FFC000" fill-rule="evenodd"/><text fill="#FFFFFF" font-family="Calibri,Calibri_MSFontService,sans-serif" font-weight="400" font-size="16" transform="translate(327.291 350)"><tspan x="0" y="0">North America</tspan><tspan font-size="16" x="128.555" y="141">South </tspan><tspan font-size="16" x="120.622" y="160">America</tspan><tspan font-size="16" x="321.959" y="96">Africa</tspan><tspan font-size="16" x="505.511" y="2">Asia</tspan><tspan font-size="16" x="317.613" y="-24">Europe</tspan><tspan font-size="16" x="593.207" y="183">Australia</tspan><tspan font-weight="700" font-size="28" x="20.4055" y="-25">60%</tspan><tspan font-weight="700" font-size="28" x="111.205" y="120">60%</tspan><tspan font-weight="700" font-size="28" x="316.475" y="73">60%</tspan><tspan font-weight="700" font-size="28" x="348.259" y="-40">60%</tspan><tspan font-weight="700" font-size="28" x="498.895" y="-19">60%</tspan><tspan font-weight="700" font-size="28" x="596.304" y="168">60%</tspan></text></g></svg>