<!--PureVizConfig>[{"vid":"93","visualtype":"path","propertyType":"shapefill","mappingOption":"specialfill","mappedValue":[null,"{if|math|[Eficiency %]|>|math|50|text|rgba(106, 204, 81, 1)||text|rgba(206, 204, 81, 1)}","#222222",null,"rgba(227, 227, 227, 1)","0",null,null,null,null,"{math|54|}","donut"]},{"vid":"102","visualtype":"path","propertyType":"shapefill","mappingOption":"specialfill","mappedValue":[null,"#5B9BD5","#222222",null,"rgba(227, 227, 227, 1)","0",null,null,null,null,"60","lr"]},{"vid":"111","visualtype":"path","propertyType":"shapefill","mappingOption":"specialfill","mappedValue":[null,"#FFC000","#222222",null,"rgba(227, 227, 227, 1)","0",null,null,null,null,"60","donut"]},{"vid":"120","visualtype":"path","propertyType":"shapefill","mappingOption":"specialfill","mappedValue":[null,"#4472C4","#222222",null,"rgba(227, 227, 227, 1)","0",null,null,null,null,"60","donut"]},{"vid":"84","visualtype":"path","propertyType":"shapefill","mappingOption":"specialfill","mappedValue":[null,"#ED7D31","#222222",null,"rgba(227, 227, 227, 1)","0",null,null,null,null,"60","donut"]},{"vid":"130","visualtype":"path","propertyType":"shapefill","mappingOption":"specialfill","mappedValue":[null,"#A5A5A5","#222222",null,"rgba(227, 227, 227, 1)","0",null,null,null,null,"{math|44|}","donut"]},{"vid":"95","visualtype":"tspan","propertyType":"textcontent","mappingOption":"custom","mappedValue":["%{math|54|0;,}"]},{"vid":"132","visualtype":"tspan","propertyType":"textcontent","mappingOption":"custom","mappedValue":["%{math|44|0;}"]},{"vid":"99","visualtype":"path","propertyType":"shapetransformani","mappingOption":"custom","mappedValue":["0","0","0","0","0","0","95","105","1","0","linear","alternate","50","50","0","100","100","100","100"]},{"vid":"99","visualtype":"path","propertyType":"shapecolorani","mappingOption":"custom","mappedValue":["rgba(222, 222, 222, 1)","rgba(255, 255, 255, 1)","1","0","alternate","linear",null,"0"]}]</PureVizConfig--><svg viewBox="0 0 936 512" width="936" height="512" xmlns="http://www.w3.org/2000/svg" xmlns:xlink="http://www.w3.org/1999/xlink" overflow="hidden"><defs><filter id="fx0" x="-10%" y="-10%" width="120%" height="120%" filterUnits="userSpaceOnUse" primitiveUnits="userSpaceOnUse"><feComponentTransfer color-interpolation-filters="sRGB"><feFuncR type="discrete" tableValues="0 0"/><feFuncG type="discrete" tableValues="0 0"/><feFuncB type="discrete" tableValues="0 0"/><feFuncA type="linear" slope="0.4" intercept="0"/></feComponentTransfer><feGaussianBlur stdDeviation="2.22222 2.22222"/></filter><filter id="fx1" x="-10%" y="-10%" width="120%" height="120%" filterUnits="userSpaceOnUse" primitiveUnits="userSpaceOnUse"><feComponentTransfer color-interpolation-filters="sRGB"><feFuncR type="discrete" tableValues="0 0"/><feFuncG type="discrete" tableValues="0 0"/><feFuncB type="discrete" tableValues="0 0"/><feFuncA type="linear" slope="0.4" intercept="0"/></feComponentTransfer><feGaussianBlur stdDeviation="2.22222 2.22222"/></filter><filter id="fx2" x="-10%" y="-10%" width="120%" height="120%" filterUnits="userSpaceOnUse" primitiveUnits="userSpaceOnUse"><feComponentTransfer color-interpolation-filters="sRGB"><feFuncR type="discrete" tableValues="0 0"/><feFuncG type="discrete" tableValues="0 0"/><feFuncB type="discrete" tableValues="0 0"/><feFuncA type="linear" slope="0.4" intercept="0"/></feComponentTransfer><feGaussianBlur stdDeviation="2.22222 2.22222"/></filter><filter id="fx3" x="-10%" y="-10%" width="120%" height="120%" filterUnits="userSpaceOnUse" primitiveUnits="userSpaceOnUse"><feComponentTransfer color-interpolation-filters="sRGB"><feFuncR type="discrete" tableValues="0 0"/><feFuncG type="discrete" tableValues="0 0"/><feFuncB type="discrete" tableValues="0 0"/><feFuncA type="linear" slope="0.4" intercept="0"/></feComponentTransfer><feGaussianBlur stdDeviation="2.22222 2.22222"/></filter><filter id="fx4" x="-10%" y="-10%" width="120%" height="120%" filterUnits="userSpaceOnUse" primitiveUnits="userSpaceOnUse"><feComponentTransfer color-interpolation-filters="sRGB"><feFuncR type="discrete" tableValues="0 0"/><feFuncG type="discrete" tableValues="0 0"/><feFuncB type="discrete" tableValues="0 0"/><feFuncA type="linear" slope="0.4" intercept="0"/></feComponentTransfer><feGaussianBlur stdDeviation="2.22222 2.22222"/></filter><filter id="fx5" x="-10%" y="-10%" width="120%" height="120%" filterUnits="userSpaceOnUse" primitiveUnits="userSpaceOnUse"><feComponentTransfer color-interpolation-filters="sRGB"><feFuncR type="discrete" tableValues="0 0"/><feFuncG type="discrete" tableValues="0 0"/><feFuncB type="discrete" tableValues="0 0"/><feFuncA type="linear" slope="0.4" intercept="0"/></feComponentTransfer><feGaussianBlur stdDeviation="2.22222 2.22222"/></filter><clipPath id="clip6"><rect x="172" y="133" width="936" height="512"/></clipPath><clipPath id="clip7"><rect x="-4" y="-4" width="130" height="163"/></clipPath><clipPath id="clip8"><rect x="0" y="0" width="123" height="156"/></clipPath><clipPath id="clip9"><rect x="-4" y="-4" width="130" height="163"/></clipPath><clipPath id="clip10"><rect x="0" y="0" width="123" height="156"/></clipPath><clipPath id="clip11"><rect x="-4" y="-2" width="130" height="161"/></clipPath><clipPath id="clip12"><rect x="0" y="0" width="123" height="156"/></clipPath><clipPath id="clip13"><rect x="-2" y="-4" width="128" height="163"/></clipPath><clipPath id="clip14"><rect x="0" y="0" width="124" height="156"/></clipPath><clipPath id="clip15"><rect x="-4" y="-2" width="130" height="161"/></clipPath><clipPath id="clip16"><rect x="0" y="0" width="123" height="156"/></clipPath><clipPath id="clip17"><rect x="-2" y="-4" width="128" height="163"/></clipPath><clipPath id="clip18"><rect x="0" y="0" width="124" height="156"/></clipPath></defs><g clip-path="url(#clip6)" transform="translate(-172 -133)"><rect x="173" y="134" width="934" height="511" fill="#FFFFFF"/><path d="M410 430.352C410.637 427.595 411.062 425.121 411.699 423 412.195 423.495 412.832 423.778 413.753 423.778 419.843 423.778 415.806 428.302 418.214 432.331 420.692 436.431 424.729 439.258 428.057 438.057 431.314 436.855 436.979 439.258 440.236 437.208 443.493 435.229 446.822 431.129 448.45 435.229 450.079 439.258 456.594 437.633 460.63 437.633 464.737 437.633 470.472 436.431 477.412 440.531 484.351 444.56 490.016 450.286 495.327 450.286 500.638 450.286 499.859 455.587 499.859 460.889 499.859 466.191 506.728 466.191 514.092 468.594 521.456 471.068 524.714 470.644 532.078 475.097 539.371 479.621 541 482.025 537.389 487.326 533.706 492.628 525.917 500.757 525.563 508.533 525.138 516.238 520.252 523.59 514.942 524.367 509.631 525.215 504.745 529.315 504.745 532.92 504.745 536.596 499.859 534.97 499.434 541.898 499.009 548.825 492.919 556.601 490.016 555.329 487.184 554.127 476.987 548.401 481.094 554.127 485.13 559.853 485.98 562.68 481.448 564.73 476.987 566.78 471.251 575.333 468.419 572.435 465.586 569.608 465.941 572.859 465.941 575.687 465.941 578.585 465.162 584.24 461.479 584.24 457.797 584.24 464.737 594.419 462.683 595.692 460.63 596.893 454.54 608.274 454.54 608.274 454.54 608.274 454.965 614 450.433 610.324 445.972 606.648 442.715 595.268 441.086 592.016 439.457 588.764 441.511 588.34 443.918 584.24 446.397 580.211 445.972 576.959 443.493 569.608 441.086 562.256 441.865 556.601 445.547 553.703 449.229 550.875 447.176 541.474 447.176 536.243 447.176 530.941 454.965 529.669 452.486 525.215 450.079 520.762 452.911 515.46 450.079 512.986 447.176 510.583 443.493 503.655 439.032 503.655 434.571 503.655 435.35 499.131 435.35 495.456 435.35 491.85 426.357 485.276 423.95 480.399 421.471 475.521 421.117 466.968 425.578 464.918 430.039 462.868 428.057 456.789 432.518 455.587 436.979 454.315 434.146 449.437 432.518 446.186 430.889 442.934 420.692 446.186 418.639 442.934 416.656 439.824 416.231 430.988 410 430.352Z" fill="#A5A5A5" fill-rule="evenodd" fill-opacity="0.6"/><path d="M338.668 250.361C337.041 251.068 337.324 251.563 338.668 252.199L338.668 250.361ZM338.668 232.473C338.173 232.331 337.607 232.26 337.041 232.26 332.159 232.26 329.258 229.008 323.598 229.432 316.665 229.432 313.764 237.988 317.018 242.018 320.273 246.119 332.159 242.018 332.938 246.119 333.433 248.452 336.758 248.947 338.668 249.23L338.668 232.473ZM338.668 221.867C337.253 223.281 336.829 225.544 337.253 227.523 337.395 228.372 337.961 228.796 338.668 229.008L338.668 221.867ZM338.668 213.594 338.668 217.2C336.97 218.615 334.07 219.887 331.735 219.887 326.57 219.887 327.773 223.564 323.811 223.564 319.848 223.564 317.372 218.685 323.528 218.332 329.612 218.049 329.895 213.807 336.97 213.453 337.678 213.453 338.244 213.524 338.668 213.594ZM338.668 385.265C338.032 384.063 337.466 382.79 337.041 381.376 335.414 376.073 323.952 370.346 320.698 364.69 317.443 358.963 317.443 347.155 319.919 345.953 322.325 344.681 321.547 341.852 319.919 337.398 318.292 332.873 318.646 332.095 323.598 334.499 328.48 336.974 326.004 329.62 319.919 327.217 313.764 324.742 307.255 319.015 308.104 314.985 308.882 310.884 305.203 311.308 301.948 308.48 298.694 305.581 298.269 297.45 293.387 297.874 288.506 298.298 284.827 294.975 281.572 294.198 278.317 293.349 270.605 291.723 266.926 292.571 263.247 293.349 259.144 290.521 257.092 293.773 255.111 297.026 252.635 290.945 249.38 292.996 246.126 294.975 243.649 301.551 239.97 302.753 236.362 303.955 229.004 310.106 226.174 312.51 223.273 314.985 222.848 309.682 228.155 305.581 233.461 301.551 240.819 295.4 232.683 295.4 224.546 295.4 227.801 291.723 221.221 291.369 214.712 290.945 216.339 282.39 220.443 279.915 224.546 277.511 230.631 273.41 224.9 273.41 219.24 273.41 207 268.108 215.136 267.33 223.273 266.481 224.122 266.906 221.646 262.451 219.24 257.926 209.83 255.522 218.391 254.25 226.952 253.048 230.631 245.341 237.989 245.341 245.277 245.341 257.941 248.947 269.757 249.795 281.572 250.573 292.963 259.977 292.963 256.3 292.963 252.623 294.59 250.997 302.797 250.997 310.934 250.997 308.882 245.341 315.037 249.371 321.122 253.472 317.867 251.846 324.801 251.846 331.735 251.846 329.258 256.3 334.565 256.3 336.121 256.3 337.466 256.159 338.668 256.088L338.668 385.265ZM338.668 217.2 338.668 213.594C341.145 214.089 340.508 215.716 338.668 217.2ZM345.814 235.23 345.814 255.381C345.602 255.31 345.39 255.169 345.177 255.098 342.56 253.684 340.083 252.906 338.668 252.199L338.668 250.361C338.81 250.29 338.951 250.219 339.093 250.219 340.791 249.512 340.083 249.371 338.668 249.23L338.668 232.473C341.074 232.897 343.409 234.169 345.814 235.23ZM345.814 221.443 345.814 230.564C344.187 231.271 342.913 231.412 343.055 230.281 343.267 228.725 340.508 229.574 338.668 229.008L338.668 221.867C339.517 221.16 340.649 220.594 342.135 220.524 343.338 220.382 344.611 220.877 345.814 221.443M345.814 208.009 345.814 210.696C345.39 209.706 345.39 208.716 345.814 208.009ZM345.814 395.588 345.602 395.234C343.196 391.628 340.579 388.729 338.668 385.265L338.668 256.088C341.64 255.805 343.479 255.734 344.328 258.35 344.682 259.34 345.177 259.906 345.814 260.259L345.814 395.588ZM345.814 210.696 345.814 208.009C346.38 207.09 347.654 206.595 349.847 206.736 354.375 206.736 357.63 214.514 351.757 214.514 348.998 214.514 346.663 212.605 345.814 210.696ZM366.12 240.816C366.049 240.674 365.978 240.533 365.978 240.391 363.927 234.311 357.842 236.786 352.111 236.786 349.847 236.786 347.795 236.079 345.814 235.23L345.814 255.381C351.05 257.431 359.894 252.623 366.12 252.623L366.12 240.816ZM366.12 225.402C365.978 225.402 365.766 225.402 365.625 225.402 360.46 225.402 360.46 218.685 356.498 218.685 353.102 218.332 353.738 219.604 352.536 222.927 351.616 225.331 348.857 222.927 345.814 221.443L345.814 230.564C347.3 229.927 349.069 228.796 350.342 227.806 353.102 225.685 356.498 227.24 362.865 227.523 364.139 227.594 365.2 227.523 366.12 227.382L366.12 225.402ZM366.12 218.402 366.12 221.513C363.148 220.877 362.016 218.615 366.12 218.402ZM366.12 204.191 366.12 210.696C363.29 207.655 362.016 203.06 365.129 204.191 365.483 204.191 365.766 204.191 366.12 204.191ZM366.12 408.597C365.412 406.476 364.634 404.638 363.502 403.789 360.248 401.315 349.281 391.133 351.687 394.81 354.163 398.487 356.993 402.941 354.163 403.789 351.333 404.567 348.998 400.325 345.814 395.588L345.814 260.259C347.654 261.179 350.555 260.401 354.163 261.603 359.045 263.229 358.196 255.876 364.705 255.876 365.2 255.876 365.695 255.946 366.12 255.946L366.12 408.597ZM366.12 221.513 366.12 218.402C366.332 218.402 366.615 218.332 366.827 218.332 371.143 218.332 372.063 221.725 367.747 221.725 367.181 221.725 366.615 221.655 366.12 221.513ZM366.12 227.382 366.12 225.402C369.799 225.473 369.516 226.958 366.12 227.382ZM373.973 250.078C371.073 249.442 367.959 246.119 366.12 240.816L366.12 252.623C366.332 252.623 366.544 252.623 366.757 252.623 369.657 252.835 372.275 252.341 373.973 251.775L373.973 250.078ZM373.973 238.765 373.973 243.149C371.922 241.169 371.002 238.836 373.266 238.836 373.478 238.836 373.761 238.836 373.973 238.765ZM373.973 205.393 373.973 213.17C372.841 213.241 371.709 213.241 370.436 213.1 368.879 213.029 367.323 211.968 366.12 210.696L366.12 204.191C369.021 204.262 371.568 204.827 373.973 205.393ZM373.973 417.647C373.195 417.435 372.417 417.294 371.639 417.223 368.525 416.94 367.393 412.415 366.12 408.597L366.12 255.946C369.233 256.229 371.214 257.361 373.973 258.28L373.973 417.647ZM373.973 251.775 373.973 250.078C374.256 250.149 374.61 250.219 374.964 250.219 376.733 250.219 376.025 251.068 373.973 251.775ZM379.28 252.058 379.28 255.169C378.006 254.037 377.865 252.765 379.28 252.058ZM379.28 232.19 379.28 246.048C377.369 245.836 375.388 244.563 373.973 243.149L373.973 238.765C377.582 238.695 379.846 237.493 377.865 236.079 376.096 234.806 376.874 233.109 379.28 232.19ZM379.28 219.887 379.28 226.675C378.997 226.675 378.714 226.604 378.431 226.604 373.903 226.321 374.186 219.392 379.28 219.887ZM379.28 206.595 379.28 213.1C377.44 213.029 375.742 213.17 373.973 213.17L373.973 205.393C375.742 205.817 377.511 206.241 379.28 206.595ZM379.28 197.686 379.28 200.161C378.501 199.241 378.36 198.252 379.28 197.686ZM379.28 419.698C377.369 418.92 375.601 418.142 373.973 417.647L373.973 258.28C375.459 258.775 377.086 259.199 379.28 259.411L379.28 419.698ZM379.28 200.161 379.28 197.686C379.704 197.403 380.412 197.262 381.473 197.262 385.93 196.838 388.76 202.565 384.303 202.565 382.251 202.565 380.27 201.433 379.28 200.161ZM379.28 246.048 379.28 232.19C379.775 232.048 380.27 231.907 380.907 231.766 385.506 231.766 383.312 240.321 385.789 240.038 388.265 239.755 384.869 246.119 379.987 246.119 379.775 246.119 379.492 246.119 379.28 246.048ZM388.336 254.037 388.336 256.866C387.841 257.007 387.062 257.078 386.072 257.078 382.888 257.078 380.553 256.229 379.28 255.169L379.28 252.058C379.846 251.775 380.695 251.633 381.827 251.633 384.091 251.633 386.779 252.765 388.336 254.037ZM388.336 224.695C387.841 224.554 387.345 224.483 386.992 224.483 384.232 224.483 383.666 219.887 379.35 219.887L379.28 219.887 379.28 226.675C382.18 226.958 385.223 227.806 388.336 228.301L388.336 224.695ZM388.336 214.655 388.336 220.524C387.841 220.311 387.416 219.958 387.345 219.251 386.992 217.483 387.558 215.857 388.336 214.655ZM388.336 208.928 388.336 213.807C387.699 214.16 386.779 214.302 385.506 213.948 383.171 213.312 381.119 213.1 379.28 213.1L379.28 206.595C380.765 206.878 382.251 207.019 383.879 207.019 385.93 207.019 387.416 207.867 388.336 208.928M388.336 250.644C387.275 249.724 386.921 247.674 388.336 246.189L388.336 250.644ZM388.336 422.668C385.081 422.102 382.039 420.829 379.28 419.698L379.28 259.411C380.199 259.552 381.19 259.552 382.251 259.552 384.586 259.552 386.638 259.552 388.336 259.482L388.336 391.204C385.294 395.8 382.534 404.002 385.506 407.042 386.426 407.89 387.345 408.951 388.336 410.011L388.336 422.668ZM394.067 232.119C388.831 232.402 389.114 235.725 390.388 238.836 391.59 241.876 393.147 241.876 394.067 240.038 394.916 238.2 399.868 237.563 401.071 234.523 402.274 231.483 397.675 232.119 394.067 232.119ZM388.336 213.807 388.336 208.928C389.822 210.625 389.963 212.958 388.336 213.807ZM388.336 220.524C390.883 221.372 396.826 218.049 394.067 218.049 390.671 218.049 394.916 212.534 391.59 212.534 390.529 212.534 389.256 213.382 388.336 214.655L388.336 220.524ZM388.336 228.301C389.892 228.584 391.52 228.725 393.147 228.725 397.604 228.725 391.803 225.544 388.336 224.695L388.336 228.301ZM388.336 256.866C390.246 256.371 389.822 255.169 388.336 254.037L388.336 256.866ZM403.406 222.15 403.406 229.079C401.425 229.715 400.434 230.281 398.595 228.23 395.694 224.907 392.864 219.251 398.17 220.029 400.293 219.039 401.213 220.806 403.406 222.15ZM403.406 212.887 403.406 216.423C403.052 216.564 402.557 216.564 401.991 216.564 397.392 216.211 397.392 212.534 401.637 212.534 402.345 212.534 402.911 212.605 403.406 212.887ZM403.406 197.686C403.264 197.686 403.194 197.686 403.052 197.615 399.373 197.262 400.222 191.11 392.439 191.959 385.93 191.535 394.916 200.09 394.067 204.969 393.359 209.423 397.958 211.827 403.406 209.494L403.406 197.686ZM403.406 187.505 403.406 192.807C398.595 190.686 395.836 187.717 403.406 187.505ZM388.336 259.482C393.642 259.27 395.906 258.562 394.067 256.724 391.661 254.25 391.237 251.421 389.185 250.997 388.902 250.926 388.619 250.785 388.336 250.644L388.336 246.189C388.69 245.836 389.114 245.553 389.609 245.341 392.864 243.715 393.713 240.816 395.694 244.068 397.746 247.321 394.491 251.846 398.949 251.421 403.406 250.997 400.647 258.633 403.406 256.724L403.406 277.158C401.779 278.148 402.557 280.41 399.373 280.764 395.34 281.188 396.118 288.47 394.067 289.743 392.015 290.945 395.34 293.349 395.694 296.672 396.048 299.43 397.887 300.702 403.406 302.753L403.406 386.679C399.373 388.305 394.067 385.477 390.388 388.729 389.751 389.295 389.043 390.143 388.336 391.204L388.336 259.482ZM403.406 428.324C399.585 426.344 396.189 423.233 390.812 422.95 389.963 422.88 389.185 422.809 388.336 422.668L388.336 410.011C391.661 413.335 395.482 416.658 398.595 413.547 399.868 412.274 401.566 410.648 403.406 409.163L403.406 428.324ZM403.406 209.494C403.972 209.282 404.538 208.999 405.104 208.645 410.976 205.11 407.014 198.534 403.406 197.686L403.406 209.494ZM403.406 216.423 403.406 212.887C405.104 213.736 405.528 215.928 403.406 216.423ZM418.264 281.259 418.264 282.036C418.193 281.754 418.193 281.541 418.264 281.259ZM418.264 270.087C417.698 269.875 417.061 269.734 416.495 269.734 412.038 270.582 409.137 272.986 411.613 277.936 413.17 281.047 415.434 279.35 418.264 278.148L418.264 270.087ZM418.264 231.978 418.264 250.149C413.028 249.512 405.882 244.634 405.882 240.816 405.882 236.927 408.5 232.685 418.264 231.978ZM418.264 223.705C414.726 223.352 411.118 223.21 408.783 223.281 406.307 223.493 404.679 222.857 403.406 222.15L403.406 229.079C404.538 228.796 405.953 228.442 407.934 228.584 410.693 228.796 414.514 229.503 418.264 229.786L418.264 223.705ZM418.264 199.312 418.264 221.231C412.604 221.938 406.094 222.998 406.731 219.251 407.509 214.372 410.41 210.696 415.292 209.069 420.032 207.443 409.278 200.443 418.264 199.312ZM418.264 184.04 418.264 194.434C411.542 194.646 410.835 195.353 405.528 193.585 404.75 193.302 404.113 193.09 403.406 192.807L403.406 187.505C403.689 187.434 403.972 187.434 404.255 187.434 408.571 187.434 413.382 185.808 418.264 184.04ZM403.406 302.753C404.396 303.177 405.528 303.531 406.731 303.955 411.047 305.51 415.292 306.642 418.264 307.985L418.264 387.527C413.453 383.497 407.014 385.265 403.477 386.679L403.406 386.679 403.406 302.753ZM403.406 256.724 403.477 256.724C406.307 254.674 409.137 256.3 409.561 259.552 409.986 262.805 412.816 262.027 412.816 258.35 412.816 254.957 414.585 252.977 418.264 252.977L418.264 266.764C414.514 267.401 411.189 268.956 411.189 268.956 411.189 268.956 409.986 276.663 405.528 276.663 404.538 276.663 403.901 276.875 403.406 277.158L403.406 256.724ZM409.915 429.879C409.703 429.879 409.42 429.879 409.137 429.879 407.014 429.879 405.175 429.243 403.406 428.324L403.406 409.163C407.439 405.84 411.825 403.012 411.825 405.628 411.825 409.375 408.783 419.627 411.684 422.597 412.179 423.092 412.816 423.304 413.665 423.304 419.749 423.304 415.717 427.829 418.122 431.859L418.264 432.142 418.264 442.041C416.495 438.505 415.858 430.516 409.915 429.879ZM418.264 282.036 418.264 281.259C418.547 280.764 419.325 280.339 420.881 279.986 426.117 278.784 425.48 282.743 423.004 283.663 421.518 284.228 418.83 283.168 418.264 282.036ZM425.056 403.436 425.056 407.607C421.306 406.476 419.325 402.729 423.853 403.294 424.278 403.294 424.702 403.365 425.056 403.436M425.056 275.249 425.056 277.653C424.773 277.723 424.348 277.653 423.853 277.511 421.801 276.875 419.891 277.441 418.264 278.148L418.264 270.087C420.952 270.865 423.782 273.34 425.056 275.249ZM425.056 232.26 425.056 250.361C422.933 250.219 420.952 250.219 419.396 250.219 419.042 250.219 418.688 250.149 418.264 250.149L418.264 231.978C418.759 231.907 419.254 231.907 419.749 231.836 421.164 231.766 423.075 231.907 425.056 232.26M425.056 224.766 425.056 229.574C423.004 229.927 420.669 229.927 418.264 229.786L418.264 223.705C420.74 223.917 423.146 224.342 425.056 224.766ZM425.056 198.181 425.056 220.524C424.419 220.736 423.782 220.877 423.004 220.877 421.66 220.877 420.032 221.018 418.264 221.231L418.264 199.312C418.476 199.312 418.688 199.312 418.971 199.312 421.448 199.1 423.57 198.676 425.056 198.181ZM425.056 181.636 425.056 194.575C424.207 194.434 423.075 194.363 421.801 194.363 420.457 194.363 419.325 194.434 418.264 194.434L418.264 184.04C420.528 183.192 422.792 182.414 425.056 181.636ZM418.264 432.142C420.032 434.97 422.58 437.162 425.056 437.728L425.056 444.091C422.226 444.091 419.466 443.95 418.547 442.465 418.476 442.323 418.334 442.182 418.264 442.041L418.264 432.142ZM418.264 307.985C420.952 309.116 422.65 310.389 422.65 312.086 422.65 313.924 423.853 317.247 425.056 319.156L425.056 394.739C423.995 394.174 422.367 392.406 420.174 389.507 419.608 388.729 418.971 388.093 418.264 387.527L418.264 307.985ZM418.264 252.977C418.617 252.977 418.971 253.048 419.396 253.048 423.853 253.472 426.259 266.481 421.377 266.481 420.386 266.481 419.325 266.623 418.264 266.764L418.264 252.977ZM425.056 229.574 425.056 224.766C428.735 225.614 430.857 226.816 428.735 228.23 427.744 228.867 426.471 229.291 425.056 229.574ZM425.056 277.653 425.056 275.249C425.976 276.521 426.188 277.582 425.056 277.653ZM425.056 407.607 425.056 403.436C428.735 404.214 430.787 408.315 426.542 407.961 426.046 407.89 425.551 407.749 425.056 407.607ZM434.607 408.385 434.607 411.496C431.777 410.577 430.433 408.385 433.758 408.385 434.041 408.315 434.324 408.315 434.607 408.385ZM434.607 396.86 434.607 402.022C433.121 402.446 431.848 403.153 430.574 402.446 428.24 401.173 428.876 397.143 432.697 396.578 433.334 396.578 433.97 396.648 434.607 396.86M434.607 269.734 434.607 276.027C429.301 274.754 428.523 270.087 434.041 269.734 434.254 269.734 434.395 269.734 434.607 269.734ZM434.607 257.148 434.607 262.451C431.211 263.37 429.372 259.835 433.121 257.431 433.617 257.219 434.112 257.148 434.607 257.148ZM434.607 234.877 434.607 237.634C432.909 238.129 433.192 238.836 434.607 239.614L434.607 252.058C431.494 251.068 428.098 250.644 425.056 250.361L425.056 232.26C428.523 232.826 432.343 233.816 434.607 234.877M434.607 179.727 434.607 212.463C431.919 213.312 429.23 218.968 425.056 220.524L425.056 198.181C428.947 196.979 429.442 195.141 425.056 194.575L425.056 181.636C428.24 180.646 431.423 179.868 434.607 179.727ZM425.056 437.728C426.046 437.94 427.037 437.94 427.957 437.586 429.655 436.95 432.131 437.303 434.607 437.515L434.607 442.889 432.555 446 432.414 445.717C431.565 444.02 428.24 444.091 425.056 444.091L425.056 437.728ZM425.056 319.156C426.4 321.207 427.744 321.702 427.957 317.813 428.31 310.106 428.31 305.227 431.565 305.227 434.82 305.227 431.989 301.127 430.787 295.4 429.655 290.238 428.523 282.956 434.607 281.117L434.607 373.387C432.131 375.225 428.735 376.922 427.532 378.901 425.48 382.154 427.108 385.477 427.108 391.133 427.108 394.315 426.471 395.446 425.056 394.739L425.056 319.156ZM434.607 237.634 434.607 234.877C436.801 235.866 437.508 236.927 434.82 237.563 434.749 237.563 434.678 237.634 434.607 237.634ZM434.607 262.451C435.103 262.31 435.598 262.027 436.164 261.674 439.843 259.34 437.65 256.936 434.607 257.148L434.607 262.451ZM434.607 402.022 434.607 396.86C438.782 398.416 441.753 404.284 438.569 402.446 437.013 401.527 435.739 401.668 434.607 402.022ZM434.607 411.496 434.607 408.385C438.357 408.597 441.046 411.92 437.154 411.92 436.235 411.92 435.315 411.779 434.607 411.496ZM449.324 413.476 449.324 419.062C445.927 418.496 442.885 413.971 449.324 413.476ZM449.324 244.422 449.324 279.279C444.795 277.794 439.914 276.451 436.518 276.239 435.81 276.239 435.173 276.168 434.607 276.027L434.607 269.734C440.055 269.027 438.64 264.36 442.178 261.603 445.857 258.775 445.857 258.775 440.126 254.674 438.569 253.542 436.659 252.694 434.607 252.058L434.607 239.614C437.225 241.169 444.017 243.078 449.324 244.422M449.324 208.292C448.616 209.069 448.121 210.271 447.484 211.898 446.776 213.736 447.626 214.514 449.324 214.726L449.324 208.292ZM449.324 181.495 449.324 199.666C445.998 201.08 442.461 201.928 440.126 201.716 435.669 201.292 438.499 212.322 435.244 212.322 435.032 212.322 434.82 212.393 434.607 212.463L434.607 179.727C435.456 179.656 436.376 179.656 437.296 179.727 443.239 179.727 443.451 181.777 449.324 181.495M434.607 437.515C435.81 437.657 437.013 437.657 438.074 437.515L434.607 442.889 434.607 437.515ZM434.607 281.117C435.173 280.976 435.81 280.834 436.518 280.764 440.267 280.269 445.574 282.531 449.324 285.218L449.324 351.892C448.121 353.943 446.918 355.71 444.229 355.71 439.772 355.71 437.296 365.892 437.296 369.568 437.296 370.983 436.093 372.255 434.607 373.387L434.607 281.117ZM449.324 419.062C449.536 419.062 449.748 419.132 450.031 419.132 453.781 419.132 454.205 413.193 450.668 413.405 450.173 413.405 449.748 413.405 449.324 413.476L449.324 419.062ZM463.686 418.425 463.686 419.486C463.332 419.698 462.696 419.769 461.634 419.769 456.752 419.557 453.569 416.587 459.724 417.011 461.351 417.011 463.049 417.718 463.686 418.425ZM463.686 342.984C463.545 342.984 463.332 343.054 463.12 343.125 460.644 343.549 461.564 346.448 463.686 346.872L463.686 342.984ZM463.686 259.34 463.686 267.966C460.007 267.896 458.38 269.946 462.554 273.835 462.979 274.259 463.403 274.612 463.686 275.037L463.686 282.602C462.766 283.45 461.493 283.733 460.149 283.168 458.097 282.39 453.852 280.764 449.324 279.279L449.324 244.422C451.305 244.987 453.144 245.411 454.418 245.694 460.715 247.321 458.663 256.936 463.686 259.34M463.686 205.605 463.686 223.14C462.059 222.927 460.573 222.503 459.299 221.655 453.993 218.402 467.082 214.372 461.776 213.948 458.309 213.665 452.437 215.15 449.324 214.726L449.324 208.292C450.809 206.595 453.003 206.595 458.875 206.595 461.139 206.595 462.696 206.171 463.686 205.605ZM463.686 192.666C457.46 193.868 459.441 198.252 462.554 199.312 462.979 199.383 463.332 199.595 463.686 199.878L463.686 192.666ZM463.686 181.777 463.686 188.282C460.715 189.979 458.663 191.888 456.894 194.363 455.479 196.413 452.507 198.252 449.324 199.666L449.324 181.495C449.89 181.495 450.456 181.424 451.163 181.353 454.347 181 459.441 181.212 463.686 181.777ZM449.324 285.218C452.083 287.198 453.993 289.39 453.993 290.945 453.993 294.622 456.045 296.672 460.149 295.4 463.474 294.41 461.634 291.511 463.686 290.733L463.686 323.964C459.583 324.459 453.71 327.57 456.894 327.57 458.875 327.57 461.847 329.126 463.686 331.317L463.686 340.014C459.37 345.105 454.701 345.246 451.941 347.933 450.809 349.064 450.102 350.549 449.324 351.892L449.324 285.218ZM463.686 282.602 463.686 275.037C466.021 278.006 465.384 281.117 463.686 282.602ZM463.686 346.872C463.898 346.943 464.04 346.943 464.252 346.943 466.587 346.943 466.162 342.842 463.686 342.984L463.686 346.872ZM463.686 419.486 463.686 418.425C464.111 418.849 464.181 419.203 463.686 419.486ZM466.728 340.509 466.728 343.337C466.092 342.418 466.021 341.216 466.728 340.509ZM466.728 260.966 466.728 268.461C465.667 268.178 464.606 268.037 463.686 267.966L463.686 259.34C463.898 259.411 464.04 259.482 464.181 259.552 465.101 259.906 465.95 260.401 466.728 260.966ZM466.728 192.383 466.728 223.352C465.667 223.352 464.677 223.281 463.686 223.14L463.686 205.605C466.233 204.049 465.596 201.221 463.686 199.878L463.686 192.666C464.535 192.525 465.526 192.383 466.728 192.383ZM466.728 182.272 466.728 186.798C465.596 187.292 464.606 187.787 463.686 188.282L463.686 181.777C464.747 181.919 465.809 182.06 466.728 182.272ZM463.686 331.317C465.596 333.58 466.445 336.549 464.181 339.378 464.04 339.59 463.898 339.802 463.686 340.014L463.686 331.317ZM463.686 290.733C464.181 290.521 464.818 290.45 465.809 290.521 466.162 290.521 466.445 290.592 466.728 290.733L466.728 324.388 466.658 324.318C466.021 323.893 464.96 323.823 463.686 323.964L463.686 290.733ZM466.728 186.798C467.79 186.373 468.992 185.878 470.337 185.454 473.662 184.252 471.115 183.05 466.728 182.272L466.728 186.798ZM466.728 268.461 466.728 260.966C470.62 264.077 471.823 269.875 467.082 268.532 466.941 268.532 466.799 268.461 466.728 268.461ZM466.728 343.337 466.728 340.509C467.082 340.155 467.507 339.943 468.214 339.802 472.176 338.6 473.096 344.963 469.771 344.963 468.426 344.963 467.294 344.256 466.728 343.337ZM482.93 322.974C480.313 322.691 482.647 322.904 480.454 328.206 478.685 332.307 479.888 333.509 482.93 334.853L482.93 322.974ZM482.93 186.232 482.93 224.624C482.223 224.271 481.445 223.917 480.525 223.705 475.997 222.715 471.115 223.422 466.728 223.352L466.728 192.383C466.941 192.383 467.224 192.383 467.436 192.383 476.987 192.383 476.28 186.727 482.93 186.232ZM466.728 290.733C471.044 292.076 470.478 300.914 473.591 303.955 476.846 307.207 482.93 308.48 481.728 311.308 481.374 312.156 482.011 313.358 482.93 314.631L482.93 321.065C476.563 321.277 473.521 323.257 471.964 325.944 470.337 328.772 469.488 326.439 466.728 324.388L466.728 290.733ZM482.93 334.853 482.93 322.974C483.143 322.974 483.426 322.974 483.779 323.045 490.218 322.691 491.138 327.57 492.977 331.529 494.817 335.56 493.543 339.519 487.459 336.762 485.69 335.984 484.133 335.418 482.93 334.853M577.313 266.976C575.756 266.835 574.2 266.552 571.653 265.421 567.266 263.441 562.88 271.714 569.672 277.016 572.219 279.067 574.907 279.703 577.313 279.491L577.313 266.976ZM577.313 191.535 577.313 197.474C576.252 197.969 575.969 198.676 577.101 199.666 577.171 199.736 577.242 199.807 577.313 199.878L577.313 202.847C575.898 204.827 572.785 206.736 576.322 208.645 576.676 208.857 577.03 209.069 577.313 209.352L577.313 217.342C576.605 217.766 575.686 218.049 574.695 218.049 569.389 218.049 575.049 221.655 571.016 225.756 566.912 229.857 568.115 232.685 562.455 232.685 556.724 232.685 569.389 241.664 562.88 241.664 556.3 241.664 554.319 249.795 560.828 248.947 567.337 248.169 566.912 250.997 559.979 254.25 553.045 257.502 542.079 257.502 538.824 262.805 535.57 268.108 523.33 267.683 523.33 272.633 523.33 277.511 521.278 295.4 511.868 292.147 502.529 288.895 500.477 279.562 496.798 273.835 493.119 268.108 498.85 262.027 495.17 259.977 491.491 257.926 503.307 248.593 499.274 251.421 495.17 254.25 488.661 250.219 494.392 248.947 500.052 247.745 498.071 242.018 493.968 243.29 489.864 244.492 485.407 242.442 490.713 238.412 496.019 234.311 493.543 235.513 489.864 234.311 486.68 233.25 487.529 227.24 482.93 224.624L482.93 186.232C483.638 186.161 484.487 186.161 485.407 186.232 494.746 187.08 495.17 193.161 500.052 191.959 504.934 190.757 494.392 180.151 506.561 187.434 518.801 194.787 509.887 186.656 515.122 186.656 520.429 186.656 511.514 178.879 520.853 179.303 530.263 179.727 530.263 174 542.079 174 556.3 174 581.982 185.808 568.964 184.181 555.946 182.555 538.4 182.202 546.536 187.08 554.672 191.959 556.3 182.555 559.201 187.08 562.031 191.535 566.912 187.08 570.167 189.908 572.219 191.676 574.766 192.03 577.313 191.535ZM482.93 314.631C485.053 317.671 488.661 321.065 483.779 321.065 483.496 321.065 483.213 321.065 482.93 321.065L482.93 314.631ZM604.198 242.583C607.594 242.583 610 248.381 605.613 248.381 601.298 248.381 598.326 242.088 604.198 242.583ZM577.313 197.474 577.313 191.535C578.869 191.252 580.497 190.686 581.982 189.908 586.086 187.858 598.326 194.787 591.392 195.636 586.581 196.201 579.789 196.343 577.313 197.474ZM577.313 202.847 577.313 199.878C578.303 200.938 578.02 201.928 577.313 202.847ZM577.313 217.342 577.313 209.352C580.497 211.756 580.072 215.786 577.313 217.342ZM577.313 279.491 577.313 266.976C578.445 267.118 579.506 267.118 580.85 267.33 587.147 265.421 590.543 270.229 587.147 274.117 585.025 276.592 581.416 279.138 577.313 279.491Z" fill="#ED7D31" fill-rule="evenodd" fill-opacity="0.6"/><path d="M581.69 422.82 581.69 430.042C579.92 427.422 579.212 425.085 580.982 423.528 581.265 423.245 581.478 423.032 581.69 422.82ZM581.69 406.747 581.69 417.226C581.336 416.801 580.911 416.306 580.557 415.739 579 413.615 580.133 409.863 581.69 406.747ZM581.69 387.347C581.336 387.985 580.982 388.622 580.557 389.33 580.982 389.613 581.336 389.542 581.69 389.259L581.69 387.347ZM730.356 511.323C729.152 514.51 728.727 518.758 730.356 520.599L730.356 511.323ZM730.356 493.269C730.214 493.339 730.002 493.41 729.86 493.481 728.302 493.977 728.232 494.897 729.435 496.313 729.718 496.738 730.072 496.88 730.356 496.88L730.356 493.269ZM730.356 433.228 730.356 463.602C730.002 463.885 729.648 464.098 729.364 464.381 724.197 468.204 722.922 477.267 719.878 478.542 716.905 479.816 720.728 482.011 722.497 485.409 724.197 488.879 724.621 500.066 722.497 504.385 720.303 508.704 716.48 513.801 713.011 514.297 709.542 514.722 709.118 520.74 711.737 522.439 714.286 524.139 710.887 528.033 705.72 528.458 700.552 528.882 706.144 544.388 701.401 544.813 696.658 545.238 691.065 551.256 684.198 552.106 677.332 552.955 669.12 556 666.146 550.407 663.102 544.813 668.27 541.344 663.102 535.326 657.934 529.307 660.978 524.139 657.085 518.545 653.262 512.952 649.368 503.11 653.262 497.942 657.085 492.773 658.784 488.879 655.386 487.604 651.917 486.33 657.085 480.312 652.342 477.267 647.669 474.293 644.625 466.08 646.324 462.186 648.094 458.363 648.519 451.92 642.926 451.92 637.333 451.92 628.272 447.601 622.679 449.3 617.087 450.999 612.768 452.345 608.945 453.619 605.052 454.893 598.185 447.176 592.592 441.582 589.265 438.255 584.309 433.865 581.69 430.042L581.69 422.82C584.309 420.129 583.248 418.996 581.69 417.226L581.69 406.747C582.327 405.615 582.964 404.553 583.531 403.703 585.725 400.729 587 390.392 591.318 389.967 595.566 389.542 598.61 384.799 598.61 380.904 598.61 377.01 601.583 373.612 605.901 372.762 610.22 371.912 611.069 368.868 618.786 368.868 626.573 368.868 628.697 364.974 636.909 364.974 645.05 364.974 651.067 362 650.218 368.443 649.368 374.886 657.509 376.161 661.828 378.78 666.146 381.329 672.164 384.799 673.863 380.904 675.562 377.01 681.154 378.355 685.897 379.205 690.57 380.055 698.64 381.754 702.959 381.329L706.286 387.843C703.95 389.118 710.533 403.845 713.436 409.296 716.48 414.89 719.878 423.953 725.046 429.121 726.816 430.82 728.586 432.237 730.356 433.228ZM582.398 386.002C582.186 386.427 581.973 386.852 581.69 387.347L581.69 389.259C582.256 388.905 582.61 388.126 582.752 387.347 582.894 386.781 582.752 386.285 582.398 386.002ZM730.356 496.88 730.356 493.269C731.488 492.915 732.267 493.552 732.055 494.755 731.842 495.747 731.134 496.95 730.356 496.88ZM738.709 500.066 738.709 530.653C737.718 531.785 736.585 532.635 735.382 532.918 730.922 533.697 732.904 523.431 730.356 520.669L730.356 520.599 730.356 511.323C730.922 509.624 731.771 508.279 732.621 507.642 733.966 506.58 736.302 503.11 738.709 500.066ZM738.709 435.139 738.709 454.327C735.807 458.08 732.762 461.478 730.356 463.602L730.356 433.228C733.187 434.856 736.019 435.564 738.709 435.139ZM759.522 474.364C760.938 473.585 762 474.223 761.717 475.639 761.504 476.984 760.301 478.612 759.097 477.196 757.894 475.709 758.036 474.789 759.522 474.364ZM756.761 446.043C758.177 445.335 759.239 445.972 758.956 447.318 758.673 448.663 757.54 450.291 756.337 448.875 755.133 447.388 755.204 446.468 756.761 446.043ZM751.806 433.015C750.248 433.44 750.178 434.361 751.31 435.847 752.514 437.263 753.717 435.635 754 434.29 754.284 432.874 753.151 432.237 751.806 433.015ZM738.709 454.327 738.709 435.139C739.346 435.069 739.913 434.927 740.55 434.715 745.293 432.945 750.461 432.52 746.992 440.733 745.222 444.839 742.107 449.866 738.709 454.327ZM738.709 530.653 738.709 500.066C740.762 497.517 742.886 495.251 744.514 495.109 749.54 494.826 749.54 500.986 746.213 503.747 742.886 506.509 749.54 520.386 745.93 521.802 743.311 522.793 741.328 527.679 738.709 530.653Z" fill="#4472C4" fill-rule="evenodd" fill-opacity="0.6"/><path d="M804.295 453.307 804.295 454.156C804.154 453.802 804.154 453.519 804.295 453.307ZM804.295 443.692 804.295 447.298C803.942 447.298 803.659 447.156 803.306 446.732 802.176 445.318 802.246 444.399 803.8 443.904 803.942 443.834 804.083 443.763 804.295 443.692ZM804.295 431.815 804.295 434.714C803.73 435.421 802.953 435.774 802.246 434.855 801.045 433.371 801.116 432.451 802.67 432.027 803.306 431.674 803.871 431.603 804.295 431.815ZM804.295 264.475C803.73 264.899 803.094 265.253 802.317 265.606 796.312 268.151 794.122 265.182 797.16 261.294 800.127 257.476 801.893 254.86 800.551 248.002 799.279 241.145 800.551 234.711 796.312 235.56 792.002 236.408 788.965 247.154 788.965 250.972 788.965 254.86 792.002 256.133 786.845 256.133 781.688 256.133 779.993 250.972 776.107 250.972 772.221 250.972 775.259 255.284 771.374 255.284 768.195 255.284 763.249 256.486 758.516 258.112 758.799 258.183 759.081 258.254 759.364 258.324 772.433 261.223 747.071 280.806 749.191 291.693 751.381 302.581 749.191 311.276 756.467 311.276 763.744 311.276 760.07 323.578 752.087 322.164 744.599 320.75 741.561 327.82 746.153 338.353 748.131 338.707 750.957 337.293 753.076 339.626 754.56 341.252 751.875 344.363 753.5 346.625 755.478 349.382 762.048 351.15 763.885 351.927 775.33 357.018 758.869 365.572 749.968 363.451 739.512 361.047 728.774 357.371 718.46 352.069 714.998 351.362 711.536 349.806 708.71 349.806 704.895 349.806 701.434 350.655 697.548 352.352 693.733 354.119 691.543 357.937 690.272 362.249 689 366.562 691.967 367.834 699.314 367.834 706.591 367.834 712.596 368.683 712.172 372.571 711.748 376.389 707.439 380.277 703.129 380.701L702.988 380.701 706.308 387.205C706.45 387.205 706.52 387.205 706.591 387.135 709.558 386.71 712.596 391.871 715.563 400.072 718.601 408.202 727.149 418.1 731.035 427.078 734.92 436.128 739.654 429.27 743.468 426.654 747.354 424.109 758.94 421.918 760.212 418.524 761.554 415.06 770.102 404.738 767.559 401.769 764.945 398.729 759.788 397.456 755.478 399.153 751.24 400.921 747.354 393.144 744.811 388.902 742.197 384.589 747.778 383.317 750.816 390.175 753.783 397.032 758.516 393.144 763.249 396.608 767.983 400.072 766.64 396.608 774.411 396.608 782.112 396.608 781.688 395.76 787.693 400.921 793.698 406.081 797.16 407.778 800.975 407.778 804.86 407.778 799.279 420.645 803.165 425.382 803.518 425.806 803.871 426.301 804.295 426.866L804.295 264.475ZM804.295 240.933 804.295 245.175C803.871 243.69 803.73 242.205 804.295 240.933ZM804.295 434.714 804.295 431.815C804.719 432.027 805.001 432.522 804.86 433.3 804.789 433.795 804.578 434.29 804.295 434.714ZM805.779 452.388 805.779 455.923C805.496 455.852 805.284 455.64 805.001 455.357 804.648 454.862 804.366 454.509 804.295 454.156L804.295 453.307C804.436 452.954 804.789 452.671 805.425 452.529 805.567 452.459 805.708 452.388 805.779 452.388ZM805.779 447.793 805.779 449.207C805.496 448.641 805.496 448.146 805.779 447.793ZM805.779 444.046 805.779 445.813C805.496 446.591 804.931 447.369 804.295 447.298L804.295 443.692C804.931 443.48 805.496 443.622 805.779 444.046ZM805.779 262.778 805.779 429.199C805.284 428.422 804.789 427.573 804.295 426.866L804.295 264.475C805.001 263.909 805.425 263.344 805.779 262.778M805.779 239.236 805.779 253.588C804.719 253.234 804.224 252.668 804.86 251.467 805.708 249.77 804.789 247.437 804.295 245.175L804.295 240.933C804.578 240.296 805.001 239.731 805.779 239.236ZM805.779 445.813 805.779 444.046C805.99 444.329 806.061 444.682 805.99 445.177 805.92 445.389 805.849 445.601 805.779 445.813ZM807.333 457.832 807.333 460.942C807.191 460.872 807.05 460.801 806.909 460.589 805.779 459.175 805.849 458.256 807.333 457.832ZM807.333 452.459 807.333 454.721C806.979 455.428 806.414 455.994 805.779 455.923L805.779 452.388C806.414 452.105 806.979 452.176 807.333 452.459ZM807.333 447.015 807.333 450.621C806.979 450.621 806.697 450.479 806.344 450.055 806.132 449.772 805.92 449.49 805.779 449.207L805.779 447.793C805.99 447.581 806.344 447.369 806.838 447.227 806.979 447.156 807.191 447.086 807.333 447.015ZM807.333 259.031 807.333 431.745C806.838 430.896 806.273 430.048 805.779 429.199L805.779 262.778C806.697 261.152 806.485 259.597 807.333 259.031ZM807.333 238.529 807.333 253.87C806.697 253.8 806.202 253.729 805.779 253.588L805.779 239.236C805.92 239.165 806.061 239.024 806.132 238.953 806.626 238.67 807.05 238.529 807.333 238.529ZM807.333 450.621 807.333 447.015C808.463 446.662 809.24 447.298 809.028 448.5 808.816 449.56 808.11 450.691 807.333 450.621ZM807.333 454.721 807.333 452.459C807.615 452.742 807.757 453.236 807.615 453.802 807.545 454.085 807.474 454.438 807.333 454.721ZM807.333 460.942 807.333 457.832 807.403 457.761C808.746 457.054 809.876 457.69 809.593 459.034 809.311 460.306 808.392 461.72 807.333 460.942ZM822.098 439.238C821.886 439.168 821.674 439.168 821.462 439.238 817.718 438.673 818.989 446.167 822.098 446.52L822.098 439.238ZM822.098 241.64 822.098 422.554C821.109 424.392 821.815 429.906 820.756 433.512 819.484 437.824 817.294 441.289 814.327 440.864 812.349 440.582 809.876 436.128 807.333 431.745L807.333 259.031C807.545 258.819 807.827 258.748 808.322 258.748 811.289 258.748 814.327 263.909 818.636 263.909 822.875 263.909 819.06 257.476 814.327 255.284 811.995 254.224 809.311 254.153 807.333 253.87L807.333 238.529C809.876 238.246 804.012 248.073 811.713 244.538 820.332 240.721 813.479 241.145 817.718 240.296 819.766 239.872 821.179 240.509 822.098 241.64ZM822.098 446.52 822.098 439.238C824.853 439.592 826.76 445.106 823.158 446.379 822.804 446.52 822.451 446.52 822.098 446.52M854.383 442.349 854.383 445.955C854.101 445.955 853.747 445.743 853.465 445.389 852.264 443.904 852.334 442.985 853.889 442.561 854.101 442.42 854.242 442.349 854.383 442.349ZM854.383 220.855 854.383 415.272C854.03 414.706 853.606 414.212 852.97 413.787 848.661 411.242 843.928 408.202 837.923 411.667 831.918 415.06 825.065 421.493 822.875 421.918 822.592 421.988 822.31 422.2 822.098 422.554L822.098 241.64C823.228 242.842 823.793 244.538 824.288 245.811 825.206 248.356 830.646 253.234 832.765 256.557 834.814 259.88 836.368 260.869 836.368 257.829 836.368 254.789 833.684 250.83 831.847 249.558 830.081 248.285 832.412 241.145 828.315 239.448 824.288 237.751 821.603 232.661 826.69 232.025 831.847 231.389 832.907 230.894 835.379 228.419 837.852 225.945 845.835 222.905 852.617 221.208 853.253 221.067 853.889 220.925 854.383 220.855ZM854.383 195.05 854.383 201.766C851.769 200.211 851.699 195.262 854.383 195.05ZM854.383 201.766 854.383 195.05C854.525 195.05 854.736 195.05 854.878 195.05 857.845 193 869.219 193.424 865.192 194.202 861.236 195.05 860.6 202.261 856.149 202.261 855.443 202.261 854.878 202.049 854.383 201.766M854.383 445.955C855.231 445.955 855.867 444.823 856.079 443.834 856.361 442.632 855.514 441.996 854.383 442.349L854.383 445.955ZM873.175 460.165 873.175 475.506C872.045 474.587 870.914 473.597 870.137 472.607 865.899 467.659 858.481 457.478 864.91 456.983 867.453 456.701 870.42 458.044 873.175 460.165ZM873.175 219.299 873.175 434.855C870.208 432.169 867.1 430.472 867.1 433.088 867.1 436.552 867.1 442.985 870.137 444.258 870.985 444.682 872.045 445.46 873.175 446.591L873.175 456.347C872.751 455.994 872.257 455.64 871.833 455.428 868.371 453.731 869.714 446.45 866.252 444.258 862.79 442.137 861.095 440.016 864.132 434.007 867.1 427.998 863.638 424.109 858.551 424.109 854.171 424.109 856.291 418.524 854.383 415.272L854.383 220.855C859.682 220.077 860.671 222.764 863.285 221.42 866.111 219.865 871.48 223.471 872.963 219.865 873.034 219.724 873.105 219.511 873.175 219.299ZM873.175 456.347C876.213 458.822 879.109 463.7 879.109 458.468 879.109 454.156 876.001 449.419 873.175 446.591L873.175 456.347ZM873.175 475.506 873.175 460.165C878.756 464.407 883.772 471.83 883.984 476.284 884.196 481.657 877.838 479.253 873.175 475.506ZM894.298 479.607 894.298 483C888.294 482.788 886.174 479.253 892.886 479.536 893.38 479.536 893.804 479.536 894.298 479.607ZM894.298 459.882 894.298 467.022C893.168 464.972 891.685 462.498 894.298 459.882ZM894.298 410.818C894.228 410.818 894.157 410.818 894.087 410.818 891.614 411.172 892.108 414.565 894.298 415.555L894.298 410.818ZM894.298 218.31 894.298 226.157C888.788 227.5 883.348 230.894 880.805 235.136 878.262 239.377 883.419 240.721 886.881 237.256 889.212 234.923 890.695 232.59 894.298 231.883L894.298 407.495C888.717 408.273 882.571 411.596 885.538 416.827 889 422.837 891.543 427.078 891.967 429.694 892.462 432.239 887.728 434.431 885.114 439.097 882.571 443.834 879.109 441.289 875.719 437.4 874.941 436.552 874.023 435.633 873.175 434.855L873.175 219.299C874.376 215.694 873.458 210.745 878.686 210.179 886.386 210.179 878.262 217.532 883.419 217.037 887.022 216.754 890.554 217.744 894.298 218.31ZM894.298 226.157 894.298 218.31C895.923 218.592 897.619 218.804 899.314 218.804 904.895 218.804 900.162 224.814 894.581 226.086L894.298 226.157ZM894.298 415.555 894.298 410.818C896.347 411.172 896.983 416.403 894.652 415.696 894.51 415.626 894.369 415.555 894.298 415.555ZM894.298 467.022 894.298 459.882C894.934 459.246 895.853 458.609 897.054 457.973 903.765 454.438 906.026 447.51 910.265 447.51 912.878 447.369 913.09 451.257 912.313 455.923 911.607 460.589 904.472 472.678 902.07 472.537 899.668 472.325 895.923 470.274 894.652 467.659 894.51 467.447 894.369 467.234 894.298 467.022M894.298 483 894.298 479.607C898.749 480.101 900.727 483 894.864 483 894.652 483 894.44 483 894.298 483ZM922.91 467.871 922.91 471.83C919.731 470.911 917.047 465.962 919.802 465.821 920.508 465.821 921.78 466.74 922.91 467.871ZM922.91 425.665 922.91 430.189C920.791 429.977 918.742 425.523 921.427 425.382 921.921 425.382 922.416 425.452 922.91 425.665ZM922.91 414.353 922.91 419.938C922.628 420.009 922.204 420.009 921.851 419.938 917.188 419.372 916.411 414 921.285 413.787 921.851 413.787 922.416 414 922.91 414.353M922.91 400.214C922.84 400.214 922.84 400.214 922.769 400.214 919.449 399.648 920.296 405.728 922.91 406.152L922.91 400.214ZM922.91 235.348 922.91 354.472C921.992 354.19 920.862 354.119 919.449 354.119 912.596 354.119 911.324 360.977 915.634 360.977 919.872 360.977 913.868 370.379 917.329 374.268 920.791 378.156 924.606 385.862 921.215 389.326 917.753 392.72 916.905 397.881 913.444 399.648 910.053 401.345 902.705 407.354 896.7 407.354 895.923 407.354 895.146 407.425 894.298 407.495L894.298 231.883C895.994 231.53 898.113 231.53 901.01 232.096 909.841 233.792 915.422 232.59 922.91 235.348M922.91 406.152 922.91 400.214C926.443 400.355 925.524 406.506 922.91 406.152ZM922.91 419.938 922.91 414.353C924.818 415.838 925.524 419.514 922.91 419.938ZM922.91 430.189 922.91 425.665C924.676 426.442 925.948 428.351 924.041 429.836 923.687 430.118 923.334 430.189 922.91 430.189ZM922.91 471.83 922.91 467.871C924.676 469.638 926.019 471.971 923.899 471.971 923.546 471.971 923.263 471.901 922.91 471.83ZM929.904 440.794 929.904 448.146C929.268 448.146 928.633 447.793 927.997 447.015 925.524 443.975 925.736 442.137 928.915 441.218 929.268 441.006 929.551 440.864 929.904 440.794ZM929.904 237.115 929.904 363.522C928.774 362.603 927.785 361.754 927.644 360.552 927.29 358.149 926.655 355.462 922.91 354.472L922.91 235.348C923.052 235.418 923.193 235.489 923.334 235.56 925.454 236.408 927.714 236.832 929.904 237.115M929.904 229.763 929.904 235.348C929.692 235.206 929.41 235.065 929.198 234.923 925.595 232.308 924.253 229.55 926.513 229.55 927.502 229.056 928.633 229.268 929.904 229.763ZM929.904 448.146 929.904 440.794C932.165 440.087 933.86 441.359 933.366 443.834 932.942 445.884 931.529 448.217 929.904 448.146ZM934.567 237.822C933.083 237.61 931.529 237.398 929.904 237.115L929.904 363.522C931.458 364.724 933.366 365.996 933.649 368.258 933.79 369.46 934.072 370.591 934.567 371.652L934.567 237.822ZM934.567 232.308 934.567 237.327C932.942 236.903 931.388 236.337 929.904 235.348L929.904 229.763C931.388 230.328 933.013 231.389 934.567 232.308ZM938.029 394.134 938.029 397.739C937.746 397.668 937.393 397.527 937.11 397.174 935.909 395.689 935.98 394.77 937.534 394.346 937.746 394.204 937.887 394.134 938.029 394.134ZM938.029 238.67C936.969 238.317 935.768 238.034 934.567 237.822L934.567 371.652C935.273 373.137 936.404 374.338 938.029 374.692L938.029 361.825C935.839 358.573 932.871 357.442 937.04 356.664 937.393 356.593 937.746 356.523 938.029 356.452L938.029 238.67ZM938.029 233.863 938.029 237.893C936.828 237.751 935.627 237.61 934.567 237.327L934.567 232.308C935.768 233.015 936.969 233.58 938.029 233.863M938.029 237.893C939.018 238.034 940.077 238.176 941.208 238.317 945.941 238.882 943.115 233.651 939.371 234.004 938.947 234.004 938.523 234.004 938.029 233.863L938.029 237.893ZM938.029 374.692 938.029 361.825C938.311 362.249 938.523 362.673 938.806 363.098 940.925 367.41 944.811 373.844 940.501 374.692 939.583 374.904 938.735 374.904 938.029 374.692ZM938.029 397.739 938.029 394.134C939.159 393.78 940.007 394.416 939.724 395.618 939.512 396.608 938.876 397.739 938.029 397.739ZM946.224 375.894 946.224 379.782C942.974 377.944 944.528 375.116 946.224 375.894ZM946.224 245.457 946.224 347.827C944.952 347.898 943.892 348.322 943.044 349.806 941.066 353.341 941.702 355.462 938.029 356.452L938.029 238.67C940.148 239.448 941.773 240.65 942.621 242.842 943.68 245.457 944.811 245.882 946.224 245.457ZM946.224 379.782 946.224 375.894C946.294 375.894 946.365 375.964 946.436 375.964 947.637 376.389 949.685 381.762 946.294 379.853L946.224 379.782ZM957.598 368.188 957.598 373.631C955.196 374.55 954.701 367.764 957.032 368.258 957.244 368.188 957.386 368.117 957.598 368.188ZM957.598 242.417 957.598 306.398C955.69 307.671 955.902 309.792 957.598 310.569L957.598 344.716C956.75 345.565 955.761 346.272 954.63 346.766 951.169 348.392 948.414 347.686 946.224 347.827L946.224 245.457C948.272 244.821 950.886 242.417 954.63 242.417 955.761 242.417 956.75 242.417 957.598 242.417ZM959.011 368.824 959.011 372.43C958.799 372.712 958.587 372.924 958.304 373.137 958.092 373.349 957.81 373.561 957.598 373.631L957.598 368.188C958.092 368.188 958.587 368.47 959.011 368.824ZM959.011 363.663 959.011 365.855C958.022 365.713 958.022 364.653 959.011 363.663ZM959.011 310.782 959.011 343.161C958.587 343.726 958.092 344.221 957.598 344.716L957.598 310.569C958.022 310.711 958.445 310.782 959.011 310.782M959.011 242.417 959.011 305.762C958.445 305.903 957.951 306.116 957.598 306.398L957.598 242.417C958.092 242.417 958.587 242.417 959.011 242.417ZM959.011 372.43 959.011 368.824C959.788 369.672 960.07 371.016 959.011 372.43ZM962.684 367.41 962.684 370.309 962.614 370.379C961.483 371.652 961.059 367.693 962.684 367.41ZM962.684 362.391 962.684 365.501C962.119 365.289 961.413 365.289 960.424 365.643 959.788 365.855 959.364 365.925 959.011 365.855L959.011 363.663C959.293 363.38 959.646 363.168 960.07 362.885 960.989 362.461 961.907 362.391 962.684 362.391ZM962.684 310.499 962.684 336.657C961.695 338.848 960.494 341.181 959.011 343.161L959.011 310.782C959.223 310.782 959.505 310.782 959.788 310.711 960.847 310.499 961.836 310.428 962.684 310.499ZM962.684 242.135 962.684 304.49C961.836 304.984 960.847 305.409 959.788 305.55 959.505 305.621 959.223 305.691 959.011 305.762L959.011 242.417C960.424 242.417 961.625 242.347 962.684 242.135ZM962.684 218.027 962.684 220.996C962.048 219.936 961.836 218.804 962.684 218.027ZM962.684 336.657 962.684 310.499C965.651 310.711 967.841 312.478 968.83 316.72 970.102 322.305 967.559 327.89 964.945 332.203 964.238 333.405 963.461 334.96 962.684 336.657ZM962.684 370.309C963.956 368.965 964.168 368.683 963.32 367.481 963.108 367.41 962.896 367.41 962.684 367.41L962.684 370.309ZM974.906 356.028 974.906 356.805C974.906 357.018 974.765 357.23 974.694 357.371 973.705 358.502 973.422 360.411 973.211 362.249 972.999 364.087 971.798 366.279 970.314 366.632 968.76 366.986 967.417 367.127 966.994 368.258 966.57 369.46 965.439 369.319 964.733 367.905 964.238 366.915 963.744 365.855 962.684 365.501L962.684 362.391C964.168 362.391 965.51 362.603 966.428 360.977 967.841 358.431 969.608 359.563 970.243 357.3 970.879 355.038 970.809 351.998 972.645 352.493 973.564 352.705 974.694 354.543 974.906 356.028ZM974.906 335.879C973.917 334.96 972.787 334.324 972.01 334.394 969.608 334.607 972.645 338 974.906 339.414L974.906 335.879ZM974.906 323.436 974.906 330.93C972.292 328.809 972.363 322.659 974.553 323.436 974.694 323.436 974.765 323.436 974.906 323.436ZM974.906 312.195 974.906 314.811C972.787 314.175 971.232 311.489 974.411 312.195 974.553 312.195 974.765 312.195 974.906 312.195ZM974.906 237.115 974.906 291.905C972.787 291.835 971.021 292.33 970.102 294.38 968.407 298.127 966.146 302.439 962.684 304.49L962.684 242.135C964.097 241.852 965.369 241.286 967.135 240.296 968.972 239.165 972.08 237.893 974.906 237.115ZM974.906 230.54 974.906 233.227C974.411 233.58 973.705 233.792 972.645 233.863 967.771 234.075 967.135 230.045 971.586 229.621 973.069 229.48 974.2 229.904 974.906 230.54ZM974.906 216.966 974.906 221.986C972.857 223.117 969.396 223.258 967.135 223.541 965.581 223.683 963.673 222.481 962.684 220.996L962.684 218.027C963.32 217.391 964.521 216.966 966.499 216.966 969.678 216.684 972.999 216.259 974.906 216.966ZM973.422 339.909C974.058 340.121 974.553 340.474 974.906 340.828L974.906 349.453C973.776 348.463 971.727 346.342 972.716 348.534 973.846 351.008 973.634 351.715 972.504 351.574 971.303 351.503 969.961 348.887 969.678 347.12 969.466 345.423 972.01 347.473 972.716 345.777 973.422 344.08 971.232 338.848 973.422 339.909ZM974.906 221.986 974.906 216.966C976.036 217.32 976.672 218.027 976.672 219.37 976.672 220.572 975.966 221.42 974.906 221.986ZM974.906 233.227 974.906 230.54C975.824 231.318 975.895 232.52 974.906 233.227ZM974.906 314.811 974.906 312.195C977.591 312.478 978.085 315.094 975.683 314.953 975.471 314.953 975.189 314.882 974.906 314.811ZM974.906 330.93 974.906 323.436C977.732 323.79 978.58 328.314 977.025 328.032 975.401 327.749 977.661 333.051 974.977 331.001L974.906 330.93ZM974.906 339.414 974.906 335.879C976.39 337.222 977.52 339.06 976.884 339.838 976.602 340.262 975.824 339.98 974.906 339.414ZM974.906 356.805 974.906 356.028C974.977 356.311 974.977 356.593 974.906 356.805ZM985.22 240.933 985.22 293.037C984.797 293.107 984.302 293.107 983.878 293.107 980.911 293.107 977.661 291.976 974.906 291.905L974.906 237.115C978.65 236.055 981.829 235.913 980.84 238.105 979.145 241.993 982.112 245.387 983.878 242.842 984.302 242.205 984.726 241.498 985.22 240.933ZM985.22 221.42 985.22 224.955C981.617 224.39 980.204 221.067 985.079 221.42 985.079 221.42 985.15 221.42 985.22 221.42ZM974.906 340.828C976.036 341.959 976.036 343.444 977.167 343.726 978.65 344.08 981.547 345.211 979.357 346.484 977.167 347.756 976.178 350.584 975.259 349.736 975.118 349.665 975.047 349.594 974.906 349.453L974.906 340.828ZM985.22 224.955 985.22 221.42C987.693 221.632 990.66 225.026 986.28 225.026 985.927 225.026 985.574 224.955 985.22 224.955ZM1021.6 293.249 1021.6 312.761C1021.32 312.69 1020.97 312.62 1020.61 312.337 1016.59 309.792 1018 312.973 1015.95 316.225 1013.83 319.407 1006.41 319.619 1006.06 316.72 1005.78 313.822 1007.19 310.216 1006.27 307.812 1005.28 305.409 1004.51 304.419 1009.31 300.248 1014.11 296.077 1015.46 291.835 1019.63 292.188 1020.26 292.117 1020.97 292.542 1021.6 293.249M1021.6 253.022C1020.12 253.305 1018.71 253.588 1017.29 253.588 1013.9 253.588 1011.29 244.962 1007.47 244.962 1003.59 244.962 995.888 245.387 991.579 241.569 988.4 238.67 986.633 239.377 985.22 240.933L985.22 293.037C989.671 292.824 992.85 291.552 996.736 293.531 1001.05 295.652 1003.59 290.067 1007.05 284.906 1010.44 279.745 1015.17 281.089 1016.45 283.634 1017.22 285.118 1019.41 285.048 1021.6 284.27L1021.6 253.022ZM1021.6 245.811 1021.6 248.639C1019.41 248.073 1017.72 245.74 1020.9 245.74 1021.18 245.74 1021.39 245.74 1021.6 245.811ZM1021.6 248.639 1021.6 245.811C1024.15 246.094 1025.06 248.851 1022.66 248.851 1022.31 248.851 1021.96 248.78 1021.6 248.639ZM1021.6 312.761C1024.22 312.902 1022.59 304.277 1024.78 303.924 1026.69 303.712 1024.29 296.077 1021.6 293.249L1021.6 312.761ZM1027.75 294.168 1027.75 297.349C1025.63 296.784 1024.22 294.238 1027.18 294.097 1027.4 294.097 1027.54 294.168 1027.75 294.168ZM1027.75 284.906 1027.75 289.572C1022.87 288.724 1023.02 287.027 1027.61 284.906L1027.75 284.906ZM1027.75 252.244 1027.75 281.159C1027.11 281.23 1026.48 281.442 1025.91 281.937 1024.85 282.856 1023.23 283.705 1021.6 284.27L1021.6 253.022C1023.44 252.598 1025.42 252.174 1027.75 252.244M1027.75 297.349 1027.75 294.168C1029.94 294.592 1031 297.49 1028.67 297.49 1028.31 297.49 1028.03 297.49 1027.75 297.349ZM1036.23 309.156 1036.23 311.842C1034.18 310.64 1032.62 308.166 1034.11 308.166 1034.67 308.236 1035.45 308.661 1036.23 309.156ZM1036.23 251.961 1036.23 288.017C1033.47 288.512 1032.62 290.421 1028.03 289.643L1027.75 289.572 1027.75 284.906C1031.28 283.21 1029.8 281.089 1027.75 281.159L1027.75 252.244C1028.1 252.244 1028.53 252.244 1028.88 252.315 1033.05 252.668 1031.28 250.76 1036.23 251.961ZM1036.23 311.842 1036.23 309.156C1038.21 310.499 1040.11 312.62 1038.13 312.478 1037.5 312.478 1036.86 312.195 1036.23 311.842ZM1065.76 254.365C1061.45 251.82 1055.44 251.608 1050.78 249.275 1045.62 246.73 1039.62 244.962 1043.08 249.699 1046.54 254.436 1046.97 255.284 1038.77 252.739 1037.78 252.386 1036.93 252.174 1036.23 251.961L1036.23 288.017C1036.65 287.946 1037 287.946 1037.5 287.946 1041.38 287.946 1043.93 293.107 1046.54 289.219 1049.08 285.331 1051.2 281.089 1058.13 281.089 1064.98 281.089 1064.98 278.473 1058.98 275.504 1052.97 272.464 1051.2 268.151 1055.09 270.343 1058.98 272.464 1064.13 275.504 1062.79 271.615 1062.01 269.212 1063.57 267.798 1065.76 267.586L1065.76 254.365ZM1065.76 242.347 1065.76 246.518C1061.66 246.023 1060.74 242.135 1065.76 242.347ZM1065.76 246.518 1065.76 242.347 1065.83 242.417C1068.23 242.205 1071.48 246.589 1066.68 246.589 1066.32 246.589 1066.04 246.589 1065.76 246.518ZM1065.76 267.586 1065.76 254.365C1066.25 254.648 1066.68 254.931 1067.1 255.284 1071.41 258.748 1076.14 262.142 1082.57 262.142 1089 262.142 1082.57 272.464 1078.26 273.736 1073.95 275.079 1073.95 270.767 1070.14 268.646 1068.65 267.798 1067.1 267.515 1065.76 267.586Z" fill="#5B9BD5" fill-rule="evenodd" fill-opacity="0.6"/><path d="M575.699 377.072C577.045 376.366 578.107 377.001 577.894 378.344 577.611 379.686 576.407 381.381 575.204 379.898 574 378.414 574.142 377.567 575.699 377.072ZM583.346 375.165C584.762 374.458 585.824 375.094 585.541 376.436 585.258 377.779 584.125 379.474 582.921 377.99 581.718 376.507 581.789 375.589 583.346 375.165ZM580.443 385.691C581.859 384.984 582.921 385.62 582.638 386.962 582.426 388.375 581.222 390 580.018 388.516 578.815 387.104 578.956 386.185 580.443 385.691ZM603.242 306.993 603.242 321.193C601.118 321.828 598.853 320.204 599.49 317.236 600.41 313.068 597.295 306.569 603.242 306.993ZM603.242 345.777C603.101 345.777 602.959 345.777 602.818 345.777 598.499 345.777 600.623 349.662 598.499 353.477 596.374 357.362 599.348 359.058 599.348 363.367 599.348 365.557 601.048 365.769 603.242 365.698L603.242 345.777ZM603.242 321.193C604.234 320.91 605.225 320.133 605.791 318.72 607.774 314.34 607.774 306.569 603.88 307.064 603.667 307.064 603.455 306.993 603.242 306.993L603.242 321.193ZM614.925 296.82 614.925 323.312C611.102 324.937 608.482 327.127 607.774 322.605 606.783 316.318 606.287 316.813 612.164 314.34 617.97 311.938 609.686 296.396 614.076 296.891 614.359 296.82 614.642 296.82 614.925 296.82ZM614.925 346.271C614.217 346.483 613.438 346.624 612.66 346.624 608.128 346.624 607.137 345.847 603.242 345.777L603.242 365.698C605.367 365.628 607.986 365.275 609.686 366.405 611.456 367.535 613.297 367.464 614.925 366.899L614.925 346.271ZM614.925 323.312 614.925 296.82C620.944 296.608 621.298 304.803 620.377 308.053 619.457 311.444 626.254 322.111 619.882 322.111 618.112 322.111 616.412 322.676 614.925 323.312ZM624.696 300.988 624.696 304.591C624.413 304.591 624.13 304.379 623.776 304.026 622.572 302.542 622.714 301.624 624.272 301.2 624.413 301.13 624.555 301.059 624.696 300.988ZM624.696 323.241C620.307 324.16 619.032 322.817 616.979 326.491 614.854 330.306 613.58 335.039 617.404 338.5 620.661 341.326 618.466 345.141 614.925 346.271L614.925 366.899C616.341 366.405 617.687 365.486 618.678 364.639 620.873 362.943 622.147 363.367 621.723 360.4 621.439 358.21 622.926 357.362 624.696 357.08L624.696 323.241ZM624.696 304.591 624.696 300.988C625.829 300.635 626.679 301.271 626.467 302.472 626.254 303.461 625.546 304.591 624.696 304.591ZM627.529 315.329 627.529 318.932C627.245 318.932 626.962 318.791 626.608 318.367 625.404 316.954 625.546 316.035 627.104 315.541 627.245 315.47 627.387 315.4 627.529 315.329ZM627.529 322.393C626.891 322.676 626.254 322.888 625.617 323.029 625.263 323.1 624.98 323.171 624.696 323.241L624.696 357.08C625.404 356.938 626.183 356.938 626.891 356.938 627.104 356.938 627.316 356.868 627.529 356.868L627.529 322.393ZM669.516 200.391C679.712 200.391 676.809 202.793 681.624 206.184 686.509 209.575 680.208 217.84 673.41 212.966 666.613 208.091 670.507 219.747 664.63 215.367 658.824 211.058 657.833 207.667 664.135 207.173 670.507 206.678 658.329 201.804 655.426 205.195 652.523 208.586 646.15 197 654.93 197 663.639 197 661.727 197.424 669.516 200.391ZM627.529 318.932 627.529 315.329C628.661 314.976 629.511 315.612 629.228 316.813 629.086 317.872 628.378 319.003 627.529 318.932ZM757.881 230.485 757.881 248.005C757.527 247.723 757.031 247.369 756.535 246.945 751.225 242.071 751.154 231.969 757.881 230.485ZM718.371 352.347C726.018 356.303 736.852 360.683 744.357 362.025 740.817 359.835 744.994 356.797 740.463 352.841 734.657 347.825 736.144 343.445 741.95 339.136 743.578 338.854 744.994 338.712 746.127 338.642 741.525 328.116 744.569 321.051 752.075 322.464 754.482 322.888 756.465 322.04 757.881 320.769L757.881 311.726C757.456 311.656 757.031 311.585 756.465 311.585 749.172 311.585 751.367 302.896 749.172 292.016 748.11 286.718 753.562 279.442 757.881 273.013L757.881 258.602C757.102 258.884 756.323 259.238 755.473 259.52 749.88 261.639 757.243 255.635 751.225 256.906 745.207 258.249 740.887 261.639 737.418 264.677 734.019 267.644 737.843 256.482 733.17 256.482 728.426 256.482 734.869 266.796 730.125 266.796 725.381 266.796 721.062 267.644 724.107 270.258 727.081 272.801 722.407 272.377 717.663 271.106 712.919 269.834 719.363 274.073 717.239 275.415 715.044 276.687 710.37 274.567 707.751 271.53 705.202 268.492 700.033 266.373 702.582 264.253 705.202 262.063 709.45 265.949 716.389 265.949 723.257 265.949 721.983 258.672 716.389 257.825 710.795 256.906 711.22 254.787 706.051 250.902 700.883 247.087 698.263 247.934 691.395 244.897 684.527 241.93 675.959 249.63 669.87 250.902 663.852 252.244 655.709 263.406 652.24 268.068 648.841 272.801 642.823 276.687 638.503 281.42 634.184 286.153 637.654 294.701 641.477 300.706 645.371 306.71 644.947 299.434 647.991 297.315 650.965 295.125 653.585 299.858 654.859 304.167 656.134 308.406 658.683 301.977 661.727 301.977 664.772 301.977 666.047 298.163 669.445 294.701 672.915 291.239 666.471 287.001 668.171 282.268 669.87 277.534 675.039 275.415 676.384 270.682 677.659 265.949 686.651 267.644 683.252 271.53 679.783 275.415 673.339 281.42 675.464 286.577 677.659 291.734 681.978 288.696 687.076 287.848 692.244 287.001 692.669 290.392 688.421 292.582 684.102 294.701 678.933 292.582 682.827 296.396 686.651 300.282 682.403 299.858 677.234 299.858 672.065 299.858 678.083 305.015 674.614 307.982 671.215 311.02 667.746 307.134 663.002 307.134 658.258 307.134 656.984 309.324 651.39 309.324 645.796 309.324 647.991 305.439 644.522 305.439 641.052 305.439 641.973 311.867 638.928 314.905 636.308 317.519 632.06 320.769 627.529 322.393L627.529 356.868C629.582 356.161 630.219 352.205 629.016 347.896 627.741 343.234 635.954 344.929 642.823 344.929 649.691 344.929 650.54 349.662 655.284 351.358 660.028 353.053 660.453 357.362 660.453 363.367 660.453 369.372 665.197 361.248 666.047 358.634 666.896 356.091 668.596 350.086 665.197 350.086 661.727 350.086 660.878 348.814 657.833 345.777 654.859 342.81 657.408 341.044 660.453 343.657 663.427 346.201 664.772 347.472 666.896 350.086 669.02 352.629 670.79 355.243 672.915 359.482 675.039 363.791 676.809 368.1 680.208 366.405 683.677 364.639 679.783 358.21 683.252 358.634 686.651 359.058 690.545 356.515 692.244 353.053 694.015 349.662 692.669 348.814 692.669 343.657 692.669 338.5 702.157 335.463 703.432 338.924 704.777 342.315 710.37 336.734 714.194 334.615 718.088 332.496 719.363 334.615 717.239 336.734 715.044 338.924 715.964 342.81 720.637 345.353 725.381 347.896 727.081 352.205 722.407 352.629 721.062 352.771 719.717 352.629 718.371 352.347ZM757.881 248.005 757.881 230.485 757.952 230.415C764.82 229.002 761.846 218.335 771.617 218.335 781.317 218.335 775.511 212.966 786.698 215.862 793 215.367 787.619 223.138 782.308 223.138 776.927 223.138 764.324 233.806 762.837 239.175 761.563 243.978 761.775 250.407 757.881 248.005M757.881 273.013C762.625 266.09 766.165 260.156 759.368 258.672 759.084 258.602 758.801 258.531 758.518 258.46L757.881 258.602 757.881 273.013ZM757.881 320.769C760.925 317.943 761.492 312.786 757.881 311.726L757.881 320.769Z" fill="#70AD47" fill-rule="evenodd" fill-opacity="0.6"/><path d="M1038.52 444.706C1039.93 444 1040.99 444.635 1040.7 445.976 1040.42 447.387 1039.29 449.011 1038.09 447.529 1036.89 446.117 1036.96 445.2 1038.52 444.706ZM1032.87 503.069C1036.61 503.351 1041.2 509.632 1037.18 509.632 1033.22 509.632 1029.49 503.351 1032.87 503.069ZM1026.31 514.219C1030.05 514.219 1036.05 519.935 1030.9 520.218 1025.75 520.5 1020.59 514.219 1026.31 514.219ZM982.635 569.689C978.895 570.747 978.684 573.006 981.577 576.534 984.469 580.063 987.292 576.111 987.997 572.794 988.632 569.477 985.951 567.924 982.635 569.689ZM1002.25 529.815C1003.66 529.11 1004.72 529.745 1004.44 531.086 1004.23 532.497 1003.03 534.12 1001.83 532.638 1000.63 531.156 1000.77 530.31 1002.25 529.815ZM965.772 507.656C970.358 507.374 970.076 500.175 970.076 496.223 970.076 492.201 976.355 491.072 977.767 498.482 979.248 505.892 991.525 521.347 996.041 525.017 1000.63 528.757 999.78 539.907 997.24 547.317 994.63 554.727 987.221 570.183 980.659 566.725 974.098 563.337 970.076 565.878 966.407 560.444 962.667 555.01 961.256 546.188 959.492 549.011 957.799 551.905 961.821 553.598 953.495 548.446 945.24 543.295 940.371 546.188 937.549 546.753 934.656 547.317 927.812 544.212 926.683 548.446 925.554 552.751 921.25 553.034 917.581 552.751 913.841 552.469 910.949 555.927 908.409 554.163 905.868 552.469 910.384 549.646 907.562 543.012 904.669 536.449 904.951 529.321 902.976 525.934 901 522.476 903.54 515.066 910.666 514.784 917.863 514.501 922.097 513.09 922.097 510.479 922.097 507.938 920.686 505.892 927.247 505.892 933.809 505.892 926.965 497.917 933.527 497.917 940.089 497.917 938.113 503.916 940.936 502.786 943.828 501.657 941.5 496.223 945.24 496.223 948.979 496.223 947.85 491.072 951.237 492.765 954.694 494.459 956.67 497.07 957.799 501.657 958.928 506.174 959.21 507.091 965.772 507.656M929.435 484.72C930.846 483.944 931.904 484.579 931.622 485.99 931.41 487.331 930.211 488.954 929.011 487.543 927.812 486.061 927.953 485.143 929.435 484.72ZM1018.41 489.519C1020.45 489.519 1025.53 494.318 1021.79 494.318 1018.05 494.318 1013.96 489.519 1018.41 489.519ZM1007.82 482.391C1011.56 481.756 1020.67 486.343 1016.22 486.837 1011.7 487.331 1002.25 483.803 1007.82 482.391ZM995.759 471.241C997.946 471.241 1006.13 477.592 1001.9 477.592 997.593 477.592 991.243 470.747 995.759 471.241ZM960.409 468.7C956.105 469.053 963.161 480.415 967.112 484.508 970.146 488.601 973.463 484.085 976.214 483.379 978.966 482.603 980.307 485.073 985.81 485.99 991.243 486.908 982.635 478.933 983.058 475.546 983.411 472.229 977.202 470.535 974.098 470.888 970.922 471.241 963.726 468.277 960.409 468.7ZM1045.29 570.818 1045.29 580.063 1045.15 580.204C1041.76 583.874 1033.51 587.332 1032.31 592.131 1031.18 597 1030.05 587.614 1029.2 585.003 1028.36 582.462 1032.31 579.569 1037.46 578.44 1042.61 577.31 1037.46 571.594 1044.58 570.747 1044.87 570.747 1045.08 570.747 1045.29 570.818ZM1045.29 552.116 1045.29 561.149C1043.6 556.986 1041.34 552.61 1044.3 552.187 1044.66 552.116 1045.01 552.046 1045.29 552.116ZM949.614 469.053C951.66 469.053 956.67 473.852 952.93 473.852 949.191 473.852 945.098 469.053 949.614 469.053ZM1060.53 503.563C1061.87 502.857 1063 503.492 1062.72 504.833 1062.44 506.174 1061.24 507.797 1060.11 506.386 1058.91 504.904 1058.98 503.986 1060.53 503.563ZM1054.82 505.539C1056.16 504.833 1057.28 505.468 1057 506.809 1056.72 508.22 1055.52 509.844 1054.39 508.362 1053.19 506.95 1053.26 506.033 1054.82 505.539ZM1045.29 561.149C1045.85 562.631 1046.42 564.043 1046.63 565.313 1047.48 570.183 1048.32 571.594 1051.78 572.723 1055.17 573.923 1058.06 564.466 1053.19 562.49 1048.61 560.585 1049.59 552.187 1045.29 552.116L1045.29 561.149ZM1045.29 580.063 1045.29 570.818C1048.54 571.382 1048.39 576.605 1045.29 580.063Z" fill="#FFC000" fill-rule="evenodd" fill-opacity="0.6"/><g clip-path="url(#clip7)" filter="url(#fx0)" transform="translate(316 211)"><g clip-path="url(#clip8)"><path d="M99.2985 23.4982C120.29 44.4902 120.29 78.525 99.2984 99.517 84.91 113.905 72.2402 130.012 61.2889 147.838 50.3376 130.012 37.6678 113.905 23.2796 99.5172 2.28758 78.5252 2.28766 44.4905 23.2797 23.4984 44.2718 2.50634 78.3065 2.50628 99.2985 23.4982Z" fill="#F2F2F2" fill-rule="evenodd"/></g></g><path d="M414.553 235.563C435.134 256.143 435.134 289.511 414.553 310.091 400.447 324.197 388.025 339.988 377.289 357.464 366.552 339.988 354.131 324.197 340.025 310.091 319.444 289.511 319.445 256.143 340.025 235.563 360.605 214.983 393.973 214.983 414.553 235.563Z" fill="#F2F2F2" fill-rule="evenodd"/><text fill="#404040" font-family="Segoe UI,Segoe UI_MSFontService,sans-serif" font-weight="600" font-size="16" transform="translate(355.562 292)"><tspan x="0" y="0">North </tspan><tspan font-size="16" x="-7.94" y="19">America</tspan></text><path d="M330 273C330 247.043 351.043 226 377 226 402.775 226 423.742 246.759 423.998 272.533L409.795 272.674C409.615 254.562 394.786 240.025 376.674 240.205 358.689 240.384 344.203 255.014 344.203 273Z" fill="#ED7D31" fill-rule="evenodd"/><text fill="#404040" font-family="Segoe UI,Segoe UI_MSFontService,sans-serif" font-weight="600" font-size="19" transform="translate(359.895 271)"><tspan x="0" y="0">60%</tspan></text><g clip-path="url(#clip9)" filter="url(#fx1)" transform="translate(622 181)"><g clip-path="url(#clip10)"><path d="M99.2689 23.5246C120.261 44.5166 120.261 78.5513 99.2687 99.5434 84.8804 113.932 72.2105 130.039 61.2592 147.864 50.308 130.039 37.6382 113.932 23.2499 99.5435 2.25795 78.5516 2.25803 44.5168 23.2501 23.5247 44.2421 2.53268 78.2769 2.53261 99.2689 23.5246Z" fill="#F2F2F2" fill-rule="evenodd"/></g></g><path d="M720.524 205.589C741.104 226.17 741.104 259.537 720.523 280.117 706.417 294.224 693.996 310.015 683.259 327.491 672.523 310.015 660.101 294.224 645.995 280.118 625.415 259.537 625.415 226.17 645.995 205.589 666.576 185.009 699.943 185.009 720.524 205.589Z" fill="#F2F2F2" fill-rule="evenodd"/><text fill="#404040" font-family="Segoe UI,Segoe UI_MSFontService,sans-serif" font-weight="600" font-size="16" transform="translate(657.663 271)"><tspan x="0" y="0">Europe</tspan></text><path d="M636 243C636 217.043 657.043 196 683 196 708.775 196 729.742 216.759 729.998 242.533L715.795 242.674C715.615 224.562 700.786 210.025 682.674 210.205 664.689 210.384 650.203 225.014 650.203 243Z" fill="#70AD47" fill-rule="evenodd"/><text fill="#404040" font-family="Segoe UI,Segoe UI_MSFontService,sans-serif" font-weight="600" font-size="19" transform="translate(665.866 241)"><tspan x="0" y="0">60%</tspan></text><g clip-path="url(#clip11)" filter="url(#fx2)" transform="translate(806 220)"><g clip-path="url(#clip12)"><path d="M99.6119 23.9501C120.604 44.9421 120.604 78.9768 99.6117 99.9689 85.2234 114.357 72.5536 130.464 61.6022 148.29 50.651 130.464 37.9812 114.357 23.5929 99.969 2.60097 78.9771 2.60104 44.9423 23.5931 23.9502 44.5851 2.95819 78.6199 2.95812 99.6119 23.9501Z" fill="#F2F2F2" fill-rule="evenodd"/></g></g><path d="M904.867 245.015C925.447 265.595 925.447 298.963 904.866 319.543 890.76 333.649 878.339 349.44 867.602 366.916 856.866 349.44 844.444 333.649 830.338 319.543 809.758 298.963 809.758 265.595 830.338 245.015 850.919 224.434 884.286 224.434 904.867 245.015Z" fill="#F2F2F2" fill-rule="evenodd"/><text fill="#404040" font-family="Segoe UI,Segoe UI_MSFontService,sans-serif" font-weight="600" font-size="16" transform="translate(852.602 311)"><tspan x="0" y="0">Asia</tspan></text><path d="M821 282C821 256.043 841.819 235 867.5 235 893.003 235 913.747 255.762 913.998 281.538L899.946 281.678C899.771 263.482 885.102 248.876 867.182 249.054 849.387 249.231 835.052 263.929 835.052 282Z" fill="#5B9BD5" fill-rule="evenodd"/><text fill="#404040" font-family="Segoe UI,Segoe UI_MSFontService,sans-serif" font-weight="600" font-size="19" transform="translate(850.209 280)"><tspan x="0" y="0">60%</tspan></text><g clip-path="url(#clip13)" filter="url(#fx3)" transform="translate(909 384)"><g clip-path="url(#clip14)"><path d="M100.145 23.6814C121.137 44.6734 121.137 78.7082 100.145 99.7002 85.7567 114.089 73.0869 130.195 62.1356 148.021 51.1843 130.196 38.5146 114.089 24.1263 99.7004 3.13429 78.7084 3.13437 44.6736 24.1264 23.6816 45.1185 2.68954 79.1532 2.68947 100.145 23.6814Z" fill="#F2F2F2" fill-rule="evenodd"/></g></g><path d="M1008.4 408.746C1028.98 429.326 1028.98 462.694 1008.4 483.274 994.294 497.381 981.872 513.172 971.136 530.648 960.399 513.172 947.978 497.381 933.872 483.274 913.291 462.694 913.291 429.327 933.872 408.746 954.452 388.166 987.82 388.166 1008.4 408.746Z" fill="#F2F2F2" fill-rule="evenodd"/><text fill="#404040" font-family="Segoe UI,Segoe UI_MSFontService,sans-serif" font-weight="600" font-size="16" transform="translate(939.302 475)"><tspan x="0" y="0">Australia</tspan></text><path d="M924 446C924 420.043 945.043 399 971 399 996.775 399 1017.74 419.759 1018 445.533L1003.79 445.674C1003.61 427.562 988.786 413.025 970.674 413.205 952.689 413.384 938.203 428.014 938.203 446Z" fill="#FFC000" fill-rule="evenodd"/><text fill="#404040" font-family="Segoe UI,Segoe UI_MSFontService,sans-serif" font-weight="600" font-size="19" transform="translate(953.742 444)"><tspan x="0" y="0">60%</tspan></text><g clip-path="url(#clip15)" filter="url(#fx4)" transform="translate(618 373)"><g clip-path="url(#clip16)"><path d="M99.3518 24.1007C120.344 45.0926 120.344 79.1274 99.3516 100.119 84.9633 114.508 72.2934 130.615 61.3421 148.44 50.3909 130.615 37.7211 114.508 23.3328 100.12 2.34084 79.1276 2.34091 45.0929 23.333 24.1008 44.325 3.10876 78.3598 3.10869 99.3518 24.1007Z" fill="#F2F2F2" fill-rule="evenodd"/></g></g><path d="M716.606 398.165C737.187 418.746 737.187 452.113 716.606 472.694 702.5 486.8 690.079 502.591 679.342 520.067 668.606 502.591 656.184 486.8 642.078 472.694 621.498 452.113 621.498 418.746 642.078 398.165 662.659 377.585 696.026 377.585 716.606 398.165Z" fill="#F2F2F2" fill-rule="evenodd"/><text fill="#404040" font-family="Segoe UI,Segoe UI_MSFontService,sans-serif" font-weight="600" font-size="16" transform="translate(658.259 464)"><tspan x="0" y="0">Africa</tspan></text><path d="M633 435.5C633 409.819 653.819 389 679.5 389 705.001 389 725.744 409.538 725.998 435.038L711.946 435.178C711.768 417.258 697.097 402.876 679.178 403.054 661.384 403.231 647.052 417.705 647.052 435.5Z" fill="#4472C4" fill-rule="evenodd"/><text fill="#404040" font-family="Segoe UI,Segoe UI_MSFontService,sans-serif" font-weight="600" font-size="19" transform="translate(661.948 433)"><tspan x="0" y="0">60%</tspan></text><g clip-path="url(#clip17)" filter="url(#fx5)" transform="translate(422 383)"><g clip-path="url(#clip18)"><path d="M99.9586 23.3502C120.951 44.3422 120.95 78.377 99.9584 99.369 85.5701 113.757 72.9002 129.864 61.9489 147.69 50.9977 129.864 38.3279 113.757 23.9396 99.3692 2.94765 78.3772 2.94772 44.3424 23.9398 23.3504 44.9318 2.3583 78.9666 2.35823 99.9586 23.3502Z" fill="#F2F2F2" fill-rule="evenodd"/></g></g><path d="M521.213 407.415C541.794 427.995 541.794 461.363 521.213 481.943 507.107 496.049 494.685 511.84 483.949 529.316 473.212 511.84 460.791 496.049 446.685 481.943 426.104 461.363 426.105 427.995 446.685 407.415 467.265 386.835 500.633 386.835 521.213 407.415Z" fill="#F2F2F2" fill-rule="evenodd"/><text fill="#404040" font-family="Segoe UI,Segoe UI_MSFontService,sans-serif" font-weight="600" font-size="16" transform="translate(462.616 464)"><tspan x="0" y="0">South </tspan><tspan font-size="16" x="-8.33334" y="19">America</tspan></text><path d="M437 445C437 419.043 458.043 398 484 398 509.775 398 530.742 418.759 530.998 444.533L516.795 444.674C516.615 426.562 501.786 412.025 483.674 412.205 465.689 412.384 451.203 427.014 451.203 445Z" fill="#A5A5A5" fill-rule="evenodd"/><text fill="#404040" font-family="Segoe UI,Segoe UI_MSFontService,sans-serif" font-weight="600" font-size="19" transform="translate(466.555 443)"><tspan x="0" y="0">60%</tspan></text></g></svg>