<!--PureVizConfig>[{"vid":"57","visualtype":"path","propertyType":"shapetransform","mappingOption":"custom","mappedValue":["0","0","0","{math|65|}","{math|65|}","50","50"]},{"vid":"42","visualtype":"path","propertyType":"shapetransform","mappingOption":"custom","mappedValue":["0","0","0","{math|68|}","{math|68|}","50","50"]},{"vid":"36","visualtype":"path","propertyType":"shapetransform","mappingOption":"custom","mappedValue":["0","0","0","80","80","50","50"]},{"vid":"48","visualtype":"path","propertyType":"shapetransform","mappingOption":"custom","mappedValue":["0","0","0","90","90","50","50"]},{"vid":"36","visualtype":"path","propertyType":"shapefill","mappingOption":"custom","mappedValue":["{if|math|[Eficiency %]|>|math|50|text|rgba(126, 201, 119, 1)||text|rgba(193, 193, 193, 1)}"]},{"vid":"54","visualtype":"path","propertyType":"shapefill","mappingOption":"custom","mappedValue":["{if|math|65|<|math|50|text|rgba(225, 75, 75, 1)||text|rgba(121, 189, 108, 1)}"]},{"vid":"56","visualtype":"tspan","propertyType":"textcontent","mappingOption":"custom","mappedValue":["{math|4|0;}"]},{"vid":"33","visualtype":"path","propertyType":"shapetransform","mappingOption":"custom","mappedValue":["0","0","0","40","40","50","50"]},{"vid":"45","visualtype":"path","propertyType":"shapetransformani","mappingOption":"custom","mappedValue":["0","0","0","0","0","0","80","100","1","0","ease-in-out","alternate","50","50","0","80","100","100","100"]}]</PureVizConfig--><svg viewBox="0 0 748 583" width="748" height="583" xmlns="http://www.w3.org/2000/svg" xmlns:xlink="http://www.w3.org/1999/xlink" overflow="hidden"><defs><clipPath id="clip0"><rect x="269" y="103" width="748" height="583"/></clipPath></defs><g clip-path="url(#clip0)" transform="translate(-269 -103)"><rect x="270" y="104" width="746" height="581" fill="#FFFFFF"/><text font-family="Segoe UI,Segoe UI_MSFontService,sans-serif" font-weight="700" font-size="16" transform="matrix(-1.83697e-16 -1 1 -1.83697e-16 352.446 442)"><tspan x="0" y="0">CUSTOMER SEGMENTS</tspan></text><rect x="394.5" y="166.5" width="173" height="128" stroke="#000000" stroke-width="2.66667" stroke-miterlimit="8" stroke-opacity="0.6" fill="#FFFFFF"/><rect x="567.5" y="166.5" width="173" height="128" stroke="#000000" stroke-width="2.66667" stroke-miterlimit="8" stroke-opacity="0.6" fill="#FFFFFF"/><rect x="740.5" y="166.5" width="173" height="128" stroke="#000000" stroke-width="2.66667" stroke-miterlimit="8" stroke-opacity="0.6" fill="#FFFFFF"/><rect x="394.5" y="294.5" width="173" height="128" stroke="#000000" stroke-width="2.66667" stroke-miterlimit="8" stroke-opacity="0.6" fill="#FFFFFF"/><rect x="567.5" y="294.5" width="173" height="128" stroke="#000000" stroke-width="2.66667" stroke-miterlimit="8" stroke-opacity="0.6" fill="#FFFFFF"/><rect x="740.5" y="294.5" width="173" height="128" stroke="#000000" stroke-width="2.66667" stroke-miterlimit="8" stroke-opacity="0.6" fill="#FFFFFF"/><rect x="394.5" y="422.5" width="173" height="128" stroke="#000000" stroke-width="2.66667" stroke-miterlimit="8" stroke-opacity="0.6" fill="#FFFFFF"/><rect x="567.5" y="422.5" width="173" height="128" stroke="#000000" stroke-width="2.66667" stroke-miterlimit="8" stroke-opacity="0.6" fill="#FFFFFF"/><rect x="740.5" y="422.5" width="173" height="128" stroke="#000000" stroke-width="2.66667" stroke-miterlimit="8" stroke-opacity="0.6" fill="#FFFFFF"/><text font-family="Segoe UI,Segoe UI_MSFontService,sans-serif" font-weight="600" font-size="15" transform="translate(794.503 574)"><tspan x="0" y="0">OUTLOOK</tspan><tspan font-size="15" x="-173.25" y="0">THIS YEAR</tspan><tspan font-size="15" x="-350.078" y="0">LAST YEAR</tspan></text><text font-family="Segoe UI,Segoe UI_MSFontService,sans-serif" font-weight="600" font-size="15" transform="matrix(-1.83697e-16 -1 1 -1.83697e-16 383.274 253)"><tspan x="0" y="0">HIGH</tspan><tspan font-size="15" x="-118" y="6.10352e-05">MED</tspan><tspan font-size="15" x="-249" y="6.10352e-05">LOW</tspan></text><text font-family="Segoe UI,Segoe UI_MSFontService,sans-serif" font-weight="700" font-size="16" transform="translate(575.483 604)"><tspan x="0" y="0">CORRELATION PERIOD</tspan></text><path d="M483 643.5C483 638.253 487.253 634 492.5 634 497.747 634 502 638.253 502 643.5 502 648.747 497.747 653 492.5 653 487.253 653 483 648.747 483 643.5Z" fill="#FE0000" fill-rule="evenodd" fill-opacity="0.701961"/><path d="M714 643.5C714 638.253 718.253 634 723.5 634 728.747 634 733 638.253 733 643.5 733 648.747 728.747 653 723.5 653 718.253 653 714 648.747 714 643.5Z" fill="#00AD53" fill-rule="evenodd" fill-opacity="0.701961"/><path d="M594 643.5C594 638.253 598.477 634 604 634 609.523 634 614 638.253 614 643.5 614 648.747 609.523 653 604 653 598.477 653 594 648.747 594 643.5Z" fill="#BFBFBF" fill-rule="evenodd" fill-opacity="0.921569"/><text font-family="Segoe UI,Segoe UI_MSFontService,sans-serif" font-weight="400" font-size="15" transform="translate(509.329 648)"><tspan x="0" y="0">NEGATIVE</tspan><tspan font-size="15" x="110.716" y="0">NETURAL</tspan><tspan font-size="15" x="234.529" y="0">POSITIVE</tspan></text><path d="M776.5 485.5C776.5 460.647 796.647 440.5 821.5 440.5 846.353 440.5 866.5 460.647 866.5 485.5 866.5 510.353 846.353 530.5 821.5 530.5 796.647 530.5 776.5 510.353 776.5 485.5Z" stroke="#000000" stroke-width="1.33333" stroke-miterlimit="8" fill="#C4C4C4" fill-rule="evenodd" fill-opacity="0.701961"/><text fill="#FFFFFF" font-family="Agency FB,Agency FB_MSFontService,sans-serif" font-weight="400" font-stretch="condensed" font-size="24" transform="translate(815.631 495)"><tspan x="0" y="0">0</tspan></text><path d="M607.5 483.5C607.5 458.647 627.423 438.5 652 438.5 676.577 438.5 696.5 458.647 696.5 483.5 696.5 508.353 676.577 528.5 652 528.5 627.423 528.5 607.5 508.353 607.5 483.5Z" stroke="#000000" stroke-width="1.33333" stroke-miterlimit="8" fill="#00B050" fill-rule="evenodd" fill-opacity="0.701961"/><text fill="#FFFFFF" font-family="Agency FB,Agency FB_MSFontService,sans-serif" font-weight="400" font-stretch="condensed" font-size="24" transform="translate(646.871 493)"><tspan x="0" y="0">2</tspan></text><path d="M433.5 483.5C433.5 458.647 453.647 438.5 478.5 438.5 503.353 438.5 523.5 458.647 523.5 483.5 523.5 508.353 503.353 528.5 478.5 528.5 453.647 528.5 433.5 508.353 433.5 483.5Z" stroke="#000000" stroke-width="1.33333" stroke-miterlimit="8" fill="#FE0000" fill-rule="evenodd" fill-opacity="0.701961"/><text fill="#FFFFFF" font-family="Agency FB,Agency FB_MSFontService,sans-serif" font-weight="400" font-stretch="condensed" font-size="24" transform="translate(469.911 493)"><tspan x="0" y="0">-4</tspan></text><path d="M780.5 358C780.5 333.423 800.423 313.5 825 313.5 849.577 313.5 869.5 333.423 869.5 358 869.5 382.577 849.577 402.5 825 402.5 800.423 402.5 780.5 382.577 780.5 358Z" stroke="#000000" stroke-width="1.33333" stroke-miterlimit="8" fill="#FE0000" fill-rule="evenodd" fill-opacity="0.701961"/><text fill="#FFFFFF" font-family="Agency FB,Agency FB_MSFontService,sans-serif" font-weight="400" font-stretch="condensed" font-size="24" transform="translate(816.41 367)"><tspan x="0" y="0">-2</tspan></text><path d="M607.5 356.5C607.5 331.647 627.423 311.5 652 311.5 676.577 311.5 696.5 331.647 696.5 356.5 696.5 381.353 676.577 401.5 652 401.5 627.423 401.5 607.5 381.353 607.5 356.5Z" stroke="#000000" stroke-width="1.33333" stroke-miterlimit="8" fill="#BFBFBF" fill-rule="evenodd" fill-opacity="0.701961"/><text fill="#FFFFFF" font-family="Agency FB,Agency FB_MSFontService,sans-serif" font-weight="400" font-stretch="condensed" font-size="24" transform="translate(646.288 366)"><tspan x="0" y="0">0</tspan></text><path d="M433.5 359.5C433.5 334.647 453.647 314.5 478.5 314.5 503.353 314.5 523.5 334.647 523.5 359.5 523.5 384.353 503.353 404.5 478.5 404.5 453.647 404.5 433.5 384.353 433.5 359.5Z" stroke="#000000" stroke-width="1.33333" stroke-miterlimit="8" fill="#14B65E" fill-rule="evenodd" fill-opacity="0.701961"/><text fill="#FFFFFF" font-family="Agency FB,Agency FB_MSFontService,sans-serif" font-weight="400" font-stretch="condensed" font-size="24" transform="translate(473.662 369)"><tspan x="0" y="0">7</tspan></text><path d="M783.5 230.5C783.5 205.647 803.647 185.5 828.5 185.5 853.353 185.5 873.5 205.647 873.5 230.5 873.5 255.353 853.353 275.5 828.5 275.5 803.647 275.5 783.5 255.353 783.5 230.5Z" stroke="#000000" stroke-width="1.33333" stroke-miterlimit="8" fill="#14B65E" fill-rule="evenodd" fill-opacity="0.701961"/><text fill="#FFFFFF" font-family="Agency FB,Agency FB_MSFontService,sans-serif" font-weight="400" font-stretch="condensed" font-size="24" transform="translate(822.679 239)"><tspan x="0" y="0">5</tspan></text><path d="M607.5 230.5C607.5 205.647 627.423 185.5 652 185.5 676.577 185.5 696.5 205.647 696.5 230.5 696.5 255.353 676.577 275.5 652 275.5 627.423 275.5 607.5 255.353 607.5 230.5Z" stroke="#000000" stroke-width="1.33333" stroke-miterlimit="8" fill="#FE1414" fill-rule="evenodd" fill-opacity="0.701961"/><text fill="#FFFFFF" font-family="Agency FB,Agency FB_MSFontService,sans-serif" font-weight="400" font-stretch="condensed" font-size="24" transform="translate(643.121 239)"><tspan x="0" y="0">-5</tspan></text><path d="M433.5 230.5C433.5 205.647 453.647 185.5 478.5 185.5 503.353 185.5 523.5 205.647 523.5 230.5 523.5 255.353 503.353 275.5 478.5 275.5 453.647 275.5 433.5 255.353 433.5 230.5Z" stroke="#000000" stroke-width="1.33333" stroke-miterlimit="8" fill="#FE0000" fill-rule="evenodd" fill-opacity="0.701961"/><text fill="#FFFFFF" font-family="Agency FB,Agency FB_MSFontService,sans-serif" font-weight="400" font-stretch="condensed" font-size="24" transform="translate(469.411 240)"><tspan x="0" y="0">-3</tspan></text></g></svg>