<!--PureVizConfig>[{"vid":"52","visualtype":"path","propertyType":"shapecolorani","mappingOption":"custom","mappedValue":["rgba(127, 127, 127, 1)","rgba(36, 36, 112, 1)","0.5","0","alternate","linear",null,"0"]},{"vid":"118","visualtype":"path","propertyType":"shapecolorani","mappingOption":"custom","mappedValue":["rgba(216, 216, 216, 1)","rgba(186, 50, 21, 1)","1","0","alternate","linear",null,"0"]},{"vid":"42","visualtype":"path","propertyType":"shapefill","mappingOption":"specialfill","mappedValue":[null,"rgba(121, 173, 108, 1)","#222222",null,"rgba(227, 227, 227, 1)","0",null,null,null,null,"{math|54|}","lr"]},{"vid":"83","visualtype":"tspan","propertyType":"textcontent","mappingOption":"custom","mappedValue":["%{math|54|0;,}"]},{"vid":"47","visualtype":"path","propertyType":"shapefill","mappingOption":"specialfill","mappedValue":[null,"rgba(121, 173, 108, 1)","#222222",null,"rgba(227, 227, 227, 1)","0",null,null,null,null,"{math|97|}","lr"]},{"vid":"91","visualtype":"tspan","propertyType":"textcontent","mappingOption":"custom","mappedValue":["%{math|97|0;}"]},{"vid":"99","visualtype":"tspan","propertyType":"textcontent","mappingOption":"custom","mappedValue":[""]},{"vid":"99","visualtype":"tspan","propertyType":"numbercountup","mappingOption":"custom","mappedValue":["{math|151|}","0","1","0","%",""]},{"vid":"94","visualtype":"tspan","propertyType":"numbercountup","mappingOption":"custom2","mappedValue":[null,null,"1",null,"","","A+B Segments"]},{"vid":"118","visualtype":"path","propertyType":"actionhover","mappingOption":"custom","mappedValue":["Missing Data"]}]</PureVizConfig--><svg viewBox="0 0 836 251" width="836" height="251" xmlns="http://www.w3.org/2000/svg" xmlns:xlink="http://www.w3.org/1999/xlink" overflow="hidden"><defs><clipPath id="clip0"><rect x="222" y="226" width="836" height="251"/></clipPath><clipPath id="clip1"><rect x="227" y="220" width="202" height="180"/></clipPath><clipPath id="clip2"><rect x="227" y="265" width="202" height="180"/></clipPath><clipPath id="clip3"><rect x="227" y="309" width="202" height="181"/></clipPath><clipPath id="clip4"><rect x="227" y="354" width="202" height="180"/></clipPath><clipPath id="clip5"><rect x="455" y="240" width="41" height="40"/></clipPath><clipPath id="clip6"><rect x="455" y="240" width="41" height="40"/></clipPath><clipPath id="clip7"><rect x="455" y="240" width="41" height="40"/></clipPath><clipPath id="clip8"><rect x="770" y="241" width="37" height="37"/></clipPath><clipPath id="clip9"><rect x="770" y="241" width="37" height="37"/></clipPath><clipPath id="clip10"><rect x="770" y="241" width="37" height="37"/></clipPath><clipPath id="clip11"><rect x="388" y="337" width="32" height="32"/></clipPath><clipPath id="clip12"><rect x="388" y="337" width="32" height="32"/></clipPath><clipPath id="clip13"><rect x="388" y="337" width="32" height="32"/></clipPath></defs><g clip-path="url(#clip0)" transform="translate(-222 -226)"><rect x="222" y="227" width="836" height="249" fill="#FFFFFF"/><path d="M428.43 235.902 739.05 235.902 739.05 287.477 428.43 287.477Z" fill="#2E75B6" fill-rule="evenodd"/><path d="M739.05 235.902 1049.67 235.902 1049.67 287.477 739.05 287.477Z" fill="#BF9000" fill-rule="evenodd"/><path d="M227.662 287.477 428.43 287.477 428.43 332.211 227.662 332.211Z" fill="#2F5597" fill-rule="evenodd"/><path d="M428.43 287.477 583.74 287.477 583.74 332.211 428.43 332.211Z" fill="#2E75B6" fill-rule="evenodd"/><path d="M583.74 287.477 739.05 287.477 739.05 332.211 583.74 332.211Z" fill="#2E75B6" fill-rule="evenodd"/><path d="M739.05 287.477 894.361 287.477 894.361 332.211 739.05 332.211Z" fill="#BF9000" fill-rule="evenodd"/><path d="M894.361 287.477 1049.67 287.477 1049.67 332.211 894.361 332.211Z" fill="#BF9000" fill-rule="evenodd"/><path d="M227.662 332.211 428.43 332.211 428.43 377.079 227.662 377.079Z" fill="#F2F2F2" fill-rule="evenodd"/><path d="M428.43 332.211 583.74 332.211 583.74 377.079 428.43 377.079Z" fill="#F2F2F2" fill-rule="evenodd"/><path d="M583.74 332.211 739.05 332.211 739.05 377.079 583.74 377.079Z" fill="#F2F2F2" fill-rule="evenodd"/><path d="M739.05 332.211 894.361 332.211 894.361 377.079 739.05 377.079Z" fill="#F2F2F2" fill-rule="evenodd"/><path d="M894.361 332.211 1049.67 332.211 1049.67 377.079 894.361 377.079Z" fill="#F2F2F2" fill-rule="evenodd"/><path d="M227.662 377.079 428.43 377.079 428.43 421.947 227.662 421.947Z" fill="#D9D9D9" fill-rule="evenodd"/><path d="M428.43 377.079 583.74 377.079 583.74 421.947 428.43 421.947Z" fill="#D9D9D9" fill-rule="evenodd"/><path d="M583.74 377.079 739.05 377.079 739.05 421.947 583.74 421.947Z" fill="#D9D9D9" fill-rule="evenodd"/><path d="M739.05 377.079 894.361 377.079 894.361 421.947 739.05 421.947Z" fill="#D9D9D9" fill-rule="evenodd"/><path d="M894.361 377.079 1049.67 377.079 1049.67 421.947 894.361 421.947Z" fill="#D9D9D9" fill-rule="evenodd"/><path d="M227.662 421.947 428.43 421.947 428.43 466.814 227.662 466.814Z" fill="#767171" fill-rule="evenodd"/><path d="M428.43 421.947 583.74 421.947 583.74 466.814 428.43 466.814Z" fill="#767171" fill-rule="evenodd"/><path d="M583.74 421.947 739.05 421.947 739.05 466.814 583.74 466.814Z" fill="#767171" fill-rule="evenodd"/><path d="M739.05 421.947 894.361 421.947 894.361 466.814 739.05 466.814Z" fill="#767171" fill-rule="evenodd"/><path d="M894.361 421.947 1049.67 421.947 1049.67 466.814 894.361 466.814Z" fill="#767171" fill-rule="evenodd"/><path d="M428.43 234.402 428.43 468.314" stroke="#FFFFFF" stroke-width="3" stroke-linejoin="round" stroke-miterlimit="10" fill="none" fill-rule="evenodd"/><path d="M583.74 285.977 583.74 468.314" stroke="#FFFFFF" stroke-width="3" stroke-linejoin="round" stroke-miterlimit="10" fill="none" fill-rule="evenodd"/><path d="M739.05 234.402 739.05 468.314" stroke="#FFFFFF" stroke-width="3" stroke-linejoin="round" stroke-miterlimit="10" fill="none" fill-rule="evenodd"/><path d="M894.361 285.977 894.361 468.314" stroke="#FFFFFF" stroke-width="3" stroke-linejoin="round" stroke-miterlimit="10" fill="none" fill-rule="evenodd"/><path d="M226.163 287.477 1051.17 287.477" stroke="#FFFFFF" stroke-width="3" stroke-linejoin="round" stroke-miterlimit="10" fill="none" fill-rule="evenodd"/><path d="M226.163 332.211 1051.17 332.211" stroke="#FFFFFF" stroke-width="3" stroke-linejoin="round" stroke-miterlimit="10" fill="none" fill-rule="evenodd"/><path d="M226.163 377.079 1051.17 377.079" stroke="#FFFFFF" stroke-width="3" stroke-linejoin="round" stroke-miterlimit="10" fill="none" fill-rule="evenodd"/><path d="M226.163 421.947 1051.17 421.947" stroke="#FFFFFF" stroke-width="3" stroke-linejoin="round" stroke-miterlimit="10" fill="none" fill-rule="evenodd"/><path d="M227.662 285.977 227.662 468.314" stroke="#FFFFFF" stroke-width="3" stroke-linejoin="round" stroke-miterlimit="10" fill="none" fill-rule="evenodd"/><path d="M1049.67 234.402 1049.67 468.314" stroke="#FFFFFF" stroke-width="3" stroke-linejoin="round" stroke-miterlimit="10" fill="none" fill-rule="evenodd"/><path d="M426.93 235.902 1051.17 235.902" stroke="#FFFFFF" stroke-width="3" stroke-linejoin="round" stroke-miterlimit="10" fill="none" fill-rule="evenodd"/><path d="M226.163 466.814 1051.17 466.814" stroke="#FFFFFF" stroke-width="3" stroke-linejoin="round" stroke-miterlimit="10" fill="none" fill-rule="evenodd"/><text fill="#FFFFFF" font-family="Segoe UI,Segoe UI_MSFontService,sans-serif" font-weight="600" font-size="21" transform="translate(559.323 270)"><tspan x="0" y="0">Sales</tspan><tspan font-size="21" x="289.377" y="0">Attainment</tspan></text><g clip-path="url(#clip1)"><text fill="#FFFFFF" font-family="Segoe UI,Segoe UI_MSFontService,sans-serif" font-weight="600" font-size="21" transform="translate(237.262 318)"><tspan x="0" y="0">Segment</tspan></text></g><text fill="#FFFFFF" font-family="Segoe UI,Segoe UI_MSFontService,sans-serif" font-weight="600" font-size="21" transform="translate(484.002 318)"><tspan x="0" y="0">2019</tspan><tspan font-size="21" x="153.727" y="0">2020</tspan><tspan font-size="21" x="297.704" y="0">Budget</tspan><tspan font-size="21" x="439.691" y="0">% Current</tspan></text><g clip-path="url(#clip2)"><text font-family="Segoe UI,Segoe UI_MSFontService,sans-serif" font-weight="400" font-size="21" transform="translate(237.262 363)"><tspan x="0" y="0">A Segment</tspan></text></g><text font-family="Segoe UI,Segoe UI_MSFontService,sans-serif" font-weight="400" font-size="21" transform="translate(494.585 363)"><tspan x="0" y="0">15</tspan><tspan font-size="21" x="155.31" y="0">32</tspan><tspan font-size="21" x="310.62" y="0">40</tspan><tspan font-size="21" x="457.181" y="0">%80</tspan></text><g clip-path="url(#clip3)"><text font-family="Segoe UI,Segoe UI_MSFontService,sans-serif" font-weight="400" font-size="21" transform="translate(237.262 408)"><tspan x="0" y="0">B Segment</tspan></text></g><text font-family="Segoe UI,Segoe UI_MSFontService,sans-serif" font-weight="400" font-size="21" transform="translate(494.585 408)"><tspan x="0" y="0">12</tspan><tspan font-size="21" x="155.31" y="0">21</tspan><tspan font-size="21" x="310.62" y="0">22</tspan><tspan font-size="21" x="457.181" y="0">%97</tspan></text><g clip-path="url(#clip4)"><text fill="#FFFFFF" font-family="Segoe UI,Segoe UI_MSFontService,sans-serif" font-weight="400" font-size="21" transform="translate(237.262 453)"><tspan x="0" y="0">A+B Segments</tspan></text></g><text fill="#FFFFFF" font-family="Segoe UI,Segoe UI_MSFontService,sans-serif" font-weight="400" font-size="21" transform="translate(494.585 453)"><tspan x="0" y="0">27</tspan><tspan font-size="21" x="155.31" y="0">53</tspan><tspan font-size="21" x="310.62" y="0">62</tspan><tspan font-size="21" x="457.181" y="0">%88</tspan></text><g clip-path="url(#clip5)"><g clip-path="url(#clip6)"><g clip-path="url(#clip7)"><path d="M33.5508 12.0737 34.2083 15.4167 35.0575 15.4167 34.2083 11.0938 12.5 15.4092C12.4771 15.4137 12.4775 15.4171 12.5 15.4171L16.7337 15.4171Z" stroke="#F2F2F2" stroke-width="0.416692" fill="#FFFFFF" transform="matrix(1.025 0 0 1 455 240)"/><path d="M28.6062 7.54458 29.8617 10.6833 30.695 10.5167 29.07 6.45417 7.17 15.4092C7.15917 15.4137 7.16 15.4171 7.17 15.4171L9.35083 15.4171Z" stroke="#F2F2F2" stroke-width="0.416692" fill="#FFFFFF" transform="matrix(1.025 0 0 1 455 240)"/><path d="M38.3383 16.6667 1.66667 16.6667 1.66667 33.3333 38.3383 33.3333ZM37.505 32.5 2.5 32.5 2.5 17.5 37.505 17.5Z" stroke="#F2F2F2" stroke-width="0.416692" fill="#FFFFFF" transform="matrix(1.025 0 0 1 455 240)"/><path d="M20.0025 28.75C21.6596 28.75 23.0025 27.0712 23.0025 25 23.0025 22.9287 21.6592 21.25 20.0025 21.25 18.3458 21.25 17.0025 22.9287 17.0025 25 17.0025 27.0712 18.3454 28.75 20.0025 28.75ZM20.0025 22.0833C21.1975 22.0833 22.1692 23.3917 22.1692 25 22.1692 26.6083 21.1971 27.9167 20.0025 27.9167 18.8079 27.9167 17.8358 26.6083 17.8358 25 17.8358 23.3917 18.8079 22.0833 20.0025 22.0833Z" stroke="#F2F2F2" stroke-width="0.416692" fill="#FFFFFF" transform="matrix(1.025 0 0 1 455 240)"/><path d="M9.1325 26.6079C10.0228 26.8549 10.9447 26.3334 11.1918 25.4431 11.273 25.1504 11.273 24.841 11.1917 24.5483 11.0385 23.9865 10.5997 23.5475 10.0379 23.3942 9.14779 23.1465 8.22546 23.6674 7.97783 24.5575 7.89617 24.851 7.89621 25.1611 7.97792 25.4546 8.13138 26.0164 8.57054 26.4551 9.1325 26.6079ZM9.58333 24.1667C10.0436 24.1667 10.4167 24.5397 10.4167 25 10.4167 25.4602 10.0436 25.8333 9.58333 25.8333 9.12308 25.8333 8.75 25.4602 8.75 25 8.75 24.5397 9.12308 24.1667 9.58333 24.1667Z" stroke="#F2F2F2" stroke-width="0.416692" fill="#FFFFFF" transform="matrix(1.025 0 0 1 455 240)"/><path d="M30.7608 26.6338C31.5513 26.4495 32.1047 25.7369 32.0875 24.9254L32.0875 24.9254C32.0983 24.3751 31.8117 23.8616 31.3375 23.5821 30.5473 23.0875 29.5058 23.3272 29.0112 24.1174 28.8457 24.3818 28.7568 24.6869 28.7542 24.9988 28.7543 25.9208 29.5019 26.6682 30.424 26.6681 30.5371 26.6681 30.65 26.6566 30.7608 26.6338ZM30.4208 24.1667C30.8811 24.1667 31.2542 24.5397 31.2542 25 31.2542 25.4602 30.8811 25.8333 30.4208 25.8333 29.9606 25.8333 29.5875 25.4602 29.5875 25 29.5875 24.5397 29.9606 24.1667 30.4208 24.1667Z" stroke="#F2F2F2" stroke-width="0.416692" fill="#FFFFFF" transform="matrix(1.025 0 0 1 455 240)"/><path d="M34.5879 30.8333 35.8379 29.5833 35.8379 20.4167 34.5879 19.1667 5.83333 19.1667 4.16667 20.8333 4.16667 29.1667 5.83333 30.8333ZM5 21.1792 6.17917 20 34.2429 20 35.0046 20.7617 35.0046 29.2392 34.2429 30 6.17917 30 5 28.8225Z" stroke="#F2F2F2" stroke-width="0.416692" fill="#FFFFFF" transform="matrix(1.025 0 0 1 455 240)"/></g></g></g><g clip-path="url(#clip8)"><g clip-path="url(#clip9)"><g clip-path="url(#clip10)"><path d="M788.5 262.583C786.797 262.583 785.417 261.203 785.417 259.5 785.417 257.797 786.797 256.417 788.5 256.417 790.203 256.417 791.583 257.797 791.583 259.5 791.583 261.203 790.203 262.583 788.5 262.583ZM788.5 257.958C787.649 257.958 786.958 258.649 786.958 259.5 786.958 260.351 787.649 261.042 788.5 261.042 789.351 261.042 790.042 260.351 790.042 259.5 790.042 258.649 789.351 257.958 788.5 257.958Z" fill="#FFFFFF"/><path d="M801.99 258.729C801.585 251.879 796.121 246.415 789.271 246.01L789.271 243.698 787.729 243.698 787.729 246.01C780.879 246.415 775.415 251.879 775.01 258.729L772.698 258.729 772.698 260.271 775.01 260.271C775.415 267.121 780.879 272.585 787.729 272.99L787.729 275.302 789.271 275.302 789.271 272.99C796.121 272.585 801.585 267.121 801.99 260.271L804.302 260.271 804.302 258.729ZM796.27 260.271C795.9 263.972 792.972 266.9 789.271 267.27L789.271 264.125 787.729 264.125 787.729 267.27C784.028 266.9 781.1 263.972 780.73 260.271L783.875 260.271 783.875 258.729 780.73 258.729C781.1 255.028 784.028 252.1 787.729 251.73L787.729 254.875 789.271 254.875 789.271 251.73C792.972 252.1 795.9 255.028 796.27 258.729L793.125 258.729 793.125 260.271ZM787.729 248.323 787.729 250.184C783.177 250.567 779.565 254.177 779.181 258.729L777.323 258.729C777.719 253.154 782.154 248.719 787.729 248.323ZM777.323 260.271 779.184 260.271C779.567 264.823 783.177 268.435 787.729 268.819L787.729 270.677C782.154 270.281 777.719 265.846 777.323 260.271ZM789.271 270.677 789.271 268.819C793.824 268.437 797.437 264.824 797.819 260.271L799.677 260.271C799.281 265.846 794.846 270.281 789.271 270.677ZM797.819 258.729C797.437 254.176 793.824 250.563 789.271 250.181L789.271 248.323C794.846 248.719 799.281 253.154 799.677 258.729Z" fill="#FFFFFF"/></g></g></g><g clip-path="url(#clip11)"><g clip-path="url(#clip12)"><g clip-path="url(#clip13)"><path d="M418.2 363.667 405.167 341C404.667 340.1 403.367 340.1 402.867 341L389.8 363.667C389.3 364.567 389.933 365.667 390.967 365.667L404 365.667 417.033 365.667C418.067 365.667 418.7 364.567 418.2 363.667ZM403 346.333 405 346.333 405 358 403 358 403 346.333ZM404 362.667C403.067 362.667 402.333 361.933 402.333 361 402.333 360.067 403.067 359.333 404 359.333 404.933 359.333 405.667 360.067 405.667 361 405.667 361.933 404.933 362.667 404 362.667Z" fill="#C00000" fill-opacity="0.72"/></g></g></g></g></svg>