<!--PureVizConfig>[{"vid":"12","visualtype":"path","propertyType":"shapetransformani","mappingOption":"custom","mappedValue":["0","0","0","0","-180","{math|75/100*180-180|}","100","100","1","1","linear","alternate","50","100","0","100","100","100","100"]},{"vid":"20","visualtype":"rect","propertyType":"shapesize","mappingOption":"custom","mappedValue":["712","400"]},{"vid":"9","visualtype":"g","propertyType":"clippath","mappingOption":"none","mappedValue":[]},{"vid":"15","visualtype":"tspan","propertyType":"numbercountup","mappingOption":"custom","mappedValue":["{math|234|}","0","1","0",""," mW"]},{"vid":"15","visualtype":"tspan","propertyType":"textanchor","mappingOption":"custom","mappedValue":["middle"]},{"vid":"15","visualtype":"tspan","propertyType":"textposition","mappingOption":"custom","mappedValue":["53","-28"]},{"vid":"24","visualtype":"tspan","propertyType":"numbercountup","mappingOption":"custom","mappedValue":["{math|75|}","0","1","0","%",""]},{"vid":"19","visualtype":"path","propertyType":"shapecolorani","mappingOption":"custom","mappedValue":["red","rgba(76, 76, 76, 1)","1","0","alternate","linear",null,"0"]},{"vid":"18","visualtype":"g","propertyType":"shapetransformani","mappingOption":"custom","mappedValue":["0","0","0","0","0","0","0","100","1","1","ease-out","alternate","50","50","0","0","100","100","100"]},{"vid":"19","visualtype":"path","propertyType":"actionhover","mappingOption":"custom","mappedValue":["Warning"]}]</PureVizConfig--><svg viewBox="0 0 714 421" width="714" height="421" xmlns="http://www.w3.org/2000/svg" xmlns:xlink="http://www.w3.org/1999/xlink" overflow="hidden"><defs><clipPath id="clip0"><rect x="283" y="164" width="714" height="421"/></clipPath><clipPath id="clip1"><rect x="888" y="190" width="67" height="68"/></clipPath><clipPath id="clip2"><rect x="888" y="190" width="67" height="68"/></clipPath><clipPath id="clip3"><rect x="888" y="190" width="67" height="68"/></clipPath></defs><g clip-path="url(#clip0)" transform="translate(-283 -164)"><rect x="284" y="165" width="712" height="390" fill="#FFFFFF"/><path d="M640 219C788.565 219 909 338.988 909 487L833.166 487C833.166 380.714 746.683 294.552 640 294.552 533.317 294.552 446.834 380.714 446.834 487L371 487C371 338.988 491.436 219 640 219Z" fill="#D9D9D9" fill-rule="evenodd"/><path d="M640 219C788.565 219 909 339.435 909 488L833.166 488C833.166 381.317 746.683 294.834 640 294.834 533.317 294.834 446.834 381.317 446.834 488L371 488C371 339.435 491.436 219 640 219Z" fill="#7030A0" fill-rule="evenodd"/><text font-family="Segoe UI,Segoe UI_MSFontService,sans-serif" font-weight="400" font-size="19" transform="translate(587.03 446)"><tspan x="0" y="0">Active Power</tspan><tspan fill="#7030A0" font-weight="700" font-size="48" x="-37.28" y="-28">234 Mw</tspan></text><g clip-path="url(#clip1)"><g clip-path="url(#clip2)"><g clip-path="url(#clip3)"><path d="M63.2313 55.8333 35.9427 8.375C34.8958 6.49063 32.174 6.49063 31.1271 8.375L3.76875 55.8333C2.72188 57.7177 4.04792 60.0208 6.21146 60.0208L33.5 60.0208 60.7885 60.0208C62.9521 60.0208 64.2781 57.7177 63.2313 55.8333ZM31.4062 19.5417 35.5938 19.5417 35.5938 43.9688 31.4062 43.9688 31.4062 19.5417ZM33.5 53.7396C31.5458 53.7396 30.0104 52.2042 30.0104 50.25 30.0104 48.2958 31.5458 46.7604 33.5 46.7604 35.4542 46.7604 36.9896 48.2958 36.9896 50.25 36.9896 52.2042 35.4542 53.7396 33.5 53.7396Z" fill="#595959" transform="matrix(1 0 0 1.01493 888 190)"/></g></g></g><rect x="284" y="487" width="712" height="97" fill="#FFFFFF"/><text font-family="Segoe UI,Segoe UI_MSFontService,sans-serif" font-weight="400" font-size="48" transform="translate(829.065 539)"><tspan x="0" y="0">300</tspan><tspan font-size="48" x="-435.111" y="0">0</tspan><tspan font-weight="700" font-size="43" x="-232.065" y="-35">%99</tspan></text></g></svg>