<!--PureVizConfig>[{"vid":"39","visualtype":"rect","propertyType":"shapecolorani","mappingOption":"custom","mappedValue":["rgba(140, 0, 0, 1)","rgba(73, 73, 176, 1)","1","0","alternate","linear",null,"0"]},{"vid":"74","visualtype":"path","propertyType":"shapefill","mappingOption":"specialfill","mappedValue":[null,"rgba(106, 204, 81, 1)","#222222",null,"rgba(227, 227, 227, 1)","0",null,null,null,null,"{math|80|}","donut"]},{"vid":"72","visualtype":"tspan","propertyType":"textcontent","mappingOption":"custom","mappedValue":["%{math|80|0;,}"]},{"vid":"70","visualtype":"tspan","propertyType":"textcontent","mappingOption":"custom","mappedValue":["{math|147|0;,}K"]},{"vid":"21","visualtype":"g","propertyType":"shapetransformani","mappingOption":"custom","mappedValue":["-25","0","0","0","0","0","100","100","0.3","1","ease-out","alternate","50","50","0","100","100","0","100"]},{"vid":"24","visualtype":"rect","propertyType":"shapefill","mappingOption":"specialfill","mappedValue":[null,"rgba(222, 250, 215, 1)","#222222",null,"rgba(227, 227, 227, 1)","0",null,null,null,null,"80","lr"]},{"vid":"68","visualtype":"tspan","propertyType":"numbercountup","mappingOption":"custom","mappedValue":["{math|13.82|}","0","1","2","$","M"]}]</PureVizConfig--><svg viewBox="0 0 792 335" width="792" height="335" xmlns="http://www.w3.org/2000/svg" xmlns:xlink="http://www.w3.org/1999/xlink" overflow="hidden"><defs><clipPath id="clip0"><rect x="244" y="198" width="792" height="335"/></clipPath><clipPath id="clip1"><rect x="906" y="344" width="56" height="56"/></clipPath><clipPath id="clip2"><rect x="906" y="344" width="56" height="56"/></clipPath><clipPath id="clip3"><rect x="906" y="344" width="56" height="56"/></clipPath><clipPath id="clip4"><rect x="277" y="437" width="43" height="42"/></clipPath><clipPath id="clip5"><rect x="277" y="437" width="43" height="42"/></clipPath><clipPath id="clip6"><rect x="277" y="437" width="43" height="42"/></clipPath><clipPath id="clip7"><rect x="502" y="440" width="37" height="36"/></clipPath><clipPath id="clip8"><rect x="502" y="440" width="37" height="36"/></clipPath><clipPath id="clip9"><rect x="502" y="440" width="37" height="36"/></clipPath></defs><g clip-path="url(#clip0)" transform="translate(-244 -198)"><rect x="244" y="199" width="792" height="333" fill="#FFFFFF"/><rect x="850" y="237" width="163" height="250" fill="#F2F2F2"/><rect x="895" y="317" width="69" height="19" fill="#BFBFBF" fill-opacity="0.388235"/><rect x="262" y="389" width="169" height="98" fill="#F2F2F2"/><rect x="491" y="389" width="169" height="98" fill="#F2F2F2"/><rect x="386" y="237" width="163" height="98" fill="#F2F2F2"/><rect x="487" y="395" width="176" height="29" fill="#262626"/><text fill="#FFFFFF" font-family="Calibri,Calibri_MSFontService,sans-serif" font-weight="400" font-size="21" transform="translate(537.217 416)"><tspan x="0" y="0">Quantity</tspan></text><rect x="258" y="395" width="176" height="29" fill="#262626"/><text fill="#FFFFFF" font-family="Calibri,Calibri_MSFontService,sans-serif" font-weight="400" font-size="21" transform="translate(303.71 416)"><tspan x="0" y="0">Avg. Price</tspan></text><rect x="379" y="243" width="177" height="29" fill="#0070C0"/><text fill="#FFFFFF" font-family="Calibri,Calibri_MSFontService,sans-serif" font-weight="400" font-size="21" transform="translate(430.251 264)"><tspan x="0" y="0">Revenue</tspan></text><path d="M796.23 251.39 830.77 251.39 830.77 254.295 796.23 254.295ZM796.23 259.705 830.77 259.705 830.77 262.61 796.23 262.61Z" fill="#767171" fill-rule="evenodd"/><rect x="614" y="237" width="163" height="98" fill="#F2F2F2"/><rect x="608" y="243" width="177" height="29" fill="#C55A11"/><text fill="#FFFFFF" font-family="Calibri,Calibri_MSFontService,sans-serif" font-weight="400" font-size="21" transform="translate(654.521 264)"><tspan x="0" y="0">Total Cost</tspan></text><path d="M470.911 424.076 459.868 413.032 448.824 424.076 446.747 421.999 457.791 410.956 446.747 399.912 448.824 397.835 459.868 408.879 470.911 397.835 472.988 399.912 461.944 410.956 472.988 421.999Z" fill="#767171" fill-rule="evenodd"/><path d="M1.66667-4.72913e-06 1.66675 28.6668-1.66659 28.6668-1.66667 4.72913e-06ZM5.00008 27.0001 0.000104987 37.0001-4.99992 27.0001Z" fill="#595959" fill-opacity="0.721569" transform="matrix(1 0 0 -1 460.5 384.5)"/><rect x="563.097" y="255.547" width="33.8054" height="2.9054" fill="#767171"/><rect x="845" y="243" width="176" height="29" fill="#00B050"/><text fill="#FFFFFF" font-family="Calibri,Calibri_MSFontService,sans-serif" font-weight="400" font-size="21" transform="translate(891.055 264)"><tspan x="0" y="0">Net Profit</tspan></text><g clip-path="url(#clip1)"><g clip-path="url(#clip2)"><g clip-path="url(#clip3)"><path d="M956.167 386C956.167 386.758 955.292 387.458 953.833 387.983L953.833 385.883C954.65 385.65 955.467 385.3 956.167 384.95L956.167 386ZM951.5 382.15 951.5 380.05C952.317 379.817 953.133 379.467 953.833 379.117L953.833 380.167C953.833 380.925 952.958 381.625 951.5 382.15ZM951.5 388.683C950.8 388.858 949.983 388.975 949.167 389.092L949.167 386.817C949.925 386.7 950.742 386.583 951.5 386.467L951.5 388.683ZM946.833 380.983C947.592 380.867 948.408 380.75 949.167 380.633L949.167 382.85C948.467 383.025 947.65 383.142 946.833 383.258L946.833 380.983ZM946.833 389.383C946.075 389.442 945.317 389.5 944.5 389.5L944.5 387.167C945.2 387.167 946.017 387.108 946.833 387.05L946.833 389.383ZM942.167 383.667 942.167 381.333C942.867 381.333 943.683 381.275 944.5 381.217L944.5 383.55C943.742 383.608 942.983 383.608 942.167 383.667ZM942.167 389.5C941.35 389.5 940.592 389.442 939.833 389.383L939.833 387.167C940.242 387.167 940.592 387.167 941 387.167 941.35 387.167 941.758 387.167 942.167 387.167L942.167 389.5ZM937.5 381.217C938.258 381.275 939.017 381.333 939.833 381.333L939.833 383.667C939.017 383.667 938.258 383.608 937.5 383.55L937.5 381.217ZM937.5 389.092C936.683 388.975 935.867 388.858 935.167 388.683L935.167 386.817C935.925 386.933 936.683 386.992 937.5 387.05L937.5 389.092ZM932.833 382.85 932.833 380.575C933.592 380.692 934.35 380.867 935.167 380.925L935.167 383.258C934.35 383.142 933.533 383.025 932.833 382.85ZM932.833 387.983C931.375 387.4 930.5 386.7 930.5 386L930.5 385.883C930.5 385.883 930.5 385.883 930.558 385.883 930.733 385.942 930.85 386 931.025 386 931.608 386.175 932.192 386.292 932.833 386.408L932.833 387.983ZM923.5 380.05C923.908 380.05 924.258 380.108 924.667 380.108L924.667 380.167C924.667 380.983 924.842 381.8 925.25 382.442 924.667 382.442 924.083 382.383 923.5 382.325L923.5 380.05ZM921.167 373.05C921.925 373.167 922.683 373.342 923.5 373.4L923.5 375.733C922.683 375.617 921.867 375.5 921.167 375.325L921.167 373.05ZM921.167 382.092C920.35 381.975 919.533 381.858 918.833 381.683L918.833 379.408C919.592 379.525 920.35 379.7 921.167 379.758L921.167 382.092ZM916.5 372.583 916.5 371.533C917.2 371.883 917.958 372.175 918.833 372.408L918.833 374.567C917.375 374.042 916.5 373.342 916.5 372.583ZM916.5 380.983C915.042 380.4 914.167 379.7 914.167 379L914.167 377.95C914.867 378.3 915.625 378.592 916.5 378.825L916.5 380.983ZM914.167 362.783C914.867 363.133 915.625 363.425 916.5 363.658L916.5 365.817C915.042 365.233 914.167 364.533 914.167 363.833L914.167 362.783ZM921.167 364.65 921.167 366.983C920.35 366.867 919.533 366.75 918.833 366.575L918.833 364.3C919.592 364.417 920.35 364.533 921.167 364.65ZM927 354.5C934.117 354.5 939.833 356.075 939.833 358 939.833 359.925 934.117 361.5 927 361.5 919.883 361.5 914.167 359.925 914.167 358 914.167 356.075 919.883 354.5 927 354.5ZM930.5 382.15C929.042 381.567 928.167 380.867 928.167 380.167L928.167 379.117C928.867 379.467 929.625 379.758 930.5 379.992L930.5 382.15ZM937.5 365.817 937.5 363.717C938.317 363.483 939.133 363.133 939.833 362.783L939.833 363.833C939.833 364.592 938.958 365.292 937.5 365.817ZM932.833 366.925 932.833 364.65C933.592 364.533 934.408 364.417 935.167 364.3L935.167 366.517C934.467 366.692 933.65 366.808 932.833 366.925ZM928.167 367.333 928.167 365C928.867 365 929.683 364.942 930.5 364.883L930.5 367.217C929.742 367.275 928.983 367.275 928.167 367.333ZM923.5 367.217 923.5 364.883C924.258 364.942 925.017 365 925.833 365L925.833 367.333C925.017 367.275 924.258 367.275 923.5 367.217ZM953.833 374.333C953.833 376.258 948.117 377.833 941 377.833 933.883 377.833 928.167 376.258 928.167 374.333 928.167 372.408 933.883 370.833 941 370.833 948.117 370.833 953.833 372.408 953.833 374.333ZM957.333 376.083 957.333 374.333C957.333 371.592 955.175 369.608 950.975 368.5 949.4 368.092 947.592 367.742 945.55 367.567 945.608 367.333 945.608 367.042 945.608 366.75 945.608 365.117 944.85 363.717 943.275 362.667L943.275 358C943.275 355.258 941.117 353.275 936.917 352.167 934.175 351.408 930.675 351 926.942 351 922.042 351 910.608 351.7 910.608 358L910.608 363.833C910.608 365.467 911.367 366.867 912.942 367.917L912.942 369.025C911.542 370.017 910.608 371.358 910.608 373.167L910.608 379C910.608 381.742 912.767 383.725 916.967 384.833 919.708 385.592 923.208 386 926.942 386 926.942 388.742 929.1 390.725 933.3 391.833 936.042 392.592 939.542 393 943.275 393 948.175 393 959.608 392.3 959.608 386L959.608 380.167C959.667 378.533 958.908 377.133 957.333 376.083Z" fill="#808080"/></g></g></g><g clip-path="url(#clip4)"><g clip-path="url(#clip5)"><g clip-path="url(#clip6)"><path d="M22.05 30.3625 20.825 29.1375 29.1375 20.825 30.3625 22.05 22.05 30.3625ZM17.7625 26.075 26.075 17.7625 27.3 18.9875 18.9875 27.3 17.7625 26.075ZM14.7 23.0125 23.0125 14.7 24.2375 15.925 15.925 24.2375 14.7 23.0125ZM12.25 14C11.2875 14 10.5 13.2125 10.5 12.25 10.5 11.2875 11.2875 10.5 12.25 10.5 13.2125 10.5 14 11.2875 14 12.25 14 13.2125 13.2125 14 12.25 14ZM33.775 21.525 21.525 9.275C21.175 8.925 20.7375 8.75 20.3 8.75L12.25 8.75C10.325 8.75 8.75 10.325 8.75 12.25L8.75 20.2563C8.75 20.7375 8.925 21.175 9.275 21.4812L21.525 33.7313C22.225 34.4312 23.3188 34.4312 24.0188 33.7313L33.775 23.975C34.4312 23.3188 34.4312 22.1812 33.775 21.525Z" fill="#000000" fill-opacity="0.47" transform="matrix(1.02381 0 0 1 277 437)"/></g></g></g><g clip-path="url(#clip7)"><g clip-path="url(#clip8)"><g clip-path="url(#clip9)"><path d="M4.125 23.625 4.125 32.25 12.75 32.25 12.75 23.625ZM6.75 26.25 5.25 26.25 5.25 24.75 6.75 24.75Z" fill="#000000" fill-opacity="0.47" transform="matrix(1.02778 0 0 1 502 440)"/><path d="M13.875 23.625 13.875 32.25 22.5 32.25 22.5 23.625ZM16.5 26.25 15 26.25 15 24.75 16.5 24.75Z" fill="#000000" fill-opacity="0.47" transform="matrix(1.02778 0 0 1 502 440)"/><path d="M9 13.875 9 22.5 17.625 22.5 17.625 13.875ZM11.625 16.5 10.125 16.5 10.125 15 11.625 15Z" fill="#000000" fill-opacity="0.47" transform="matrix(1.02778 0 0 1 502 440)"/><path d="M18.75 13.875 18.75 22.5 27.375 22.5 27.375 13.875ZM21.375 16.5 19.875 16.5 19.875 15 21.375 15Z" fill="#000000" fill-opacity="0.47" transform="matrix(1.02778 0 0 1 502 440)"/><path d="M13.875 4.125 13.875 12.75 22.5 12.75 22.5 4.125ZM16.5 6.75 15 6.75 15 5.25 16.5 5.25Z" fill="#000000" fill-opacity="0.47" transform="matrix(1.02778 0 0 1 502 440)"/><path d="M23.625 23.625 23.625 32.25 31.875 32.25 31.875 23.625ZM26.25 26.25 24.75 26.25 24.75 24.75 26.25 24.75Z" fill="#000000" fill-opacity="0.47" transform="matrix(1.02778 0 0 1 502 440)"/></g></g></g><text font-family="Calibri,Calibri_MSFontService,sans-serif" font-weight="400" font-size="32" transform="translate(417.617 311)"><tspan x="0" y="0">$ 848M</tspan><tspan font-size="32" x="236.083" y="0">$ 41M</tspan><tspan font-size="32" x="461.239" y="-2">$ 807M</tspan><tspan font-size="32" x="-88.4627" y="155">$ 2.1</tspan><tspan font-size="32" x="144.481" y="155">38M</tspan><tspan font-size="14" x="503.129" y="136">VTB</tspan><tspan font-size="21" x="495.876" y="160">%99</tspan><tspan fill="#00B050" font-size="13" x="483.567" y="19">YoY: +%80</tspan></text><path d="M934.5 408C972.884 408 1004 438.892 1004 477L984.407 477C984.407 449.635 962.063 427.452 934.5 427.452 906.937 427.452 884.593 449.635 884.593 477L865 477C865 438.892 896.116 408 934.5 408Z" fill="#00B050" fill-rule="evenodd"/></g></svg>