<!--PureVizConfig>[{"vid":"11","visualtype":"path","propertyType":"shapetransformani","mappingOption":"custom","mappedValue":["0","0","0","0","0","0","100","100","1","1","linear","alternate","50","50","0","100","100","0","100"]},{"vid":"18","visualtype":"path","propertyType":"shapetransformani","mappingOption":"custom","mappedValue":["0","0","0","0","0","0","100","100","1","1","linear","alternate","50","50","0","100","100","0","100"]},{"vid":"23","visualtype":"path","propertyType":"shapetransformani","mappingOption":"custom","mappedValue":["0","0","0","0","0","0","100","100","1","1","linear","alternate","50","50","0","100","100","0","100"]},{"vid":"28","visualtype":"path","propertyType":"shapetransformani","mappingOption":"custom","mappedValue":["0","0","0","0","0","0","100","100","1","1","linear","alternate","50","50","0","100","100","0","100"]},{"vid":"10","visualtype":"path","propertyType":"shapetransformani","mappingOption":"custom","mappedValue":["0","0","0","0","0","0","100","100","1","0","ease-out","alternate","50","50","0","100","100","50","100"]},{"vid":"34","visualtype":"tspan","propertyType":"numbercountup","mappingOption":"custom","mappedValue":["25","0","1","1","","M","25.0M"]},{"vid":"46","visualtype":"tspan","propertyType":"numbercountup","mappingOption":"custom","mappedValue":["{math|54|}","0","1","1","","M"]}]</PureVizConfig--><svg viewBox="0 0 994 366" width="994" height="366" xmlns="http://www.w3.org/2000/svg" xmlns:xlink="http://www.w3.org/1999/xlink" overflow="hidden"><defs><clipPath id="clip0"><rect x="143" y="176" width="994" height="366"/></clipPath><linearGradient x1="151.902" y1="415.458" x2="1128.14" y2="415.458" gradientUnits="userSpaceOnUse" spreadMethod="reflect" id="stroke1"><stop offset="0" stop-color="#F6F8FC" stop-opacity="0"/><stop offset="0.11" stop-color="#7F7F7F"/><stop offset="0.87" stop-color="#7F7F7F"/><stop offset="1" stop-color="#C7D5ED" stop-opacity="0"/></linearGradient></defs><g clip-path="url(#clip0)" transform="translate(-143 -176)"><rect x="143" y="176" width="994" height="365" fill="#FFFFFF"/><path d="M152 377.8C229.114 375.917 287.597 451.604 341.929 452.574 396.261 453.544 478.535 377.402 547.307 377.8 616.08 378.197 677.885 457.033 737.236 454.96 796.588 452.887 881.608 377.667 938.071 377.004 994.534 376.341 1043.18 454.001 1128 450.983" stroke="url(#stroke1)" stroke-width="8" stroke-linejoin="round" stroke-miterlimit="10" fill="none" fill-rule="evenodd"/><path d="M303.88 478.004C295.111 478.004 288.003 485.165 288.003 494 288.003 502.835 295.111 509.996 303.88 509.996L376.12 509.996C384.889 509.996 391.997 502.835 391.997 494 391.997 485.165 384.889 478.004 376.12 478.004Z" fill="#FCBD24" fill-rule="evenodd"/><text fill="#FFFFFF" font-family="Segoe UI,Segoe UI_MSFontService,sans-serif" font-weight="600" font-size="19" transform="translate(309.231 501)"><tspan x="0" y="0">Phase 1</tspan></text><path d="M339.981 437.003C331.142 437.003 324.003 444.174 324.003 453.002 324.003 461.829 331.142 468.997 339.981 468.997 348.82 468.997 355.997 461.829 355.997 453.002 355.997 444.174 348.82 437.003 339.981 437.003Z" fill="#D8D9DC" fill-rule="evenodd"/><path d="M340 441.005C333.389 441.005 328 446.393 328 453.002 328 459.607 333.389 464.995 340 464.995 346.606 464.995 351.995 459.607 351.995 453.002 351.995 446.393 346.606 441.005 340 441.005Z" fill="#FCBD24" fill-rule="evenodd"/><path d="M339.981 283.004C301.33 283.004 270 314.362 270 353.002 270 391.638 301.33 423 339.981 423 378.67 423 410 391.638 410 353.002 410 314.362 378.67 283.004 339.981 283.004Z" fill="#FCBD24" fill-rule="evenodd"/><path d="M339.981 293.004C306.848 293.004 280.004 319.88 280.004 353.002 280.004 386.12 306.848 412.997 339.981 412.997 373.11 412.997 399.997 386.12 399.997 353.002 399.997 319.88 373.11 293.004 339.981 293.004Z" fill="#FFFFFF" fill-rule="evenodd"/><path d="M509.033 403C500.18 403 493.004 410.162 493.004 418.998 493.004 427.838 500.18 434.996 509.033 434.996L581.967 434.996C590.82 434.996 597.996 427.838 597.996 418.998 597.996 410.162 590.82 403 581.967 403Z" fill="#4775E7" fill-rule="evenodd"/><text fill="#FFFFFF" font-family="Segoe UI,Segoe UI_MSFontService,sans-serif" font-weight="600" font-size="19" transform="translate(513.245 426)"><tspan x="0" y="0">Phase 2</tspan></text><path d="M545.981 362.003C537.142 362.003 530.003 369.174 530.003 378.002 530.003 386.829 537.142 394 545.981 394 554.82 394 561.997 386.829 561.997 378.002 561.997 369.174 554.82 362.003 545.981 362.003Z" fill="#D8D9DC" fill-rule="evenodd"/><path d="M546 366C539.389 366 534 371.389 534 378 534 384.606 539.389 389.995 546 389.995 552.606 389.995 557.995 384.606 557.995 378 557.995 371.389 552.606 366 546 366Z" fill="#4775E7" fill-rule="evenodd"/><path d="M710.878 477.004C702.108 477.004 695 484.165 695 493 695 501.835 702.108 508.996 710.878 508.996L783.119 508.996C791.892 508.996 799 501.835 799 493 799 484.165 791.892 477.004 783.119 477.004Z" fill="#70AD47" fill-rule="evenodd"/><text fill="#FFFFFF" font-family="Segoe UI,Segoe UI_MSFontService,sans-serif" font-weight="600" font-size="19" transform="translate(714.457 500)"><tspan x="0" y="0">Phase 3</tspan></text><path d="M747 437.003C738.171 437.003 731 444.174 731 453.002 731 461.829 738.171 468.997 747 468.997 755.829 468.997 763 461.829 763 453.002 763 444.174 755.829 437.003 747 437.003Z" fill="#D8D9DC" fill-rule="evenodd"/><path d="M747 441.005C740.394 441.005 735 446.393 735 453.002 735 459.607 740.394 464.995 747 464.995 753.606 464.995 758.995 459.607 758.995 453.002 758.995 446.393 753.606 441.005 747 441.005Z" fill="#70AD47" fill-rule="evenodd"/><path d="M901.881 408C893.108 408 886 415.162 886 423.998 886 432.838 893.108 439.996 901.881 439.996L974.122 439.996C982.892 439.996 990 432.838 990 423.998 990 415.162 982.892 408 974.122 408Z" fill="#C830CC" fill-rule="evenodd"/><text fill="#FFFFFF" font-family="Segoe UI,Segoe UI_MSFontService,sans-serif" font-weight="600" font-size="19" transform="translate(905.305 431)"><tspan x="0" y="0">Phase 4</tspan></text><path d="M938 362.003C929.171 362.003 922 369.174 922 378.002 922 386.829 929.171 394 938 394 946.829 394 954 386.829 954 378.002 954 369.174 946.829 362.003 938 362.003Z" fill="#D8D9DC" fill-rule="evenodd"/><path d="M938 366C931.394 366 926.005 371.389 926.005 378 926.005 384.606 931.394 389.995 938 389.995 944.606 389.995 950 384.606 950 378 950 371.389 944.606 366 938 366Z" fill="#C830CC" fill-rule="evenodd"/><text fill="#595959" font-family="Segoe UI,Segoe UI_MSFontService,sans-serif" font-weight="600" font-size="32" transform="translate(294.898 348)"><tspan x="0" y="0">25.0M</tspan><tspan font-size="15" x="16.75" y="17">Revenue</tspan><tspan fill="#A6A6A6" font-size="11" x="-2.61185" y="36">+12 New Customers</tspan></text><path d="M547.981 214.004C509.33 214.004 478 245.362 478 284.002 478 322.638 509.33 354 547.981 354 586.67 354 618 322.638 618 284.002 618 245.362 586.67 214.004 547.981 214.004Z" fill="#4775E7" fill-rule="evenodd"/><path d="M547.981 224.003C514.848 224.003 488.004 250.88 488.004 284.002 488.004 317.12 514.848 343.997 547.981 343.997 581.11 343.997 607.997 317.12 607.997 284.002 607.997 250.88 581.11 224.003 547.981 224.003Z" fill="#FFFFFF" fill-rule="evenodd"/><text fill="#595959" font-family="Segoe UI,Segoe UI_MSFontService,sans-serif" font-weight="600" font-size="32" transform="translate(505.354 279)"><tspan x="0" y="0">15.0M</tspan><tspan font-size="15" x="14.25" y="17">Revenue</tspan><tspan fill="#A6A6A6" font-size="11" x="-5.11182" y="36">+12 New Customers</tspan></text><path d="M748.981 283.003C710.33 283.003 679 314.138 679 352.502 679 390.862 710.33 422 748.981 422 787.67 422 819 390.862 819 352.502 819 314.138 787.67 283.003 748.981 283.003Z" fill="#70AD47" fill-rule="evenodd"/><path d="M748.981 292.004C715.848 292.004 689.003 319.104 689.003 352.502 689.003 385.896 715.848 412.996 748.981 412.996 782.11 412.996 808.997 385.896 808.997 352.502 808.997 319.104 782.11 292.004 748.981 292.004Z" fill="#FFFFFF" fill-rule="evenodd"/><text fill="#595959" font-family="Segoe UI,Segoe UI_MSFontService,sans-serif" font-weight="600" font-size="32" transform="translate(703.588 348)"><tspan x="0" y="0">22.0M</tspan><tspan font-size="15" x="16.7499" y="17">Revenue</tspan><tspan fill="#A6A6A6" font-size="11" x="-2.61188" y="36">+12 New Customers</tspan></text><path d="M939.481 210.004C901.106 210.004 870 241.362 870 280.002 870 318.638 901.106 350 939.481 350 977.894 350 1009 318.638 1009 280.002 1009 241.362 977.894 210.004 939.481 210.004Z" fill="#C830CC" fill-rule="evenodd"/><path d="M939.481 219.004C906.071 219.004 879.004 246.104 879.004 279.502 879.004 312.896 906.071 339.996 939.481 339.996 972.886 339.996 999.996 312.896 999.996 279.502 999.996 246.104 972.886 219.004 939.481 219.004Z" fill="#FFFFFF" fill-rule="evenodd"/><text fill="#595959" font-family="Segoe UI,Segoe UI_MSFontService,sans-serif" font-weight="600" font-size="32" transform="translate(894.601 275)"><tspan x="0" y="0">57.0M</tspan><tspan font-size="15" x="16.4166" y="17">Revenue</tspan><tspan fill="#A6A6A6" font-size="11" x="-2.94507" y="36">+12 New Customers</tspan></text></g></svg>