<!--PureVizConfig>[{"vid":"108","visualtype":"tspan","propertyType":"numbercountup","mappingOption":"custom","mappedValue":["99","0","1","0",""," Users"]},{"vid":"109","visualtype":"tspan","propertyType":"numbercountup","mappingOption":"custom","mappedValue":["2400","0","1.5","0",""," Users"]},{"vid":"110","visualtype":"tspan","propertyType":"numbercountup","mappingOption":"custom","mappedValue":["5604","0","2","0",""," Users","6000 users"]},{"vid":"111","visualtype":"tspan","propertyType":"numbercountup","mappingOption":"custom","mappedValue":["9827","0","3","0",""," Users"]},{"vid":"43","visualtype":"path","propertyType":"shapetransformani","mappingOption":"custom","mappedValue":["0","0","0","0","0","0","0","100","1","1","linear","alternate","16","50","0","100","100","100","100"]},{"vid":"43","visualtype":"path","propertyType":"shapecolorani","mappingOption":"custom","mappedValue":["rgba(120, 157, 90, 1)","rgba(155, 202, 130, 1)","1","0","alternate","linear",null,"0"]},{"vid":"27","visualtype":"g","propertyType":"shapetransformani","mappingOption":"custom","mappedValue":["0","0","0","0","0","0","100","100","1","1","linear","alternate","50","50","0","100","100","20","100"]}]</PureVizConfig--><svg viewBox="0 0 927 314" width="927" height="314" xmlns="http://www.w3.org/2000/svg" xmlns:xlink="http://www.w3.org/1999/xlink" overflow="hidden"><defs><clipPath id="clip0"><rect x="177" y="203" width="927" height="314"/></clipPath><clipPath id="clip1"><rect x="838" y="215" width="88" height="88"/></clipPath><clipPath id="clip2"><rect x="838" y="215" width="88" height="88"/></clipPath><clipPath id="clip3"><rect x="838" y="215" width="88" height="88"/></clipPath><clipPath id="clip4"><rect x="255" y="301" width="88" height="87"/></clipPath><clipPath id="clip5"><rect x="255" y="301" width="88" height="87"/></clipPath><clipPath id="clip6"><rect x="255" y="301" width="88" height="87"/></clipPath><clipPath id="clip7"><rect x="449" y="276" width="88" height="88"/></clipPath><clipPath id="clip8"><rect x="449" y="276" width="88" height="88"/></clipPath><clipPath id="clip9"><rect x="449" y="276" width="88" height="88"/></clipPath><clipPath id="clip10"><rect x="644" y="252" width="88" height="88"/></clipPath><clipPath id="clip11"><rect x="644" y="252" width="88" height="88"/></clipPath><clipPath id="clip12"><rect x="644" y="252" width="88" height="88"/></clipPath></defs><g clip-path="url(#clip0)" transform="translate(-177 -203)"><rect x="177" y="204" width="926" height="312" fill="#FFFFFF"/><path d="M226.833 390 447.167 390C451.493 390 455 393.507 455 397.833L455 437 219 437 219 397.833C219 393.507 222.507 390 226.833 390Z" fill="#0070C0" fill-rule="evenodd"/><text fill="#FFFFFF" font-family="Segoe UI,Segoe UI_MSFontService,sans-serif" font-weight="600" font-size="19" transform="translate(230.999 421)"><tspan x="0" y="0">QUARTER 1</tspan></text><path d="M413 413.003 454.995 436.997 454.995 413.003Z" fill="#BFBFBF" fill-rule="evenodd"/><path d="M420.833 366 641.167 366C645.493 366 649 369.507 649 373.833L649 413 413 413 413 373.833C413 369.507 416.507 366 420.833 366Z" fill="#70AD47" fill-rule="evenodd"/><text fill="#FFFFFF" font-family="Segoe UI,Segoe UI_MSFontService,sans-serif" font-weight="600" font-size="19" transform="translate(424.877 398)"><tspan x="0" y="0">QUARTER 2</tspan></text><path d="M612 342 832 342C836.418 342 840 345.582 840 350L840 390 604 390 604 350C604 345.582 607.582 342 612 342Z" fill="#0070C0" fill-rule="evenodd"/><text fill="#FFFFFF" font-family="Segoe UI,Segoe UI_MSFontService,sans-serif" font-weight="600" font-size="19" transform="translate(616.392 374)"><tspan x="0" y="0">QUARTER 3</tspan></text><path d="M804 318 969 318C973.418 318 977 321.582 977 326L977 366 796 366 796 326C796 321.582 799.582 318 804 318Z" fill="#70AD47" fill-rule="evenodd"/><text fill="#FFFFFF" font-family="Segoe UI,Segoe UI_MSFontService,sans-serif" font-weight="600" font-size="19" transform="translate(807.908 350)"><tspan x="0" y="0">QUARTER 4</tspan></text><path d="M796 366 840 390 840 366Z" fill="#BFBFBF" fill-rule="evenodd"/><path d="M965 299 1041 342 965 385Z" fill="#70AD47" fill-rule="evenodd"/><path d="M604 390 648 413 648 390Z" fill="#BFBFBF" fill-rule="evenodd"/><g clip-path="url(#clip1)"><g clip-path="url(#clip2)"><g clip-path="url(#clip3)"><path d="M920.5 297.328C918.739 297.368 916.99 297.035 915.367 296.35 912.486 295.209 909.278 295.209 906.397 296.35 903.096 297.653 899.424 297.653 896.123 296.35 893.243 295.209 890.035 295.209 887.154 296.35 885.53 297.036 883.778 297.369 882.016 297.328 880.253 297.369 878.501 297.036 876.876 296.35 875.457 295.748 873.925 295.456 872.384 295.494 870.845 295.456 869.316 295.748 867.899 296.35 866.276 297.035 864.526 297.368 862.766 297.328 860.999 297.37 859.245 297.037 857.617 296.35 856.198 295.748 854.666 295.456 853.125 295.494 851.584 295.456 850.052 295.748 848.633 296.35 847.01 297.035 845.261 297.368 843.5 297.328L843.5 295.494C845.041 295.532 846.573 295.24 847.992 294.637 849.617 293.953 851.37 293.62 853.133 293.661 854.897 293.62 856.649 293.953 858.275 294.637 859.694 295.24 861.225 295.532 862.766 295.494 864.306 295.532 865.835 295.24 867.252 294.637 868.875 293.953 870.624 293.62 872.385 293.661 874.148 293.62 875.9 293.952 877.525 294.637 878.944 295.24 880.475 295.533 882.016 295.494 883.556 295.532 885.086 295.24 886.503 294.637 888.127 293.953 889.878 293.62 891.641 293.661 893.401 293.62 895.151 293.953 896.774 294.637 899.654 295.78 902.862 295.78 905.743 294.637 909.044 293.336 912.716 293.336 916.018 294.637 917.433 295.239 918.962 295.532 920.5 295.494Z" fill="#70AD47"/><path d="M920.5 290.452C918.739 290.492 916.99 290.16 915.367 289.475 912.486 288.333 909.278 288.333 906.397 289.475 903.096 290.777 899.424 290.777 896.123 289.475 893.243 288.333 890.035 288.333 887.154 289.475 885.53 290.16 883.778 290.493 882.016 290.452 880.253 290.493 878.501 290.16 876.876 289.475 875.457 288.872 873.925 288.579 872.384 288.618 870.845 288.58 869.316 288.873 867.899 289.475 866.276 290.16 864.526 290.492 862.766 290.452 861 290.494 859.245 290.161 857.617 289.475 856.198 288.872 854.666 288.58 853.125 288.618 851.584 288.58 850.052 288.872 848.633 289.475 847.01 290.159 845.261 290.492 843.5 290.452L843.5 288.618C845.041 288.657 846.573 288.365 847.992 287.761 849.617 287.077 851.37 286.744 853.133 286.785 854.897 286.744 856.649 287.077 858.275 287.761 859.694 288.365 861.225 288.657 862.766 288.618 864.306 288.657 865.835 288.364 867.252 287.761 868.875 287.078 870.624 286.745 872.385 286.785 874.148 286.744 875.9 287.077 877.525 287.761 878.944 288.365 880.475 288.657 882.016 288.618 883.556 288.657 885.086 288.364 886.503 287.761 888.127 287.077 889.878 286.744 891.641 286.785 893.401 286.745 895.151 287.078 896.774 287.761 899.654 288.904 902.862 288.904 905.743 287.761 909.044 286.46 912.716 286.46 916.018 287.761 917.433 288.364 918.962 288.656 920.5 288.618Z" fill="#70AD47"/><path d="M920.5 283.577C918.739 283.617 916.99 283.285 915.367 282.6 912.486 281.458 909.278 281.458 906.397 282.6 903.096 283.902 899.424 283.902 896.123 282.6 893.243 281.458 890.035 281.458 887.154 282.6 885.53 283.285 883.778 283.618 882.016 283.577 880.253 283.618 878.501 283.285 876.876 282.6 875.457 281.997 873.925 281.704 872.384 281.743 870.845 281.705 869.316 281.998 867.899 282.6 866.276 283.285 864.526 283.617 862.766 283.577 861 283.619 859.245 283.286 857.617 282.6 856.198 281.997 854.666 281.705 853.125 281.743 851.584 281.705 850.052 281.997 848.633 282.6 847.01 283.284 845.261 283.617 843.5 283.577L843.5 281.743C845.041 281.782 846.573 281.49 847.992 280.886 849.617 280.202 851.37 279.869 853.133 279.91 854.897 279.869 856.649 280.202 858.275 280.886 859.694 281.49 861.225 281.782 862.766 281.743 864.306 281.782 865.835 281.489 867.252 280.886 868.875 280.203 870.624 279.87 872.385 279.91 874.148 279.869 875.9 280.202 877.525 280.886 878.944 281.49 880.475 281.782 882.016 281.743 883.556 281.782 885.086 281.489 886.503 280.886 888.127 280.202 889.878 279.869 891.641 279.91 893.401 279.87 895.151 280.203 896.774 280.886 899.654 282.029 902.862 282.029 905.743 280.886 909.044 279.585 912.716 279.585 916.018 280.886 917.433 281.489 918.962 281.781 920.5 281.743Z" fill="#70AD47"/><path d="M918.667 262.667 903.083 262.667 903.083 260.833 918.667 260.833 918.667 259 915.917 259 915.917 249.625C916.827 249.76 917.746 249.83 918.667 249.833L918.667 248C910.119 247.985 902.843 241.773 901.489 233.333L899.177 233.333C897.674 242.82 888.764 249.292 879.277 247.788 871.837 246.608 866.002 240.773 864.823 233.333L862.511 233.333C861.157 241.773 853.881 247.985 845.333 248L845.333 249.833C846.254 249.83 847.173 249.76 848.083 249.625L848.083 259 845.333 259 845.333 260.833 860.917 260.833 860.917 262.667 845.333 262.667 845.333 264.5 860.917 264.5 860.917 278.525C860.977 278.55 861.04 278.566 861.1 278.592 861.635 278.791 862.187 278.938 862.75 279.032L862.75 238.735C863.101 237.998 863.405 237.238 863.658 236.462 863.658 236.448 863.67 236.448 863.675 236.462 863.928 237.238 864.232 237.998 864.583 238.735L864.583 278.944C864.965 278.851 865.341 278.735 865.708 278.596 865.94 278.498 866.181 278.424 866.417 278.337L866.417 264.5 897.583 264.5 897.583 278.525C897.645 278.55 897.708 278.567 897.767 278.593 898.302 278.791 898.854 278.939 899.417 279.033L899.417 238.735C899.768 237.998 900.072 237.238 900.325 236.462 900.325 236.448 900.337 236.448 900.342 236.462 900.595 237.238 900.899 237.998 901.25 238.735L901.25 278.945C901.633 278.852 902.009 278.736 902.377 278.596 902.608 278.498 902.848 278.424 903.083 278.338L903.083 264.5 918.667 264.5ZM908.583 246.967C910.284 248.022 912.14 248.803 914.083 249.283L914.083 259 908.583 259ZM903.083 241.834C904.125 243.273 905.359 244.563 906.75 245.669L906.75 259 903.083 259ZM855.417 259 849.917 259 849.917 249.283C851.86 248.805 853.715 248.025 855.417 246.971ZM860.917 259 857.25 259 857.25 245.67C858.641 244.564 859.875 243.274 860.917 241.835ZM886.583 249.283C888.526 248.805 890.382 248.025 892.083 246.971L892.083 259 886.583 259ZM879.25 249.63C881.073 249.907 882.927 249.907 884.75 249.63L884.75 259 879.25 259ZM871.917 246.971C873.618 248.025 875.474 248.805 877.417 249.283L877.417 259 871.917 259ZM866.417 241.838C867.459 243.278 868.692 244.568 870.083 245.674L870.083 259 866.417 259ZM897.583 262.667 866.417 262.667 866.417 260.833 897.583 260.833ZM897.583 259 893.917 259 893.917 245.67C895.308 244.564 896.541 243.274 897.583 241.835Z" fill="#70AD47"/></g></g></g><g clip-path="url(#clip4)"><g clip-path="url(#clip5)"><g clip-path="url(#clip6)"><path d="M53.4688 19.817 53.4688 43.5 43.5 43.5 43.5 15.4062 19.9375 15.4062 19.9375 36.25 9.96875 36.25 9.96875 71.5938 77.0312 71.5938 77.0312 22.7623ZM21.75 17.2188 41.6875 17.2188 41.6875 43.5 33.5312 43.5 33.5312 36.25 21.75 36.25ZM31.7188 69.7812 23.5625 69.7812 23.5625 64.3438 19.9375 64.3438 19.9375 69.7812 11.7812 69.7812 11.7812 38.0625 31.7188 38.0625 31.7188 69.7812ZM53.4688 69.7812 45.3125 69.7812 45.3125 64.3438 41.6875 64.3438 41.6875 69.7812 33.5312 69.7812 33.5312 45.3125 53.4688 45.3125ZM75.2188 69.7812 67.0625 69.7812 67.0625 64.3438 63.4375 64.3438 63.4375 69.7812 55.2812 69.7812 55.2812 21.8705 75.2188 24.3627Z" fill="#0070C0" transform="matrix(1.01149 0 0 1 255 301)"/><path d="M38.0625 57.1101 41.6875 57.1101 41.6875 60.736 38.0625 60.736Z" fill="#0070C0" transform="matrix(1.01149 0 0 1 255 301)"/><path d="M45.3125 57.1101 48.9375 57.1101 48.9375 60.736 45.3125 60.736Z" fill="#0070C0" transform="matrix(1.01149 0 0 1 255 301)"/><path d="M38.0625 49.8438 41.6875 49.8438 41.6875 53.4697 38.0625 53.4697Z" fill="#0070C0" transform="matrix(1.01149 0 0 1 255 301)"/><path d="M45.3125 49.8438 48.9375 49.8438 48.9375 53.4697 45.3125 53.4697Z" fill="#0070C0" transform="matrix(1.01149 0 0 1 255 301)"/><path d="M26.2812 29.0163 29.9062 29.0163 29.9062 32.6422 26.2812 32.6422Z" fill="#0070C0" transform="matrix(1.01149 0 0 1 255 301)"/><path d="M33.5312 29.0163 37.1562 29.0163 37.1562 32.6422 33.5312 32.6422Z" fill="#0070C0" transform="matrix(1.01149 0 0 1 255 301)"/><path d="M26.2812 21.75 29.9062 21.75 29.9062 25.3759 26.2812 25.3759Z" fill="#0070C0" transform="matrix(1.01149 0 0 1 255 301)"/><path d="M33.5312 21.75 37.1562 21.75 37.1562 25.3759 33.5312 25.3759Z" fill="#0070C0" transform="matrix(1.01149 0 0 1 255 301)"/><path d="M16.3134 57.1101 19.9384 57.1101 19.9384 60.736 16.3134 60.736Z" fill="#0070C0" transform="matrix(1.01149 0 0 1 255 301)"/><path d="M23.5634 57.1101 27.1884 57.1101 27.1884 60.736 23.5634 60.736Z" fill="#0070C0" transform="matrix(1.01149 0 0 1 255 301)"/><path d="M16.3134 49.8438 19.9384 49.8438 19.9384 53.4697 16.3134 53.4697Z" fill="#0070C0" transform="matrix(1.01149 0 0 1 255 301)"/><path d="M23.5634 49.8438 27.1884 49.8438 27.1884 53.4697 23.5634 53.4697Z" fill="#0070C0" transform="matrix(1.01149 0 0 1 255 301)"/><path d="M16.3134 42.5938 19.9384 42.5938 19.9384 46.2197 16.3134 46.2197Z" fill="#0070C0" transform="matrix(1.01149 0 0 1 255 301)"/><path d="M23.5634 42.5938 27.1884 42.5938 27.1884 46.2197 23.5634 46.2197Z" fill="#0070C0" transform="matrix(1.01149 0 0 1 255 301)"/><path d="M59.8125 57.1101 63.4375 57.1101 63.4375 60.736 59.8125 60.736Z" fill="#0070C0" transform="matrix(1.01149 0 0 1 255 301)"/><path d="M67.0625 57.1101 70.6875 57.1101 70.6875 60.736 67.0625 60.736Z" fill="#0070C0" transform="matrix(1.01149 0 0 1 255 301)"/><path d="M59.8125 49.8438 63.4375 49.8438 63.4375 53.4697 59.8125 53.4697Z" fill="#0070C0" transform="matrix(1.01149 0 0 1 255 301)"/><path d="M67.0625 49.8438 70.6875 49.8438 70.6875 53.4697 67.0625 53.4697Z" fill="#0070C0" transform="matrix(1.01149 0 0 1 255 301)"/><path d="M59.8125 42.5938 63.4375 42.5938 63.4375 46.2197 59.8125 46.2197Z" fill="#0070C0" transform="matrix(1.01149 0 0 1 255 301)"/><path d="M67.0625 42.5938 70.6875 42.5938 70.6875 46.2197 67.0625 46.2197Z" fill="#0070C0" transform="matrix(1.01149 0 0 1 255 301)"/><path d="M59.8125 35.3601 63.4375 35.3601 63.4375 38.986 59.8125 38.986Z" fill="#0070C0" transform="matrix(1.01149 0 0 1 255 301)"/><path d="M67.0625 35.3601 70.6875 35.3601 70.6875 38.986 67.0625 38.986Z" fill="#0070C0" transform="matrix(1.01149 0 0 1 255 301)"/><path d="M59.8125 28.0938 63.4375 28.0938 63.4375 31.7197 59.8125 31.7197Z" fill="#0070C0" transform="matrix(1.01149 0 0 1 255 301)"/><path d="M67.0625 28.0938 70.6875 28.0938 70.6875 31.7197 67.0625 31.7197Z" fill="#0070C0" transform="matrix(1.01149 0 0 1 255 301)"/></g></g></g><g clip-path="url(#clip7)"><g clip-path="url(#clip8)"><g clip-path="url(#clip9)"><path d="M516.365 315.148 517.661 313.852 512.351 308.542 517.661 303.231 516.365 301.935 511.055 307.245 505.744 301.935 504.448 303.231 509.758 308.542 504.448 313.852 505.744 315.148 511.055 309.838 516.365 315.148Z" fill="#70AD47"/><path d="M501.822 308.601C502.422 308.661 503.014 308.778 503.592 308.951L504.171 307.137 502.021 306.778Z" fill="#70AD47"/><path d="M488.359 336.788 488.412 338.621C489.39 338.593 490.337 338.534 491.222 338.447L491.038 336.623C490.198 336.704 489.295 336.76 488.359 336.788Z" fill="#70AD47"/><path d="M482.825 338.494C483.772 338.559 484.71 338.603 485.613 338.625L485.658 336.792C484.709 336.769 483.798 336.723 482.951 336.665Z" fill="#70AD47"/><path d="M491.979 315.375C492.452 316.277 493.072 317.095 493.812 317.795L495.122 316.512C494.527 315.951 494.025 315.299 493.633 314.581Z" fill="#70AD47"/><path d="M493.818 312.236C494.15 311.7 494.541 311.204 494.983 310.755L493.683 309.458C493.145 310.005 492.67 310.61 492.267 311.262 492.125 311.486 492 311.72 491.895 311.963L493.576 312.696C493.644 312.537 493.725 312.383 493.818 312.236Z" fill="#70AD47"/><path d="M499.306 308.633 499.048 306.818C498.043 306.957 497.066 307.252 496.152 307.692L496.956 309.342C497.698 308.985 498.491 308.746 499.306 308.633Z" fill="#70AD47"/><path d="M502.289 325.207C501.925 324.291 501.459 323.419 500.899 322.608L499.385 323.64C499.867 324.338 500.268 325.088 500.582 325.877Z" fill="#70AD47"/><path d="M477.263 337.875C477.307 337.882 478.363 338.058 480.046 338.242L480.246 336.418C478.622 336.241 477.58 336.065 477.569 336.064Z" fill="#70AD47"/><path d="M493.679 336.244 494.03 338.045C494.974 337.865 495.904 337.62 496.813 337.311L496.214 335.578C495.386 335.859 494.539 336.082 493.679 336.244Z" fill="#70AD47"/><path d="M498.507 334.504 499.486 336.055C500.367 335.512 501.138 334.808 501.757 333.98L500.275 332.9C499.792 333.542 499.192 334.086 498.507 334.504Z" fill="#70AD47"/><path d="M497.084 318.387 495.829 319.725C496.553 320.404 497.155 320.985 497.743 321.615L499.084 320.367C498.426 319.657 497.733 318.996 497.084 318.387Z" fill="#70AD47"/><path d="M501.192 328.302C501.237 328.698 501.26 329.096 501.26 329.494 501.26 329.672 501.255 329.853 501.246 330.037 501.234 330.284 501.208 330.531 501.166 330.775L502.972 331.089C503.027 330.771 503.063 330.449 503.078 330.126 503.089 329.912 503.093 329.702 503.093 329.494 503.093 329.025 503.066 328.556 503.013 328.091Z" fill="#70AD47"/><path d="M480.839 314.5 482.672 314.5 482.672 311.75 486.522 311.75 481.755 299.833 476.989 311.75 480.839 311.75ZM481.755 304.771 483.814 309.917 479.697 309.917Z" fill="#70AD47"/><path d="M515.308 331.036 516.918 331.036 513.036 321.833 509.154 331.036 510.763 331.036 508.147 336.5 512.118 336.5 512.118 339.25 513.951 339.25 513.951 336.5 517.924 336.5ZM513.036 326.55 514.155 329.202 511.916 329.202ZM511.058 334.667 512.418 331.825 513.036 330.533 513.655 331.825 515.014 334.667Z" fill="#70AD47"/><path d="M486.583 326.875 483.833 320 479.8 330.083 482.917 330.083 482.917 331.917 484.75 331.917 484.75 330.083 488.417 330.083 488.417 331.917 490.25 331.917 490.25 330.083 493.367 330.083 489.333 320ZM484.75 328.25 482.507 328.25 483.833 324.936 485.159 328.25ZM490.25 328.25 488.007 328.25 489.333 324.936 490.659 328.25Z" fill="#70AD47"/><path d="M520.908 292.5 471.917 292.5 471.917 283.333 464.583 283.333C461.547 283.337 459.087 285.797 459.083 288.833L459.083 342C459.087 345.036 461.547 347.496 464.583 347.5L514.083 347.5 514.083 356.667 521.417 356.667C524.453 356.663 526.913 354.203 526.917 351.167L526.917 298C526.768 294.826 524.083 292.368 520.908 292.5ZM460.917 288.833C460.917 286.808 462.558 285.167 464.583 285.167L470.083 285.167 470.083 336.5 464.583 336.5C463.23 336.499 461.924 336.999 460.917 337.903ZM460.917 342C460.917 339.975 462.558 338.333 464.583 338.333L471.917 338.333 471.917 294.333 520.908 294.333C523.07 294.204 524.932 295.84 525.083 298L525.083 345.667 464.583 345.667C462.558 345.667 460.917 344.025 460.917 342ZM525.083 351.167C525.083 353.192 523.442 354.833 521.417 354.833L515.917 354.833 515.917 347.5 525.083 347.5Z" fill="#70AD47"/></g></g></g><g clip-path="url(#clip10)"><g clip-path="url(#clip11)"><g clip-path="url(#clip12)"><path d="M712.292 303.792C712.292 302.142 711.467 300.583 710.183 299.667 712.475 298.108 713.025 294.9 711.467 292.7 710.733 291.692 709.633 290.958 708.35 290.683 710.183 288.575 710 285.458 707.892 283.625 707.067 282.892 705.967 282.433 704.775 282.342 706.517 280.233 706.242 277.025 704.133 275.283 703.217 274.55 702.117 274.092 700.925 274.092L692.217 274.092 692.217 261.167 690.383 261.167 690.383 274 681.583 274C678.833 274 676.542 276.292 676.542 279.042 676.542 280.233 676.908 281.333 677.733 282.25 674.983 282.342 672.783 284.725 672.875 287.475 672.967 288.667 673.333 289.767 674.158 290.592 671.408 291.142 669.667 293.8 670.217 296.55 670.492 297.833 671.225 298.933 672.233 299.667 669.942 301.225 669.392 304.433 670.95 306.633 671.683 307.642 672.783 308.375 674.067 308.65 672.233 310.758 672.417 313.875 674.525 315.708 675.35 316.442 676.45 316.9 677.642 316.992 675.9 319.1 676.175 322.308 678.283 324.05 679.2 324.783 680.3 325.242 681.492 325.242L700.742 325.242C703.492 325.242 705.783 322.95 705.783 320.2 705.783 319.008 705.417 317.908 704.592 316.992 707.342 316.9 709.542 314.517 709.45 311.767 709.358 310.575 708.992 309.475 708.167 308.65 710.55 308.192 712.292 306.175 712.292 303.792ZM710.458 303.792C710.458 305.533 708.992 307 707.25 307L697.167 307 697.167 306.083C697.167 303.792 695.975 301.775 694.05 300.583L707.25 300.583C708.992 300.583 710.458 302.05 710.458 303.792ZM686.167 315.25 686.167 308.008C686.167 307.917 686.167 307.917 686.167 307.825L686.167 306.083C686.167 303.517 688.183 301.5 690.75 301.5 693.317 301.5 695.333 303.517 695.333 306.083L695.333 315.25 686.167 315.25ZM681.583 275.833 700.833 275.833C702.575 275.833 704.042 277.3 704.042 279.042 704.042 280.783 702.575 282.25 700.833 282.25L681.583 282.25C679.842 282.25 678.375 280.783 678.375 279.042 678.375 277.3 679.75 275.833 681.583 275.833ZM677.917 284.083 704.5 284.083C706.242 284.083 707.708 285.55 707.708 287.292 707.708 289.033 706.242 290.5 704.5 290.5L677.917 290.5C676.175 290.5 674.708 289.033 674.708 287.292 674.708 285.55 676.083 284.083 677.917 284.083ZM671.958 295.542C671.958 293.8 673.425 292.333 675.167 292.333L707.25 292.333C708.992 292.333 710.458 293.8 710.458 295.542 710.458 297.283 708.992 298.75 707.25 298.75L675.167 298.75C673.333 298.75 671.958 297.283 671.958 295.542L671.958 295.542ZM671.958 303.792C671.958 302.05 673.425 300.583 675.167 300.583L687.45 300.583C685.525 301.775 684.333 303.792 684.333 306.083L684.333 307 675.167 307C673.333 307 671.958 305.533 671.958 303.792ZM674.708 312.042C674.708 310.3 676.175 308.833 677.917 308.833L684.333 308.833 684.333 315.25 677.917 315.25C676.083 315.25 674.708 313.783 674.708 312.042ZM700.833 323.5 681.583 323.5C679.842 323.5 678.375 322.033 678.375 320.292 678.375 318.55 679.75 317.083 681.583 317.083L700.833 317.083C702.575 317.083 704.042 318.55 704.042 320.292 704.042 322.033 702.575 323.5 700.833 323.5ZM704.5 315.25 697.167 315.25 697.167 308.833 704.5 308.833C706.242 308.833 707.708 310.3 707.708 312.042 707.708 313.783 706.242 315.25 704.5 315.25Z" fill="#0070C0"/><path d="M664.167 294.258 663.617 293.342C663.25 292.792 662.792 292.242 662.333 291.783 662.15 291.6 661.967 291.417 661.783 291.325 662.608 291.142 663.158 290.225 662.883 289.4 662.883 289.4 664.533 288.575 663.617 287.292 663.525 287.108 663.342 287.017 663.158 287.108 662.15 287.108 659.95 288.575 658.483 289.675 658.3 289.675 658.025 289.583 657.842 289.583 657.75 289.583 657.658 289.583 657.567 289.583 657.567 289.217 657.475 288.942 657.292 288.667 656.558 288.117 655.55 288.3 655.092 289.033 654.358 289.583 654.267 290.592 654.725 291.233 654.908 291.417 655.183 291.508 655.55 291.508 655.55 291.508 655.642 291.508 655.642 291.508 655.642 291.783 655.642 292.15 655.733 292.425 654.358 294.258 652.525 297.008 653.35 297.558 653.533 297.742 653.808 297.833 654.083 297.833 654.908 297.833 655.367 296.825 655.367 296.825 656.192 297.008 657.108 296.55 657.292 295.725 657.475 295.908 657.567 296.092 657.75 296.275 658.208 296.733 658.758 297.192 659.4 297.558L660.317 298.017C661.233 298.475 662.333 298.567 663.342 298.2L665.175 299.117 664.258 297.283C664.808 296.367 664.717 295.267 664.167 294.258ZM659.125 294.9C659.033 294.808 658.942 294.717 658.85 294.625L658.85 294.625C658.758 294.533 658.667 294.442 658.483 294.35L658.483 293.708 659.767 292.425 660.5 292.517C660.592 292.608 660.683 292.7 660.775 292.792 660.867 292.883 661.05 292.975 661.142 293.158 661.142 293.158 661.142 293.158 661.142 293.158 660.592 293.8 659.858 294.442 659.125 294.9ZM662.792 296.642C662.333 296.733 661.783 296.733 661.325 296.458L660.683 296.092C661.325 295.633 661.783 295.175 662.333 294.625L662.608 295.175C662.792 295.633 662.883 296.092 662.792 296.642Z" fill="#0070C0"/><path d="M721.458 327.442C721.825 326.433 721.733 325.333 721.275 324.325L720.725 323.408C720.358 322.858 719.9 322.308 719.442 321.85 719.258 321.667 719.075 321.483 718.892 321.392 719.717 321.208 720.267 320.292 719.992 319.467 719.992 319.467 721.642 318.642 720.725 317.358 720.633 317.175 720.45 317.083 720.267 317.175 719.258 317.175 717.058 318.642 715.592 319.742 715.408 319.742 715.133 319.65 714.95 319.65 714.858 319.65 714.767 319.65 714.675 319.65 714.675 319.283 714.583 319.008 714.4 318.733 713.667 318.183 712.658 318.367 712.2 319.1 711.467 319.65 711.375 320.658 711.833 321.3 712.017 321.483 712.292 321.575 712.658 321.575 712.658 321.575 712.75 321.575 712.75 321.575 712.75 321.85 712.75 322.217 712.842 322.492 711.467 324.325 709.633 327.075 710.458 327.625 710.642 327.808 710.917 327.9 711.192 327.9 712.017 327.9 712.475 326.892 712.475 326.892 713.3 327.075 714.217 326.617 714.4 325.792 714.4 325.792 714.4 325.792 714.4 325.792 714.583 325.975 714.675 326.158 714.858 326.342 715.317 326.8 715.867 327.258 716.508 327.625L717.425 328.175C718.342 328.633 719.442 328.725 720.45 328.358L722.283 329.275 721.458 327.442ZM716.142 324.967C716.05 324.875 715.958 324.783 715.867 324.692L715.867 324.692C715.775 324.6 715.683 324.508 715.5 324.417L715.5 323.775 716.783 322.492 717.517 322.583C717.608 322.675 717.7 322.767 717.792 322.858 717.883 322.95 718.067 323.042 718.158 323.225 718.158 323.225 718.158 323.225 718.158 323.225 717.608 323.867 716.875 324.508 716.142 324.967ZM719.808 326.617C719.35 326.708 718.8 326.708 718.342 326.433L717.7 326.067C718.342 325.608 718.8 325.15 719.35 324.6L719.625 325.15C719.808 325.608 719.9 326.158 719.808 326.617Z" fill="#0070C0"/><path d="M711.1 277.483C712.108 277.85 713.208 277.758 714.125 277.3L715.042 276.75C715.592 276.383 716.142 275.925 716.6 275.467 716.783 275.283 716.967 275.1 717.058 274.917 717.242 275.65 717.883 276.108 718.617 276.108 718.8 276.108 718.892 276.108 719.075 276.017 719.075 276.017 719.533 277.025 720.358 277.025 720.633 277.025 720.908 276.933 721.092 276.75 721.917 276.108 720.083 273.358 718.708 271.617 718.8 271.342 718.8 270.975 718.8 270.7 718.892 270.7 718.892 270.7 718.983 270.7 719.258 270.7 719.533 270.608 719.717 270.425 720.267 269.692 720.083 268.683 719.35 268.133 718.8 267.4 717.792 267.308 717.15 267.767 716.875 268.042 716.783 268.317 716.875 268.683 716.783 268.683 716.692 268.683 716.6 268.683 716.417 268.683 716.142 268.683 715.958 268.775 714.4 267.675 712.292 266.208 711.283 266.208 711.1 266.208 710.917 266.3 710.825 266.392 709.908 267.675 711.558 268.5 711.558 268.5 711.375 269.325 711.833 270.242 712.658 270.425 712.475 270.608 712.292 270.7 712.108 270.883 711.65 271.342 711.192 271.892 710.825 272.533L710.275 273.45C709.817 274.367 709.725 275.467 710.092 276.475L709.175 278.308 711.1 277.483ZM712.383 275.833C712.2 275.833 712.017 275.833 711.833 275.742 711.742 275.283 711.742 274.733 712.017 274.275L712.383 273.633C712.842 274.275 713.3 274.733 713.85 275.283L713.3 275.558C713.025 275.742 712.658 275.833 712.383 275.833ZM713.85 271.892 713.85 271.892C714.033 271.8 714.125 271.617 714.217 271.525L714.858 271.525 716.142 272.808 716.05 273.542C715.958 273.633 715.867 273.725 715.775 273.817 715.683 273.908 715.592 274.092 715.408 274.183L715.408 274.183C714.675 273.633 714.033 272.9 713.575 272.167 713.575 272.075 713.758 271.983 713.85 271.892Z" fill="#0070C0"/></g></g></g><text font-family="Segoe UI,Segoe UI_MSFontService,sans-serif" font-weight="600" font-size="19" transform="translate(272.516 469)"><tspan x="0" y="0">100 users</tspan><tspan font-size="19" x="199.007" y="-23">2400 users</tspan><tspan font-size="19" x="398.013" y="-49">6000 users</tspan><tspan font-size="19" x="581.248" y="-73">9827 users</tspan></text></g></svg>