<!--PureVizConfig>[{"vid":"91","visualtype":"tspan","propertyType":"textcontent","mappingOption":"custom","mappedValue":["Product Sales Funnel: [Product Name]"]},{"vid":"144","visualtype":"tspan","propertyType":"textcontent","mappingOption":"custom","mappedValue":["{math|12|0;,}"]},{"vid":"143","visualtype":"tspan","propertyType":"textcontent","mappingOption":"custom","mappedValue":["{math|81|0;}"]},{"vid":"142","visualtype":"tspan","propertyType":"textcontent","mappingOption":"custom","mappedValue":["{math|287|0;,}"]},{"vid":"141","visualtype":"tspan","propertyType":"textcontent","mappingOption":"custom","mappedValue":["{math|2956|0;}"]},{"vid":"92","visualtype":"tspan","propertyType":"numbercountup","mappingOption":"custom2","mappedValue":[null,null,"1",null,"","","SALES"]},{"vid":"102","visualtype":"tspan","propertyType":"numbercountup","mappingOption":"custom2","mappedValue":[null,null,"1",null,"","","OPPORTUNITES"]},{"vid":"103","visualtype":"tspan","propertyType":"numbercountup","mappingOption":"custom2","mappedValue":[null,null,"1",null,"","","LEADS"]},{"vid":"104","visualtype":"tspan","propertyType":"numbercountup","mappingOption":"custom2","mappedValue":[null,null,"1",null,"","","ENGAGEMENTS"]}]</PureVizConfig--><svg viewBox="0 0 802 536" width="802" height="536" xmlns="http://www.w3.org/2000/svg" xmlns:xlink="http://www.w3.org/1999/xlink" overflow="hidden"><defs><clipPath id="clip0"><rect x="255" y="127" width="802" height="536"/></clipPath><radialGradient cx="0.125" cy="0.125" r="3.37406e+06" fx="0" fy="0" gradientUnits="userSpaceOnUse" spreadMethod="pad" id="fill1" gradientTransform="matrix(0.000104987 0 0 0.000104987 301 202)"><stop offset="0" stop-color="#51C3F9"/><stop offset="0.46" stop-color="#51C3F9"/><stop offset="0.78" stop-color="#08A5EF"/><stop offset="1" stop-color="#08A5EF"/></radialGradient><radialGradient cx="790575" cy="1.11442e+06" r="1.36636e+06" gradientUnits="userSpaceOnUse" spreadMethod="pad" id="fill2" gradientTransform="matrix(0.000104987 0 0 0.000104987 427 512)"><stop offset="0" stop-color="#E9E7D9"/><stop offset="0.78" stop-color="#E5E2D1"/><stop offset="1" stop-color="#E5E2D1"/></radialGradient><radialGradient cx="1.6002e+06" cy="1.12395e+06" r="1.95548e+06" fx="1.6002e+06" fy="1.12395e+06" gradientUnits="userSpaceOnUse" spreadMethod="pad" id="fill3" gradientTransform="matrix(0.000104987 0 0 0.000104987 384 407)"><stop offset="0" stop-color="#37A76F"/><stop offset="0.78" stop-color="#297D53"/><stop offset="1" stop-color="#297D53"/></radialGradient><radialGradient cx="2.4003e+06" cy="1.12395e+06" r="2.65042e+06" fx="2.4003e+06" gradientUnits="userSpaceOnUse" spreadMethod="pad" id="fill4" gradientTransform="matrix(0.000104987 0 0 0.000104987 342 303)"><stop offset="0" stop-color="#99CB38"/><stop offset="0.78" stop-color="#4D671B"/><stop offset="1" stop-color="#4D671B"/></radialGradient><radialGradient cx="790575" cy="371475" r="873500" fy="371475" gradientUnits="userSpaceOnUse" spreadMethod="pad" id="fill5" gradientTransform="matrix(0.000104987 0 0 0.000104987 427 512)"><stop offset="0" stop-color="#E8E5D6"/><stop offset="0.77" stop-color="#706A40"/><stop offset="1" stop-color="#706A40"/></radialGradient><radialGradient cx="0.0625" cy="0.0625" r="1.14161e+06" fx="0" fy="0" gradientUnits="userSpaceOnUse" spreadMethod="pad" id="fill6" gradientTransform="matrix(0.000104987 0 0 0.000104987 429 538)"><stop offset="0" stop-color="#C6C09B"/><stop offset="0.46" stop-color="#C6C09B"/><stop offset="0.92" stop-color="#5D5835"/><stop offset="1" stop-color="#5D5835"/></radialGradient><radialGradient cx="1.6002e+06" cy="381000" r="1.64493e+06" fx="1.6002e+06" fy="381000" gradientUnits="userSpaceOnUse" spreadMethod="pad" id="fill7" gradientTransform="matrix(0.000104987 0 0 0.000104987 384 407)"><stop offset="0" stop-color="#37A76F"/><stop offset="0.89" stop-color="#297D53"/><stop offset="1" stop-color="#297D53"/></radialGradient><radialGradient cx="0" cy="0" r="1.77924e+06" gradientUnits="userSpaceOnUse" spreadMethod="pad" id="fill8" gradientTransform="matrix(0.000104987 0 0 0.000104987 387 432)"><stop offset="0" stop-color="#37A76F"/><stop offset="0.46" stop-color="#37A76F"/><stop offset="0.78" stop-color="#297D53"/><stop offset="1" stop-color="#297D53"/></radialGradient><radialGradient cx="2.4003e+06" cy="371475" r="2.42888e+06" gradientUnits="userSpaceOnUse" spreadMethod="pad" id="fill9" gradientTransform="matrix(0.000104987 0 0 0.000104987 342 303)"><stop offset="0" stop-color="#99CB38"/><stop offset="0.91" stop-color="#4D671B"/><stop offset="1" stop-color="#4D671B"/></radialGradient><radialGradient cx="0.125" cy="0.125" r="2.52619e+06" fx="0" fy="0" gradientUnits="userSpaceOnUse" spreadMethod="pad" id="fill10" gradientTransform="matrix(0.000104987 0 0 0.000104987 344 327)"><stop offset="0" stop-color="#99CB38"/><stop offset="0.46" stop-color="#99CB38"/><stop offset="0.78" stop-color="#739A28"/><stop offset="1" stop-color="#739A28"/></radialGradient><radialGradient cx="3.18135e+06" cy="371475" r="3.20296e+06" gradientUnits="userSpaceOnUse" spreadMethod="pad" id="fill11" gradientTransform="matrix(0.000104987 0 0 0.000104987 301 202)"><stop offset="0" stop-color="#51C3F9"/><stop offset="0.69" stop-color="#066E9F"/><stop offset="1" stop-color="#066E9F"/></radialGradient><radialGradient cx="0" cy="0" r="3.31547e+06" gradientUnits="userSpaceOnUse" spreadMethod="pad" id="fill12" gradientTransform="matrix(0.000104987 0 0 0.000104987 301 222)"><stop offset="0" stop-color="#51C3F9"/><stop offset="0.46" stop-color="#51C3F9"/><stop offset="0.78" stop-color="#08A5EF"/><stop offset="1" stop-color="#08A5EF"/></radialGradient><clipPath id="clip13"><rect x="435" y="348" width="67" height="67"/></clipPath><clipPath id="clip14"><rect x="435" y="348" width="67" height="67"/></clipPath><clipPath id="clip15"><rect x="435" y="348" width="67" height="67"/></clipPath><clipPath id="clip16"><rect x="437" y="249" width="64" height="64"/></clipPath><clipPath id="clip17"><rect x="437" y="249" width="64" height="64"/></clipPath><clipPath id="clip18"><rect x="437" y="249" width="64" height="64"/></clipPath><clipPath id="clip19"><rect x="440" y="457" width="57" height="56"/></clipPath><clipPath id="clip20"><rect x="440" y="457" width="57" height="56"/></clipPath><clipPath id="clip21"><rect x="440" y="457" width="57" height="56"/></clipPath><clipPath id="clip22"><rect x="451" y="561" width="33" height="33"/></clipPath><clipPath id="clip23"><rect x="451" y="561" width="33" height="33"/></clipPath><clipPath id="clip24"><rect x="451" y="561" width="33" height="33"/></clipPath></defs><g clip-path="url(#clip0)" transform="translate(-255 -127)"><rect x="256" y="127" width="800" height="535" fill="#FFFFFF" fill-opacity="0.701961"/><path d="M718.159 241 586 241" stroke="#404040" stroke-width="7.66667" stroke-miterlimit="8" stroke-opacity="0.619608" fill="none" fill-rule="evenodd"/><path d="M717.918 344.723 553 343" stroke="#404040" stroke-width="7.66667" stroke-miterlimit="8" stroke-opacity="0.619608" fill="none" fill-rule="evenodd"/><path d="M718.015 554 494 554" stroke="#404040" stroke-width="7.66667" stroke-miterlimit="8" stroke-opacity="0.619608" fill="none" fill-rule="evenodd"/><path d="M718.606 448 526 448" stroke="#404040" stroke-width="7.66667" stroke-miterlimit="8" stroke-opacity="0.619608" fill="none" fill-rule="evenodd"/><path d="M496.915 313.829 505.411 314.238 499.552 313.881ZM439.085 313.829 436.448 313.881 430.589 314.238ZM468 202C560.231 202 635 210.776 635 221.603L634.882 221.878 635 221.878 613.453 279.137 608.001 293.625 607.651 293.97C596.258 303.25 570.85 310.966 537.7 315.529L533.083 316.092 528.178 315.629 523.662 315.354 532.264 316.078 524.917 317.089C507.423 318.963 488.19 320 468 320 447.811 320 428.577 318.963 411.083 317.089L403.736 316.078 412.338 315.353 407.822 315.629 402.917 316.092 398.301 315.529C365.15 310.966 339.742 303.25 328.349 293.97L327.999 293.625 322.547 279.137 301 221.878 301.118 221.878 301 221.603C301 210.776 375.768 202 468 202Z" fill="url(#fill1)" fill-rule="evenodd"/><path d="M506.759 539.049 507.52 537.9C507.52 537.9 507.52 537.9 507.52 537.9L480.076 610.169 474.507 624.833 474.507 624.833 474.357 625.229 473.071 627.121C471.901 628.282 470.285 629 468.5 629 466.715 629 465.098 628.282 463.929 627.121L462.644 625.23 462.492 624.831 429.481 537.901C429.481 537.901 429.48 537.901 429.48 537.9L427 531.368 427.822 527.546C429.481 523.744 433.504 520.345 439.139 517.703L443.333 516.08C443.333 516.08 443.333 516.08 443.333 516.08L445.285 515.325C451.912 513.226 459.9 512 468.5 512 477.099 512 485.088 513.226 491.715 515.325L493.667 516.08C493.667 516.08 493.667 516.08 493.667 516.08L497.86 517.703C503.496 520.345 507.519 523.744 509.178 527.546L510 531.369 507.52 537.9 506.759 539.049" fill="url(#fill2)" fill-rule="evenodd"/><path d="M468 485.813C494.103 485.813 515.882 492.529 520.919 501.458L521.829 504.733 519.446 511.076 517.771 513.033C513.671 516.549 506.822 519.541 498.201 521.654L493.053 522.667 489.026 523.46C482.563 524.452 475.458 525 468 525 460.542 525 453.437 524.452 446.974 523.46L442.947 522.667 444.89 521.907C445.213 521.781 445.213 521.781 444.889 521.907L442.946 522.667 437.799 521.654C429.178 519.541 422.328 516.549 418.228 513.033L416.554 511.076 414.171 504.733 415.081 501.458C420.118 492.529 441.896 485.813 468 485.813ZM468 407C485.511 407 501.779 408.234 515.273 410.346L517.468 410.766 527.786 412.739C539.261 415.398 547.453 418.818 550.832 422.645L552 424.418 549.119 432.086 549.119 432.086 521.829 504.733 520.919 501.457C515.882 492.529 494.103 485.813 468 485.813 441.896 485.813 420.118 492.529 415.081 501.457L414.171 504.732 386.881 432.086 386.881 432.086 384 424.418 385.168 422.645C388.546 418.818 396.739 415.398 408.214 412.739L418.532 410.766 420.727 410.346C434.222 408.234 450.489 407 468 407Z" fill="url(#fill3)" fill-rule="evenodd"/><path d="M468 414.328C485.58 414.328 501.912 415.563 515.46 417.678L517.664 418.098 505.389 419.459C493.897 420.451 481.262 421 468 421 454.738 421 442.103 420.451 430.611 419.459L418.336 418.098 420.54 417.678C434.088 415.563 450.42 414.328 468 414.328ZM402.802 305.83 410.983 306.828C428.507 308.703 447.775 309.741 468 309.741 488.225 309.741 507.493 308.703 525.018 306.828L533.198 305.83 538.711 306.35C568.988 309.522 589.932 314.674 593.818 320.609L594 321.168 592.005 326.462 592.005 326.462 563.945 400.943 562.477 404.837 562.103 405.339C556.984 410.446 542.145 414.83 521.705 417.65L517.664 418.098 515.46 417.678C501.912 415.563 485.58 414.328 468 414.328 450.42 414.328 434.088 415.563 420.54 417.678L418.336 418.098 414.295 417.65C393.855 414.83 379.016 410.446 373.898 405.339L373.523 404.837 372.056 400.943 343.995 326.462 343.995 326.462 342 321.167 342.182 320.609C346.068 314.674 367.011 309.522 397.289 306.35ZM468 303C489.827 303 510.364 303.858 528.284 305.367L533.198 305.83 525.018 306.827C507.493 308.703 488.225 309.741 468 309.741 447.775 309.741 428.507 308.703 410.983 306.827L402.802 305.83 407.716 305.367C425.636 303.858 446.172 303 468 303Z" fill="url(#fill4)" fill-rule="evenodd"/><text fill="#404040" font-family="Segoe UI,Segoe UI_MSFontService,sans-serif" font-weight="600" font-size="24" transform="translate(326.365 182)"><tspan x="0" y="0">Infographic Funnel Sample</tspan><tspan fill="#B7B28D" font-weight="700" font-size="24" x="424.818" y="381">SALES</tspan></text><path d="M468.5 512C477.099 512 485.088 513.228 491.715 515.33L493.667 516.087 493.667 516.087 497.86 517.711C503.496 520.358 507.519 523.762 509.178 527.57L510 531.398 507.52 537.939 506.759 539.09C500.455 546.089 485.699 551 468.5 551 451.301 551 436.544 546.089 430.241 539.09L429.48 537.94 427 531.398 427.822 527.57C429.481 523.762 433.504 520.358 439.139 517.711L443.333 516.087 443.333 516.087 445.285 515.33C451.912 513.228 459.9 512 468.5 512Z" fill="url(#fill5)" fill-rule="evenodd"/><path d="M507 538 479.57 610.19 474.004 624.837 474.004 624.837 473.854 625.233 472.568 627.123C471.399 628.283 469.784 629 468 629 466.215 629 464.6 628.283 463.431 627.123L462.146 625.234 461.995 624.835 429 538.001 429 538.001 429.76 539.148C436.06 546.129 450.81 551.027 468 551.027 485.19 551.027 499.939 546.129 506.239 539.148L507 538Z" fill="url(#fill6)" fill-rule="evenodd"/><path d="M468 407C485.511 407 501.779 408.259 515.273 410.416L517.468 410.844 527.786 412.858C539.261 415.572 547.453 419.063 550.832 422.969L552 424.779 549.119 432.607 548.749 432.947C538.044 441.089 505.94 447 468 447 430.06 447 397.956 441.089 387.251 432.947L386.881 432.607 384 424.779 385.168 422.969C388.546 419.063 396.739 415.572 408.214 412.858L418.532 410.844 420.727 410.416C434.222 408.259 450.489 407 468 407Z" fill="url(#fill7)" fill-rule="evenodd"/><path d="M468 485.776C494.065 485.776 515.812 492.499 520.841 501.436L521.75 504.714 519.37 511.063 517.698 513.022C513.604 516.541 506.765 519.536 498.157 521.651L493.017 522.665 493.017 522.665 488.995 523.459C482.542 524.451 475.447 525 468 525 460.553 525 453.458 524.451 447.005 523.459L442.983 522.665 444.924 521.904C445.247 521.778 445.247 521.778 444.924 521.904L442.983 522.665 437.843 521.651C429.235 519.536 422.396 516.541 418.302 513.022L416.63 511.063 414.25 504.714 415.159 501.436C420.188 492.499 441.935 485.776 468 485.776ZM387 432 387.37 432.334C398.059 440.318 430.116 446.114 468 446.114 505.884 446.114 537.941 440.318 548.63 432.334L549 432 521.75 504.714 520.841 501.436C515.812 492.499 494.065 485.776 468 485.776 441.935 485.776 420.188 492.499 415.159 501.436L414.25 504.714 387 432Z" fill="url(#fill8)" fill-rule="evenodd"/><path d="M402.802 305.814 410.983 306.805C428.507 308.67 447.775 309.701 468 309.701 488.225 309.701 507.493 308.67 525.018 306.805L533.198 305.814 538.711 306.33C568.988 309.484 589.932 314.606 593.818 320.506L594 321.062 592.005 326.325 591.902 326.43C580.109 335.316 529.117 342 468 342 406.883 342 355.891 335.316 344.098 326.43L343.995 326.326 342 321.061 342.182 320.506C346.068 314.606 367.011 309.484 397.289 306.33ZM468 303C489.827 303 510.364 303.853 528.284 305.353L533.198 305.814 525.018 306.805C507.493 308.67 488.225 309.701 468 309.701 447.775 309.701 428.507 308.67 410.983 306.805L402.802 305.814 407.716 305.353C425.636 303.853 446.172 303 468 303Z" fill="url(#fill9)" fill-rule="evenodd"/><path d="M468 414.366C485.579 414.366 501.911 415.594 515.458 417.697L517.662 418.115 505.387 419.467C493.896 420.454 481.262 421 468 421 454.738 421 442.104 420.454 430.613 419.467L418.338 418.115 420.542 417.697C434.089 415.594 450.421 414.366 468 414.366ZM592 327 563.94 401.057 562.473 404.929 562.099 405.428C556.981 410.506 542.142 414.865 521.702 417.669L517.662 418.114 515.458 417.697C501.911 415.594 485.579 414.366 468 414.366 450.42 414.366 434.089 415.594 420.542 417.697L418.338 418.114 414.297 417.669C393.858 414.865 379.019 410.506 373.901 405.428L373.527 404.929 372.06 401.057 344 327 344.103 327.105C355.896 335.992 406.885 342.677 468 342.677 529.114 342.677 580.104 335.992 591.896 327.105Z" fill="url(#fill10)" fill-rule="evenodd"/><path d="M468 202C560.232 202 635 210.73 635 221.5L634.882 221.774 634.138 223.494C625.586 233.327 554.467 241 468 241 381.533 241 310.414 233.327 301.862 223.494L301.118 221.774 301 221.5C301 210.73 375.768 202 468 202Z" fill="url(#fill11)" fill-rule="evenodd"/><path d="M496.915 313.837 505.411 314.246 499.551 313.888ZM439.085 313.837 436.448 313.888 430.589 314.246ZM301 222 301.118 222 301.862 223.727C310.414 233.6 381.533 241.304 468 241.304 554.467 241.304 625.586 233.6 634.138 223.727L634.882 222 635 222 613.453 279.188 608.001 293.658 607.651 294.002C596.258 303.271 570.85 310.977 537.7 315.534L533.083 316.097 528.178 315.635 523.662 315.359 532.264 316.083 524.917 317.092C507.423 318.965 488.19 320 468 320 447.811 320 428.577 318.965 411.083 317.092L403.736 316.083 412.338 315.359 407.822 315.635 402.917 316.097 398.3 315.534C365.15 310.977 339.742 303.271 328.349 294.002L327.999 293.658 322.547 279.188Z" fill="url(#fill12)" fill-rule="evenodd"/><text fill="#37A76F" font-family="Segoe UI,Segoe UI_MSFontService,sans-serif" font-weight="700" font-size="24" transform="translate(751.184 458)"><tspan x="0" y="0">OPPORTUNITES</tspan><tspan fill="#99CB38" font-size="24" x="0" y="-105">LEADS</tspan><tspan fill="#08A5EF" font-size="24" x="0" y="-207">ENGAGEMENTS</tspan></text><g clip-path="url(#clip13)"><g clip-path="url(#clip14)"><g clip-path="url(#clip15)"><path d="M471.815 375.254 465.666 375.254C465.088 375.254 464.62 375.722 464.62 376.301 464.62 376.879 465.088 377.347 465.666 377.347L471.815 377.347C472.393 377.347 472.862 376.879 472.862 376.301 472.862 375.722 472.393 375.254 471.815 375.254Z" fill="#000000" fill-opacity="0.44"/><path d="M468.737 380.802C469.917 380.801 470.893 379.885 470.971 378.708L466.511 378.708C466.585 379.884 467.559 380.801 468.737 380.802Z" fill="#000000" fill-opacity="0.44"/><path d="M468.737 355.286 468.737 355.286C463.863 355.32 459.905 359.234 459.818 364.108L459.818 364.415C459.842 365.485 460.052 366.544 460.439 367.542 460.8 368.474 461.325 369.335 461.988 370.082 462.816 371.127 463.519 372.266 464.082 373.474 464.199 373.706 464.436 373.854 464.696 373.858L472.792 373.858C473.052 373.854 473.289 373.706 473.406 373.474 473.97 372.266 474.673 371.128 475.5 370.082 476.16 369.333 476.682 368.473 477.043 367.542 477.419 366.553 477.629 365.508 477.664 364.45L477.664 364.143C477.592 359.254 473.626 355.32 468.737 355.286ZM475.605 364.359C475.576 365.183 475.411 365.997 475.116 366.767 474.841 367.459 474.447 368.096 473.951 368.651 473.167 369.602 472.495 370.639 471.948 371.743L465.534 371.743C464.985 370.639 464.31 369.602 463.524 368.651 463.03 368.096 462.638 367.458 462.365 366.767 462.071 365.997 461.906 365.183 461.877 364.359L461.877 364.108C461.941 360.358 464.987 357.346 468.737 357.324L468.737 357.324C472.488 357.346 475.537 360.357 475.605 364.108Z" fill="#000000" fill-opacity="0.44"/><path d="M465.373 366.376 469.065 359.167 469.065 363.34 472.897 362.579 469.065 369.635 469.065 365.539 465.373 366.376Z" fill="#000000" fill-opacity="0.44"/><path d="M488.628 385.359C488.628 388.358 486.197 390.789 483.198 390.789 480.199 390.789 477.768 388.358 477.768 385.359 477.768 382.361 480.199 379.93 483.198 379.93 486.197 379.93 488.628 382.361 488.628 385.359Z" fill="#000000" fill-opacity="0.44"/><path d="M459.664 385.359C459.664 388.358 457.233 390.789 454.235 390.789 451.236 390.789 448.805 388.358 448.805 385.359 448.805 382.361 451.236 379.93 454.235 379.93 457.233 379.93 459.664 382.361 459.664 385.359Z" fill="#000000" fill-opacity="0.44"/><path d="M492.969 395.493C491.405 394.275 489.595 393.411 487.665 392.96 486.212 392.536 484.711 392.301 483.198 392.262 481.682 392.259 480.174 392.494 478.731 392.96 477.286 393.345 475.904 393.937 474.628 394.719 474.544 394.816 474.467 394.914 474.376 395.005 476.406 395.551 478.305 396.5 479.96 397.796 481.266 398.749 482.028 400.277 482.005 401.893L482.005 403.135 494.058 403.135 494.058 397.671C494.079 396.809 493.671 395.993 492.969 395.493Z" fill="#000000" fill-opacity="0.44"/><path d="M455.442 401.893C455.444 400.323 456.163 398.839 457.396 397.866L457.48 397.796 457.571 397.734C459.244 396.543 461.096 395.624 463.056 395.012 462.917 394.865 462.791 394.712 462.658 394.558 461.432 393.84 460.109 393.302 458.729 392.96 457.277 392.535 455.775 392.301 454.263 392.262 452.746 392.259 451.239 392.495 449.796 392.96 447.892 393.485 446.097 394.343 444.492 395.493 443.804 396.009 443.392 396.812 443.375 397.671L443.375 403.135 455.442 403.135Z" fill="#000000" fill-opacity="0.44"/><path d="M457.857 407.323 457.857 401.893C457.86 401.039 458.263 400.236 458.946 399.723 460.548 398.567 462.344 397.709 464.25 397.189 465.692 396.721 467.2 396.485 468.716 396.491 470.229 396.527 471.731 396.761 473.183 397.189 475.117 397.636 476.93 398.5 478.494 399.723 479.193 400.221 479.599 401.035 479.576 401.893L479.576 407.323Z" fill="#000000" fill-opacity="0.44"/><path d="M474.146 389.582C474.146 392.581 471.715 395.012 468.716 395.012 465.718 395.012 463.287 392.581 463.287 389.582 463.287 386.583 465.718 384.152 468.716 384.152 471.715 384.152 474.146 386.583 474.146 389.582Z" fill="#000000" fill-opacity="0.44"/></g></g></g><g clip-path="url(#clip16)"><g clip-path="url(#clip17)"><g clip-path="url(#clip18)"><path d="M492.267 275.067C492.067 275.067 491.867 275.067 491.667 275.067L489.933 270.4C493.933 268.133 495.333 263.067 493.133 259.067 490.867 255.067 485.8 253.667 481.8 255.867 479.867 256.933 478.4 258.8 477.867 260.933L471.667 260.267C471.2 257.333 468.467 255.267 465.533 255.733 462.867 256.133 460.933 258.4 460.933 261.067 460.933 262 461.2 262.933 461.667 263.8L454.2 271.133C452.8 270.067 451.067 269.467 449.267 269.467 444.667 269.467 440.933 273.2 440.933 277.8 440.933 282.4 444.667 286.133 449.267 286.133L450.933 296.133C448.2 297.333 446.933 300.533 448.133 303.267 449.333 306 452.533 307.267 455.267 306.067 457.8 305 459.067 302.2 458.333 299.533L464.2 296.467C468 300.667 474.533 301 478.8 297.2 480.933 295.267 482.2 292.467 482.2 289.6 482.2 288.867 482.133 288.067 481.933 287.333L488.4 284C490.4 286.267 493.8 286.467 496.067 284.467 498.333 282.467 498.533 279.067 496.533 276.8 495.267 275.733 493.8 275.067 492.267 275.067L492.267 275.067ZM492.267 277.067C493.133 277.067 493.8 277.733 493.8 278.6 493.8 279.467 493.133 280.133 492.267 280.133 491.4 280.133 490.733 279.467 490.733 278.6 490.733 278.6 490.733 278.6 490.733 278.6 490.733 277.733 491.4 277.067 492.267 277.067L492.267 277.067ZM485.867 258.067C487.133 258.067 488.2 259.133 488.2 260.4 488.2 261.667 487.133 262.733 485.867 262.733 484.6 262.733 483.533 261.667 483.533 260.4 483.533 260.4 483.533 260.4 483.533 260.4 483.533 259.133 484.533 258.067 485.867 258.067ZM481.133 265.667C481.133 265.333 481.333 264.933 481.6 264.733 482.267 264.267 483.067 263.867 483.867 263.667 484.467 263.467 485.133 263.4 485.8 263.4 486.467 263.4 487.133 263.533 487.733 263.667 488.533 263.867 489.333 264.267 490 264.8 490.267 265 490.467 265.4 490.467 265.733L490.467 267.533 481.133 267.533 481.133 265.667ZM466.267 257.667C467.133 257.667 467.8 258.333 467.8 259.2 467.8 260.067 467.133 260.733 466.267 260.733 465.4 260.733 464.733 260.067 464.733 259.2 464.733 259.2 464.733 259.2 464.733 259.2 464.733 258.4 465.4 257.667 466.267 257.667L466.267 257.667ZM463.133 262.667C463.133 262.4 463.267 262.2 463.467 262.067 463.933 261.733 464.467 261.533 465 261.4 465.4 261.267 465.867 261.2 466.267 261.2 466.667 261.2 467.133 261.267 467.533 261.4 468.067 261.533 468.533 261.8 469 262.133 469.2 262.267 469.333 262.533 469.333 262.733L469.333 263.933 463.2 263.933 463.2 262.667ZM449.133 272.733C450.4 272.733 451.467 273.8 451.467 275.067 451.467 276.333 450.4 277.4 449.133 277.4 447.867 277.4 446.8 276.333 446.8 275.067 446.8 275.067 446.8 275.067 446.8 275.067 446.867 273.8 447.867 272.733 449.133 272.733L449.133 272.733ZM444.467 282.133 444.467 280.333C444.467 280 444.667 279.6 444.933 279.4 445.6 278.933 446.4 278.533 447.2 278.333 447.8 278.133 448.467 278.067 449.133 278.067 449.8 278.067 450.467 278.2 451.067 278.333 451.867 278.533 452.667 278.933 453.333 279.467 453.6 279.667 453.8 280.067 453.8 280.4L453.8 282.2 444.467 282.133ZM456 303.867 449.8 303.867 449.8 302.667C449.8 302.4 449.933 302.2 450.133 302.067 450.6 301.733 451.133 301.467 451.667 301.333 452.067 301.2 452.533 301.133 452.933 301.133 453.333 301.133 453.8 301.2 454.2 301.333 454.733 301.467 455.2 301.733 455.667 302.067 455.867 302.2 456 302.467 456 302.667L456 303.867ZM451.333 299.2C451.333 298.333 452 297.667 452.867 297.667 453.733 297.667 454.4 298.333 454.4 299.2 454.4 300.067 453.733 300.733 452.867 300.733 452.067 300.8 451.4 300.067 451.333 299.2L451.333 299.2ZM456.667 297.333C455.8 296.467 454.6 295.933 453.4 295.8L451.733 285.8C453.333 285.267 454.733 284.267 455.733 282.933L461.933 286.2C460.933 288.867 461.133 291.867 462.467 294.4L456.667 297.333ZM463.2 283.733 457.067 280.533C457.333 279.667 457.467 278.8 457.467 277.867 457.467 276.133 456.933 274.467 455.933 273.067L463.4 265.8C465.933 267.333 469.267 266.6 470.8 264.067 471 263.733 471.133 263.4 471.267 263.067L477.467 263.733C477.6 266.133 478.8 268.4 480.733 269.867L475.267 280.067C470.933 278.333 465.933 279.867 463.2 283.733L463.2 283.733ZM474.533 286.2C474.533 287.8 473.2 289.067 471.6 289.067 470 289.067 468.733 287.8 468.733 286.2 468.733 284.6 470 283.333 471.6 283.333 471.6 283.333 471.6 283.333 471.667 283.333 473.267 283.333 474.533 284.6 474.533 286.2L474.533 286.2ZM477.4 294.933 465.867 294.933 465.867 292.733C465.867 292.267 466.067 291.867 466.467 291.6 467.333 291 468.267 290.533 469.267 290.2 470.067 290 470.867 289.867 471.667 289.867 472.467 289.867 473.267 290 474.067 290.2 475.067 290.467 476.067 290.933 476.867 291.6 477.2 291.867 477.467 292.333 477.467 292.733L477.4 294.933ZM486.867 280.533C486.867 280.933 486.933 281.333 487.067 281.733L480.933 284.933C480.2 283.467 479.067 282.267 477.733 281.333L483.2 271.133C484.067 271.467 485 271.6 485.933 271.6 486.467 271.6 487 271.533 487.533 271.467L489.267 276.133C487.667 277.067 486.8 278.733 486.867 280.533ZM495.333 283.2 489.133 283.2 489.133 282C489.133 281.733 489.267 281.533 489.467 281.4 489.933 281.067 490.467 280.8 491 280.667 491.4 280.533 491.867 280.467 492.267 280.467 492.667 280.467 493.133 280.533 493.533 280.667 494.067 280.8 494.533 281.067 495 281.4 495.2 281.533 495.333 281.8 495.333 282L495.333 283.2Z" fill="#000000" fill-opacity="0.44"/></g></g></g><g clip-path="url(#clip19)"><g clip-path="url(#clip20)"><g clip-path="url(#clip21)"><path d="M12.25 18.7775C13.8608 18.7775 15.1667 17.4716 15.1667 15.8608 15.1667 14.25 13.8608 12.9442 12.25 12.9442 10.6392 12.9442 9.33333 14.25 9.33333 15.8608 9.33333 17.4716 10.6392 18.7775 12.25 18.7775Z" fill="#000000" fill-opacity="0.44" transform="matrix(1.01786 0 0 1 440 457)"/><path d="M16.0533 25.3867C16.3048 25.568 16.6067 25.666 16.9167 25.6667L21 25.6667C21.8054 25.6667 22.4583 25.0137 22.4583 24.2083 22.4583 23.4029 21.8054 22.75 21 22.75L17.395 22.75 14.6183 20.7142C14.012 19.881 13.0061 19.4359 11.9817 19.5475 10.4724 19.7352 9.34762 21.031 9.37417 22.5517L9.37417 30.9167C9.37417 32.5275 10.68 33.8333 12.2908 33.8333L15.1667 33.8333 15.1667 33.8333 18.6667 33.8333 18.6667 41.2533C18.6667 42.0587 19.3196 42.7117 20.125 42.7117 20.9304 42.7117 21.5833 42.0587 21.5833 41.2533L21.5833 32.3575C21.5833 31.5521 20.9304 30.8992 20.125 30.8992L15.1667 30.8992 15.1667 24.7275Z" fill="#000000" fill-opacity="0.44" transform="matrix(1.01786 0 0 1 440 457)"/><path d="M43.75 18.7775C45.3608 18.7775 46.6667 17.4716 46.6667 15.8608 46.6667 14.25 45.3608 12.9442 43.75 12.9442 42.1392 12.9442 40.8333 14.25 40.8333 15.8608 40.8333 17.4716 42.1392 18.7775 43.75 18.7775Z" fill="#000000" fill-opacity="0.44" transform="matrix(1.01786 0 0 1 440 457)"/><path d="M44.0183 19.5183C42.9939 19.4067 41.988 19.8518 41.3817 20.685L38.605 22.75 35 22.75C34.1946 22.75 33.5417 23.4029 33.5417 24.2083 33.5417 25.0137 34.1946 25.6667 35 25.6667L39.0833 25.6667C39.3933 25.666 39.6953 25.568 39.9467 25.3867L40.8333 24.7275 40.8333 30.9167 35.8925 30.9167C35.0871 30.9167 34.4342 31.5696 34.4342 32.375L34.4342 41.2533C34.4342 42.0587 35.0871 42.7117 35.8925 42.7117 36.6979 42.7117 37.3508 42.0587 37.3508 41.2533L37.3508 33.8333 40.8508 33.8333 40.8508 33.8333 43.6975 33.8333C45.3083 33.8333 46.6142 32.5275 46.6142 30.9167L46.6142 22.5225C46.6414 21.0057 45.523 19.7114 44.0183 19.5183Z" fill="#000000" fill-opacity="0.44" transform="matrix(1.01786 0 0 1 440 457)"/><path d="M37.9167 26.8333 18.0833 26.8333C17.439 26.8333 16.9167 27.3556 16.9167 28 16.9167 28.6443 17.439 29.1667 18.0833 29.1667L26.8333 29.1667 26.8333 40.8333 23.3333 40.8333 23.3333 43.1667 32.6667 43.1667 32.6667 40.8333 29.1667 40.8333 29.1667 29.1667 37.9167 29.1667C38.561 29.1667 39.0833 28.6443 39.0833 28 39.0833 27.3556 38.561 26.8333 37.9167 26.8333Z" fill="#000000" fill-opacity="0.44" transform="matrix(1.01786 0 0 1 440 457)"/><path d="M16.3333 35 8.16667 35 8.16667 23.3333C8.16667 22.689 7.64435 22.1667 7 22.1667 6.35565 22.1667 5.83333 22.689 5.83333 23.3333L5.83333 36.1667C5.83333 36.811 6.35565 37.3333 7 37.3333L10.5 37.3333 10.5 40.8333 8.16667 40.8333 8.16667 43.1667 15.1667 43.1667 15.1667 40.8333 12.8333 40.8333 12.8333 37.3333 16.3333 37.3333C16.9777 37.3333 17.5 36.811 17.5 36.1667 17.5 35.5223 16.9777 35 16.3333 35Z" fill="#000000" fill-opacity="0.44" transform="matrix(1.01786 0 0 1 440 457)"/><path d="M49 22.4583C48.3556 22.4583 47.8333 22.9806 47.8333 23.625L47.8333 35 39.6667 35C39.0223 35 38.5 35.5223 38.5 36.1667 38.5 36.811 39.0223 37.3333 39.6667 37.3333L43.1667 37.3333 43.1667 40.8333 40.8333 40.8333 40.8333 43.1667 47.8333 43.1667 47.8333 40.8333 45.5 40.8333 45.5 37.3333 49 37.3333C49.6443 37.3333 50.1667 36.811 50.1667 36.1667L50.1667 23.625C50.1667 22.9806 49.6443 22.4583 49 22.4583Z" fill="#000000" fill-opacity="0.44" transform="matrix(1.01786 0 0 1 440 457)"/></g></g></g><g clip-path="url(#clip22)"><g clip-path="url(#clip23)"><g clip-path="url(#clip24)"><path d="M480.562 585.75C480.562 586.197 480.047 586.609 479.188 586.919L479.188 585.681C479.669 585.544 480.15 585.338 480.562 585.131L480.562 585.75ZM477.812 583.481 477.812 582.244C478.294 582.106 478.775 581.9 479.188 581.694L479.188 582.312C479.188 582.759 478.672 583.172 477.812 583.481ZM477.812 587.331C477.4 587.434 476.919 587.503 476.438 587.572L476.438 586.231C476.884 586.162 477.366 586.094 477.812 586.025L477.812 587.331ZM475.062 582.794C475.509 582.725 475.991 582.656 476.438 582.588L476.438 583.894C476.025 583.997 475.544 584.066 475.062 584.134L475.062 582.794ZM475.062 587.744C474.616 587.778 474.169 587.812 473.688 587.812L473.688 586.438C474.1 586.438 474.581 586.403 475.062 586.369L475.062 587.744ZM472.312 584.375 472.312 583C472.725 583 473.206 582.966 473.688 582.931L473.688 584.306C473.241 584.341 472.794 584.341 472.312 584.375ZM472.312 587.812C471.831 587.812 471.384 587.778 470.938 587.744L470.938 586.438C471.178 586.438 471.384 586.438 471.625 586.438 471.831 586.438 472.072 586.438 472.312 586.438L472.312 587.812ZM469.562 582.931C470.009 582.966 470.456 583 470.938 583L470.938 584.375C470.456 584.375 470.009 584.341 469.562 584.306L469.562 582.931ZM469.562 587.572C469.081 587.503 468.6 587.434 468.188 587.331L468.188 586.231C468.634 586.3 469.081 586.334 469.562 586.369L469.562 587.572ZM466.812 583.894 466.812 582.553C467.259 582.622 467.706 582.725 468.188 582.759L468.188 584.134C467.706 584.066 467.225 583.997 466.812 583.894ZM466.812 586.919C465.953 586.575 465.438 586.162 465.438 585.75L465.438 585.681C465.438 585.681 465.438 585.681 465.472 585.681 465.575 585.716 465.644 585.75 465.747 585.75 466.091 585.853 466.434 585.922 466.812 585.991L466.812 586.919ZM461.312 582.244C461.553 582.244 461.759 582.278 462 582.278L462 582.312C462 582.794 462.103 583.275 462.344 583.653 462 583.653 461.656 583.619 461.312 583.584L461.312 582.244ZM459.938 578.119C460.384 578.188 460.831 578.291 461.312 578.325L461.312 579.7C460.831 579.631 460.35 579.562 459.938 579.459L459.938 578.119ZM459.938 583.447C459.456 583.378 458.975 583.309 458.562 583.206L458.562 581.866C459.009 581.934 459.456 582.037 459.938 582.072L459.938 583.447ZM457.188 577.844 457.188 577.225C457.6 577.431 458.047 577.603 458.562 577.741L458.562 579.013C457.703 578.703 457.188 578.291 457.188 577.844ZM457.188 582.794C456.328 582.45 455.812 582.037 455.812 581.625L455.812 581.006C456.225 581.213 456.672 581.384 457.188 581.522L457.188 582.794ZM455.812 572.069C456.225 572.275 456.672 572.447 457.188 572.584L457.188 573.856C456.328 573.513 455.812 573.1 455.812 572.688L455.812 572.069ZM459.938 573.169 459.938 574.544C459.456 574.475 458.975 574.406 458.562 574.303L458.562 572.963C459.009 573.031 459.456 573.1 459.938 573.169ZM463.375 567.188C467.569 567.188 470.938 568.116 470.938 569.25 470.938 570.384 467.569 571.312 463.375 571.312 459.181 571.312 455.812 570.384 455.812 569.25 455.812 568.116 459.181 567.188 463.375 567.188ZM465.438 583.481C464.578 583.138 464.062 582.725 464.062 582.312L464.062 581.694C464.475 581.9 464.922 582.072 465.438 582.209L465.438 583.481ZM469.562 573.856 469.562 572.619C470.044 572.481 470.525 572.275 470.938 572.069L470.938 572.688C470.938 573.134 470.422 573.547 469.562 573.856ZM466.812 574.509 466.812 573.169C467.259 573.1 467.741 573.031 468.188 572.963L468.188 574.269C467.775 574.372 467.294 574.441 466.812 574.509ZM464.062 574.75 464.062 573.375C464.475 573.375 464.956 573.341 465.438 573.306L465.438 574.681C464.991 574.716 464.544 574.716 464.062 574.75ZM461.312 574.681 461.312 573.306C461.759 573.341 462.206 573.375 462.688 573.375L462.688 574.75C462.206 574.716 461.759 574.716 461.312 574.681ZM479.188 578.875C479.188 580.009 475.819 580.938 471.625 580.938 467.431 580.938 464.062 580.009 464.062 578.875 464.062 577.741 467.431 576.812 471.625 576.812 475.819 576.812 479.188 577.741 479.188 578.875ZM481.25 579.906 481.25 578.875C481.25 577.259 479.978 576.091 477.503 575.438 476.575 575.197 475.509 574.991 474.306 574.888 474.341 574.75 474.341 574.578 474.341 574.406 474.341 573.444 473.894 572.619 472.966 572L472.966 569.25C472.966 567.634 471.694 566.466 469.219 565.812 467.603 565.366 465.541 565.125 463.341 565.125 460.453 565.125 453.716 565.537 453.716 569.25L453.716 572.688C453.716 573.65 454.163 574.475 455.091 575.094L455.091 575.747C454.266 576.331 453.716 577.122 453.716 578.188L453.716 581.625C453.716 583.241 454.987 584.409 457.462 585.062 459.078 585.509 461.141 585.75 463.341 585.75 463.341 587.366 464.612 588.534 467.087 589.188 468.703 589.634 470.766 589.875 472.966 589.875 475.853 589.875 482.591 589.463 482.591 585.75L482.591 582.312C482.625 581.35 482.178 580.525 481.25 579.906Z" fill="#000000" fill-opacity="0.44"/></g></g></g><path d="M732 241C732 246.523 727.747 251 722.5 251 717.253 251 713 246.523 713 241 713 235.477 717.253 231 722.5 231 727.747 231 732 235.477 732 241Z" fill="#08A5EF" fill-rule="evenodd"/><path d="M732 344.5C732 349.747 727.747 354 722.5 354 717.253 354 713 349.747 713 344.5 713 339.253 717.253 335 722.5 335 727.747 335 732 339.253 732 344.5Z" fill="#739A28" fill-rule="evenodd"/><path d="M732 554C732 559.523 727.747 564 722.5 564 717.253 564 713 559.523 713 554 713 548.477 717.253 544 722.5 544 727.747 544 732 548.477 732 554Z" fill="#B7B28D" fill-rule="evenodd"/><path d="M732 447.5C732 452.747 727.747 457 722.5 457 717.253 457 713 452.747 713 447.5 713 442.253 717.253 438 722.5 438 727.747 438 732 442.253 732 447.5Z" fill="#2B8458" fill-rule="evenodd"/><text fill="#404040" font-family="Segoe UI,Segoe UI_MSFontService,sans-serif" font-weight="700" font-size="32" transform="translate(751.184 291)"><tspan x="0" y="0">5645</tspan><tspan font-size="32" x="0" y="104">652</tspan><tspan font-size="32" x="0" y="206">37</tspan><tspan font-size="32" x="0" y="312">11</tspan></text></g></svg>