<!--PureVizConfig>[{"vid":"18","visualtype":"rect","propertyType":"shapetransformani","mappingOption":"custom","mappedValue":["0","0","0","0","0","0","0","{math|72|}","1","1","ease-in-out","alternate","0","50","0","100","100","100","100"]},{"vid":"23","visualtype":"tspan","propertyType":"numbercountup","mappingOption":"custom","mappedValue":["{math|[Eficiency %]-5|}","0","1","0","%","","42%"]},{"vid":"25","visualtype":"tspan","propertyType":"numbercountup","mappingOption":"custom","mappedValue":["{math|[Eficiency %]-1|}","0","1","0","%","","91%"]},{"vid":"19","visualtype":"rect","propertyType":"shapetransformani","mappingOption":"custom","mappedValue":["0","0","0","0","0","0","0","{math|80|}","1","1","linear","alternate","0","50","0","100","100","100","100"]},{"vid":"20","visualtype":"rect","propertyType":"shapetransformani","mappingOption":"custom","mappedValue":["0","0","0","0","0","0","0","{math|62|}","1","1","linear","alternate","0","50","0","100","100","100","100"]},{"vid":"26","visualtype":"tspan","propertyType":"textcontent","mappingOption":"custom","mappedValue":[""]},{"vid":"26","visualtype":"tspan","propertyType":"numbercountup","mappingOption":"custom","mappedValue":["{math|62|}","0","1","0","%",""]},{"vid":"20","visualtype":"rect","propertyType":"shapecolorani","mappingOption":"custom","mappedValue":["rgba(101, 157, 54, 1)","rgba(65, 144, 63, 1)","1","0","alternate","linear",null,"0"]},{"vid":"21","visualtype":"path","propertyType":"shapetransformani","mappingOption":"custom","mappedValue":["0","0","0","0","0","0","100","100","1","1","ease-out","alternate","50","0","0.6","0","100","100","100"]},{"vid":"24","visualtype":"tspan","propertyType":"shapecolorani","mappingOption":"custom","mappedValue":["rgba(255, 255, 255, 1)","rgba(49, 49, 50, 1)","1","1","alternate","linear",null,"0.5"]},{"vid":"24","visualtype":"tspan","propertyType":"textfill","mappingOption":"custom","mappedValue":["rgba(255, 255, 255, 1)"]},{"vid":"23","visualtype":"tspan","propertyType":"textcontent","mappingOption":"custom","mappedValue":["72%"]},{"vid":"25","visualtype":"tspan","propertyType":"textcontent","mappingOption":"custom","mappedValue":["82%"]}]</PureVizConfig--><svg viewBox="0 0 484 328" width="484" height="328" xmlns="http://www.w3.org/2000/svg" xmlns:xlink="http://www.w3.org/1999/xlink" overflow="hidden"><defs><clipPath id="clip0"><rect x="398" y="196" width="484" height="328"/></clipPath><clipPath id="clip1"><rect x="818" y="357" width="42" height="41"/></clipPath><clipPath id="clip2"><rect x="818" y="357" width="42" height="41"/></clipPath><clipPath id="clip3"><rect x="818" y="357" width="42" height="41"/></clipPath></defs><g clip-path="url(#clip0)" transform="translate(-398 -196)"><rect x="399" y="197" width="482" height="326" fill="#FFFFFF"/><rect x="431" y="353" width="432" height="48" fill="#E7E6E6"/><rect x="431" y="449" width="432" height="48" fill="#E7E6E6"/><rect x="431" y="257" width="432" height="48" fill="#E7E6E6"/><text fill="#ED7D31" font-family="Segoe UI,Segoe UI_MSFontService,sans-serif" font-weight="600" font-size="21" transform="translate(430.986 246)"><tspan x="0" y="0">Segment 1</tspan><tspan fill="#4472C4" font-size="21" x="0" y="96">Segment 2</tspan><tspan fill="#70AD47" font-size="21" x="0" y="192">Segment 3</tspan></text><rect x="431" y="257" width="432" height="48" fill="#ED7D31"/><rect x="431" y="353" width="432" height="48" fill="#4472C4"/><rect x="431" y="449" width="432" height="48" fill="#70AD47"/><path d="M0 0 0.000104987 255.139" stroke="#595959" stroke-width="2.66667" stroke-miterlimit="8" stroke-opacity="0.709804" fill="none" fill-rule="evenodd" transform="matrix(1 0 0 -1 750.5 503.639)"/><text fill="#FFFFFF" font-family="Segoe UI,Segoe UI_MSFontService,sans-serif" font-weight="600" font-size="19" transform="translate(440.586 288)"><tspan x="0" y="0">42%</tspan><tspan fill="#595959" fill-opacity="0.670588" font-size="16" x="263.744" y="-51">Target: 75%</tspan><tspan font-size="19" x="0" y="96">91%</tspan><tspan font-size="19" x="0" y="192">70%</tspan></text><g clip-path="url(#clip1)"><g clip-path="url(#clip2)"><g clip-path="url(#clip3)"><path d="M20.5 22.8063C17.724 22.8063 15.4604 25.0698 15.4604 27.8458 15.4604 30.6219 17.724 32.9281 20.5 32.9281 23.276 32.9281 25.5396 30.6646 25.5396 27.8885 25.5396 25.1125 23.276 22.8063 20.5 22.8063" fill="#000000" fill-opacity="0.31" transform="matrix(1.02439 0 0 1 818 357)"/><path d="M20.5 18.4927C15.3323 18.4927 11.1042 22.7208 11.1042 27.8885 11.1042 33.0563 15.3323 37.2844 20.5 37.2844 25.6677 37.2844 29.8958 33.0563 29.8958 27.8885 29.8958 22.7208 25.6677 18.4927 20.5 18.4927M20.5 34.7219C16.7417 34.7219 13.6667 31.6469 13.6667 27.8885 13.6667 24.1302 16.7417 21.0552 20.5 21.0552 24.2583 21.0552 27.3333 24.1302 27.3333 27.8885 27.3333 31.6469 24.2583 34.7219 20.5 34.7219" fill="#000000" fill-opacity="0.31" transform="matrix(1.02439 0 0 1 818 357)"/><path d="M22.8063 16.9979C24.5146 17.3823 26.0948 18.1083 27.4615 19.176L32.7146 7.30313 30.3229 3.71563 28.7854 3.71563 25.4542 11.0188 22.8063 16.9979Z" fill="#000000" fill-opacity="0.31" transform="matrix(1.02439 0 0 1 818 357)"/><path d="M18.1938 16.9979 15.5458 11.0188 12.2146 3.71563 10.6771 3.71563 8.32812 7.30313 13.5813 19.176C14.9052 18.151 16.4854 17.3823 18.1938 16.9979" fill="#000000" fill-opacity="0.31" transform="matrix(1.02439 0 0 1 818 357)"/><path d="M24.5573 8.88333 26.9062 3.75833 14.0938 3.75833 16.4427 8.88333Z" fill="#000000" fill-opacity="0.31" transform="matrix(1.02439 0 0 1 818 357)"/></g></g></g></g></svg>