<svg width="913" height="483" xmlns="http://www.w3.org/2000/svg" xmlns:xlink="http://www.w3.org/1999/xlink" overflow="hidden"><defs><clipPath id="clip0"><rect x="26" y="20" width="913" height="483"/></clipPath><linearGradient x1="491" y1="307" x2="491" y2="149" gradientUnits="userSpaceOnUse" spreadMethod="reflect" id="fill1"><stop offset="0" stop-color="#00B0F0"/><stop offset="0.76" stop-color="#00B0F0"/><stop offset="0.77" stop-color="#D9D9D9"/><stop offset="0.77" stop-color="#D9D9D9"/><stop offset="1" stop-color="#D9D9D9"/></linearGradient><linearGradient x1="491" y1="307" x2="491" y2="149" gradientUnits="userSpaceOnUse" spreadMethod="reflect" id="fill2"><stop offset="0" stop-color="#66D0F6"/><stop offset="0.76" stop-color="#66D0F6"/><stop offset="0.77" stop-color="#E8E8E8"/><stop offset="0.77" stop-color="#E8E8E8"/><stop offset="1" stop-color="#E8E8E8"/></linearGradient><linearGradient x1="388" y1="413" x2="606" y2="413" gradientUnits="userSpaceOnUse" spreadMethod="reflect" id="fill3"><stop offset="0" stop-color="#00B050"/><stop offset="0.41" stop-color="#00B050"/><stop offset="0.41" stop-color="#D9D9D9"/><stop offset="1" stop-color="#D9D9D9"/></linearGradient><linearGradient x1="83" y1="413" x2="301" y2="413" gradientUnits="userSpaceOnUse" spreadMethod="reflect" id="fill4"><stop offset="0" stop-color="#00B050"/><stop offset="0.44" stop-color="#00B050"/><stop offset="0.44" stop-color="#D9D9D9"/><stop offset="1" stop-color="#D9D9D9"/></linearGradient></defs><g clip-path="url(#clip0)" transform="translate(-26 -20)"><rect x="28" y="21" width="910" height="479" fill="#FFFFFF"/><rect x="84" y="147" width="213" height="213" fill="#D9D9D9"/><path d="M296.04 252.766 297 252.766 297 253.725 296.04 253.725ZM190.663 147 190.663 200.25C161.209 200.25 137.331 224.091 137.331 253.5 137.331 282.909 161.209 306.75 190.663 306.75L190.663 360C131.755 360 84 312.318 84 253.5 84 194.682 131.755 147 190.663 147Z" fill="#7030A0" fill-rule="evenodd"/><rect x="28" y="79" width="910" height="5" fill="#7F7F7F" fill-opacity="0.101961"/><path d="M705 49.5C705 38.7304 713.73 30 724.5 30 735.27 30 744 38.7304 744 49.5 744 60.2696 735.27 69 724.5 69 713.73 69 705 60.2696 705 49.5Z" stroke="#70AD47" stroke-width="2" stroke-miterlimit="8" fill="none" fill-rule="evenodd"/><text fill="#548235" font-family="Calibri,Calibri_MSFontService,sans-serif" font-weight="400" font-size="24" transform="translate(712.389 57)">23</text><path d="M760 49.5C760 38.7304 768.507 30 779 30 789.493 30 798 38.7304 798 49.5 798 60.2696 789.493 69 779 69 768.507 69 760 60.2696 760 49.5Z" stroke="#FFC000" stroke-width="2" stroke-miterlimit="8" fill="none" fill-rule="evenodd"/><text fill="#FFC000" font-family="Calibri,Calibri_MSFontService,sans-serif" font-weight="400" font-size="24" transform="translate(766.843 57)">24</text><path d="M814 49.5C814 38.7304 822.73 30 833.5 30 844.27 30 853 38.7304 853 49.5 853 60.2696 844.27 69 833.5 69 822.73 69 814 60.2696 814 49.5Z" stroke="#C00000" stroke-width="2" stroke-miterlimit="8" fill="none" fill-rule="evenodd"/><text fill="#C00000" font-family="Calibri,Calibri_MSFontService,sans-serif" font-weight="400" font-size="24" transform="translate(821.297 57)">25</text><path d="M869 49.5C869 38.7304 877.507 30 888 30 898.493 30 907 38.7304 907 49.5 907 60.2696 898.493 69 888 69 877.507 69 869 60.2696 869 49.5Z" stroke="#0070C0" stroke-width="2" stroke-miterlimit="8" fill="none" fill-rule="evenodd"/><text fill="#0070C0" font-family="Calibri,Calibri_MSFontService,sans-serif" font-weight="400" font-size="24" transform="translate(875.751 57)">26</text><path d="M415 155.287C415 158.759 449.026 161.573 491 161.573 532.974 161.573 567 158.759 567 155.287L567 300.713C567 304.185 532.974 307 491 307 449.026 307 415 304.185 415 300.713Z" fill="url(#fill1)" fill-rule="evenodd"/><path d="M415 155.287C415 151.815 449.026 149 491 149 532.974 149 567 151.815 567 155.287 567 158.759 532.974 161.573 491 161.573 449.026 161.573 415 158.759 415 155.287Z" fill="url(#fill2)" fill-rule="evenodd"/><path d="M567.5 154.5 593.638 154.5" stroke="#000000" stroke-width="0.666667" stroke-miterlimit="8" fill="none" fill-rule="evenodd"/><path d="M567.5 301.5 593.185 301.5" stroke="#000000" stroke-width="0.666667" stroke-miterlimit="8" fill="none" fill-rule="evenodd"/><rect x="388" y="395" width="218" height="36" fill="url(#fill3)"/><rect x="354" y="84" width="4" height="416" fill="#7F7F7F" fill-opacity="0.101961"/><path d="M800 500 807.049 261 812.938 261 819.986 500Z" fill="#7F7F7F" fill-rule="evenodd"/><path d="M815.961 252.61 814.62 251.719C812.076 250.688 809.213 250.688 806.669 251.72L804.872 252.913 799.672 191.914C799.672 189.41 800.944 187.379 802.513 187.379ZM803.822 269.409 746.61 290.59C744.196 291.257 741.9 290.572 741.483 289.059L800.605 258.815 800.081 261.51C800.081 264.213 801.112 266.917 803.175 268.98ZM815.003 265.869C812.492 268.38 808.421 268.38 805.909 265.869 803.398 263.357 803.398 259.286 805.909 256.775 808.421 254.264 812.492 254.263 815.003 256.775 817.515 259.286 817.515 263.357 815.003 265.869ZM874.154 296.392 815.591 270.655 818.114 268.98C820.177 266.917 821.208 264.213 821.208 261.51L821.2 261.467 872.101 291.45C874.143 292.9 875.062 295.112 874.154 296.392ZM865.166 316.031C895.381 285.816 895.381 236.827 865.166 206.612 834.951 176.397 785.962 176.397 755.747 206.612 725.531 236.827 725.531 285.816 755.747 316.031 785.962 346.247 834.951 346.247 865.166 316.031ZM865.349 316.215C835.033 346.531 785.88 346.531 755.563 316.215 725.247 285.898 725.247 236.745 755.563 206.429 785.88 176.112 835.033 176.112 865.349 206.429 895.666 236.745 895.666 285.898 865.349 316.215Z" fill="#0B6F6F" fill-rule="evenodd"/><rect x="678" y="84" width="4" height="416" fill="#7F7F7F" fill-opacity="0.101961"/><path d="M190.5 176.946C203.717 176.946 216.934 180.364 228.777 187.202 252.463 200.877 267.054 226.15 267.054 253.5L297 253.5 297 360 84 360 84 253.5 113.946 253.5C113.946 226.15 128.537 200.877 152.223 187.202 164.066 180.364 177.283 176.946 190.5 176.946ZM190.5 147 297 147 297 253.499 296.064 239.393C291.728 206.914 272.582 177.915 243.75 161.268 227.274 151.756 208.887 147 190.5 147ZM84 147 190.5 147C172.113 147 153.726 151.756 137.25 161.268 104.299 180.293 84 215.451 84 253.5Z" fill="#FFFFFF" fill-rule="evenodd"/><rect x="83" y="395" width="218" height="36" fill="url(#fill4)"/><rect x="28" y="329" width="654" height="5" fill="#7F7F7F" fill-opacity="0.101961"/><text fill="#3B3838" font-family="Segoe UI,Segoe UI_MSFontService,sans-serif" font-weight="400" font-size="32" transform="translate(45.7841 61)">SANTRAL ADI <tspan fill="#000000" font-size="19" x="329.121" y="56">Göl</tspan><tspan fill="#000000" font-size="19" x="362.621" y="56">Kotu</tspan><tspan fill="#000000" font-size="19" x="406.207" y="56">(m) </tspan><tspan fill="#000000" font-size="12" x="553.451" y="96">Max: 235</tspan><tspan fill="#000000" font-size="12" x="553.451" y="244">Min: 210</tspan><tspan fill="#000000" font-weight="700" font-size="19" x="541.501" y="167">235 m</tspan><tspan fill="#FFFFFF" font-weight="700" font-size="27" x="417.51" y="175">%82</tspan><tspan fill="#000000" font-size="19" x="329.121" y="303">U2 </tspan><tspan fill="#000000" font-size="19" x="357.121" y="303">Güç</tspan><tspan fill="#000000" font-size="19" x="394.287" y="303">(Mw)</tspan><tspan fill="#000000" font-size="19" x="526.607" y="396">316</tspan><tspan fill="#000000" font-size="19" x="340.338" y="392">0</tspan><tspan fill="#000000" font-weight="700" font-size="16" x="432.631" y="396">%47</tspan><tspan fill="#FFFFFF" font-weight="700" font-size="21" x="351.373" y="360">117</tspan><tspan fill="#000000" font-size="19" x="709.229" y="63">Wind Status</tspan><tspan fill="#000000" fill-opacity="0.521569" font-weight="700" font-size="27" x="696.262" y="106">45.2 m/</tspan><tspan fill="#000000" fill-opacity="0.521569" font-weight="700" font-size="27" x="793.095" y="106">sn</tspan><tspan fill="#000000" font-size="19" x="-0.583622" y="56">Aktif</tspan><tspan fill="#000000" font-size="19" x="42.4364" y="56">Güç</tspan><tspan fill="#000000" font-size="19" x="79.603" y="56">(Mw)</tspan><tspan fill="#000000" font-weight="700" font-size="19" x="109.425" y="163">234 Mw</tspan><tspan fill="#000000" font-size="19" x="219.192" y="216">300</tspan><tspan fill="#000000" font-size="19" x="50.0197" y="216">0</tspan><tspan fill="#000000" font-weight="700" font-size="16" x="128.356" y="206">%48</tspan><tspan fill="#000000" font-size="19" x="-0.583515" y="303">U1 </tspan><tspan fill="#000000" font-size="19" x="27.4165" y="303">Aktif</tspan><tspan fill="#000000" font-size="19" x="70.4365" y="303">Güç</tspan><tspan fill="#000000" font-size="19" x="107.603" y="303">(Mw)</tspan><tspan fill="#000000" font-size="19" x="224.988" y="395">315</tspan><tspan fill="#000000" font-size="19" x="33.9292" y="395">0</tspan><tspan fill="#000000" font-weight="700" font-size="16" x="128.356" y="396">%46</tspan><tspan fill="#FFFFFF" font-weight="700" font-size="21" x="47.0983" y="360">116</tspan><tspan fill="#000000" font-size="16" x="643.251" y="406">Angle: 32’</tspan><tspan fill="#000000" font-size="16" x="643.251" y="428">Power: 2.1 Mw</tspan></text></g></svg>